<svg width="17" height="22" fill="none" xmlns="http://www.w3.org/2000/svg"><path d="M13.333 6c0 1.887-1.046 4.16-2.6 5.407l-.08.06c-.693.54-1.48.866-2.32.866-.84 0-1.626-.326-2.32-.866l-.08-.06C4.38 10.16 3.333 7.887 3.333 6c0-2.76 2.24-5 5-5s5 2.24 5 5z" stroke="#1F2041" stroke-opacity=".5" stroke-width="2" stroke-miterlimit="10" stroke-linecap="round" stroke-linejoin="round"/><path d="M15.667 18.333V21H1v-2.667c0-3.213 2.06-5.94 4.933-6.926l.08.06c.694.54 1.48.866 2.32.866.84 0 1.627-.326 2.32-.867l.08-.06a7.317 7.317 0 014.934 6.927z" stroke="#1F2041" stroke-opacity=".5" stroke-width="2" stroke-miterlimit="10" stroke-linecap="round" stroke-linejoin="round"/></svg>