<?xml version="1.0" standalone="no"?>
<!DOCTYPE svg PUBLIC "-//W3C//DTD SVG 1.1//EN" "http://www.w3.org/Graphics/SVG/1.1/DTD/svg11.dtd" >
<svg xmlns="http://www.w3.org/2000/svg" xmlns:xlink="http://www.w3.org/1999/xlink" version="1.1">
<metadata></metadata>
<defs>
<font id="quicksanddash" horiz-adv-x="471" >
<font-face units-per-em="2048" ascent="1638" descent="-410" />
<missing-glyph horiz-adv-x="614" />
<glyph horiz-adv-x="0" />
<glyph unicode="&#xd;" horiz-adv-x="681" />
<glyph unicode=" "  horiz-adv-x="614" />
<glyph unicode="&#x09;" horiz-adv-x="614" />
<glyph unicode="&#xa0;" horiz-adv-x="614" />
<glyph unicode="!" horiz-adv-x="516" d="M190 27v49q0 25 27 24q25 0 25 -24v-49q0 -10 -7.5 -18.5t-17.5 -8.5q-27 0 -27 27zM190 342v104q0 25 27 25q25 0 25 -25v-104q0 -27 -25 -27q-27 0 -27 27zM190 549v104q0 27 27 27q25 0 25 -27v-104q0 -25 -25 -25q-27 0 -27 25zM190 758v102q0 27 27 27q25 0 25 -27 v-102q0 -27 -25 -27q-27 0 -27 27zM190 965v104q0 25 27 25q25 0 25 -25v-104q0 -27 -25 -27q-27 0 -27 27zM190 1171v105q0 25 27 24q25 0 25 -24v-105q0 -10 -7.5 -18t-17.5 -8q-27 -1 -27 26zM190 1378v29q0 27 27 27q10 0 17.5 -8.5t7.5 -18.5v-29q0 -25 -25 -24 q-27 -1 -27 24z" />
<glyph unicode="&#x22;" horiz-adv-x="839" d="M139 1298v13v6v2q0 92 78 113h6q13 -1 13 -13q6 -10 -11 -18q-35 -10 -49 -43q4 2 12 2q23 0 38.5 -14.5t15.5 -35t-16.5 -37t-37.5 -16.5q-37 0 -47 37q-2 0 -2 4zM291 1298v5v8v8q0 92 78 113h6q12 -1 12 -13q6 -10 -10 -18q-35 -10 -49 -43q4 2 12 2q23 0 38 -14.5 t15 -35t-16.5 -37t-36.5 -16.5q-37 0 -47 37q-2 0 -2 4z" />
<glyph unicode="#" horiz-adv-x="1433" d="M92 432.5q0 26.5 27 26.5h53q27 0 27 -26.5t-27 -26.5h-53q-27 0 -27 26.5zM156 952q0 27 26 27h54q27 0 26 -27q1 -28 -26 -28h-54q-27 0 -26 28zM252 432.5q0 26.5 27 26.5h71l21 106q2 10 11 16.5t19.5 4.5t16.5 -11.5t4 -19.5l-19 -102q10 -10 11 -21q0 -26 -27 -26 h-108q-27 0 -27 26.5zM276 35l19 104q4 27 30.5 23t22.5 -31l-18 -106q-4 -23 -27 -23h-4q-27 6 -23 33zM313 246l19 106q8 27 32.5 23t20.5 -31l-18 -106q-4 -23 -27 -23h-4q-27 4 -23 31zM315 952q0 27 27 27h100l2 10q4 27 31 23q27 -6 23 -33l-19 -105q-4 -23 -26 -22 h-4q-27 4 -23 31l6 41h-90q-27 0 -27 28zM389 672l19 104q4 27 30.5 23t22.5 -31l-19 -106q-3 -23 -26 -23h-6q-27 8 -21 33zM463 1096l18 106q8 27 33 21q10 -2 16.5 -11.5t4.5 -19.5l-19 -107q-4 -23 -27 -22q-2 0 -2 1t-2 1q-27 4 -22 31zM467 432.5q0 26.5 29 26.5h106 q27 0 27 -26.5t-27 -26.5h-106q-29 0 -29 26.5zM502 1309l18 104q4 27 31 23t22 -31l-20 -107q-5 -22 -25 -22h-6q-27 8 -20 33zM530 952q0 27 27 27h109q27 0 26 -27q1 -28 -26 -28h-109q-27 0 -27 28zM653 35l19 104q4 27 30.5 23t22.5 -31l-18 -106q-4 -23 -27 -23h-4 q-27 8 -23 33zM684 432.5q0 26.5 27 26.5h18l19 106q2 10 11 16.5t19 4.5q27 -4 23 -31l-17 -96h33q29 0 29 -26.5t-29 -26.5h-106q-27 0 -27 26.5zM690 246l19 106q8 27 32 23q10 -2 16.5 -11.5t4.5 -19.5l-19 -106q-3 -23 -26 -23h-4q-27 4 -23 31zM745 952q0 27 29 27h45 l2 10q8 27 33 23q25 -6 20 -33h7q27 0 26 -27q0 -29 -26 -28h-17l-8 -50q-4 -23 -27 -22h-4q-27 4 -22 31l6 41h-35q-29 0 -29 28zM766 672l18 104q4 27 31 23t23 -31l-19 -106q-3 -23 -26 -23h-5q-27 6 -22 33zM840 1096l20 106q2 10 11.5 16.5t19.5 4.5q27 -4 22 -31 l-20 -107q-4 -23 -27 -22q-2 2 -4 2q-27 4 -22 31zM879 1309l18 104q4 27 30.5 23t22.5 -31l-18 -107q-4 -22 -27 -22h-6q-27 8 -20 33zM899 432.5q0 26.5 27 26.5h108q27 0 27 -26.5t-27 -26.5h-108q-27 0 -27 26.5zM963 952q0 27 26 27h107q29 0 28 -27q1 -28 -28 -28 h-107q-27 0 -26 28z" />
<glyph unicode="$" horiz-adv-x="1294" d="M135 260q20 25 51 4q45 -41 107 -74q29 -14 14 -45q-10 -20 -31 -20q-10 0 -18 6q-78 49 -115 80q-25 18 -8 49zM168 993q-4 35 27 41q12 4 24 -4t17 -20q10 -49 59 -101q27 -20 2 -45q-10 -10 -27 -10q-12 0 -22 8q-59 59 -80 131zM176 1147q31 76 84 125q8 10 23.5 10 t23.5 -10q20 -27 0 -49q-45 -43 -65 -99q-6 -23 -31 -22q-10 0 -12 2q-14 2 -20.5 15.5t-2.5 27.5zM354 829q18 31 45 15q98 -37 123 -43q35 -12 25 -41q-6 -25 -33 -25h-8q-72 18 -133 47q-29 12 -19 47zM362 1311q-12 29 17 43q82 33 139 43q33 10 41 -29q4 -29 -27 -37 q-68 -12 -122 -37q-8 -4 -15 -4q-21 1 -33 21zM365 115q14 31 47 22q43 -20 125 -39q31 -4 26 -39q-8 -26 -33 -26h-6q-76 16 -139 39q-31 12 -20 43zM592 -12q0 14 10 25.5t25 11.5q33 0 32 -37v-135q0 -33 -32 -33q-14 0 -24.5 10.5t-10.5 22.5v135zM592 123v139 q0 33 35 33q33 0 32 -33v-139q0 -33 -32 -33q-35 0 -35 33zM592 397v135q0 33 35 33q33 0 32 -33v-135q0 -33 -32 -32q-35 -1 -35 32zM592 668v137q0 33 35 33q33 0 32 -33v-37q66 -12 129 -29q31 -6 23 -45q-6 -23 -33 -22h-8q-18 6 -111 26v-30q0 -35 -32 -35 q-14 0 -24.5 10.5t-10.5 24.5zM592 942v135q0 12 10 22.5t25 10.5q33 0 32 -33v-135q0 -37 -32 -37q-35 0 -35 37zM592 1210v138q0 14 10 24t25 10q8 29 35 25q61 -2 141 -27q31 -20 20 -45q-6 -23 -30 -22q-6 0 -13 2q-70 20 -121 24v-129q0 -33 -32 -32q-14 0 -24.5 10 t-10.5 22zM592 1483v137q0 14 10 24.5t25 10.5q33 0 32 -35v-137q0 -33 -32 -33q-35 0 -35 33zM631 55q0 33 31 37q72 4 129 21q29 6 40 -25q2 -14 -5 -25.5t-17 -15.5q-72 -20 -143 -22h-2q-29 -1 -33 30zM877 672q10 29 45 16q68 -33 118 -80q25 -25 2 -49q-8 -10 -24 -10 q-15 0 -23 8q-41 39 -104 70q-33 14 -14 45zM887 1309q6 12 19.5 15t25.5 -3q49 -25 119 -74q27 -16 10 -45q-12 -16 -31 -16q-6 0 -16 6q-18 14 -57 37.5t-56 34.5q-29 14 -14 45zM893 115q-14 29 14 47q66 41 97 76q23 29 47 4q25 -20 2 -47q-49 -59 -113 -95 q-12 -4 -16 -4q-19 1 -31 19zM1059 344q6 20 6 55q0 31 -6 60q-12 31 24 45q10 4 23.5 -3t15.5 -20q12 -41 13 -82q0 -45 -11 -73q-6 -25 -30 -25q-7 0 -9 2q-37 8 -26 41z" />
<glyph unicode="&#x26;" horiz-adv-x="1425" d="M100 459q0 37 2 55q8 29 29 23q25 -4 25 -27q-4 -16 -4 -51q0 -31 4 -49q4 -23 -25 -29h-2q-21 0 -27 25q-2 18 -2 53zM129 299q-4 8 1 18.5t15 14.5q8 4 18.5 0t14.5 -15q12 -39 45 -86q12 -23 -6 -36q-8 -4 -16 -5q-11 1 -21 11q-35 53 -51 98zM129 621q16 49 49 98 q18 23 37 8q20 -16 8 -37q-33 -51 -45 -88q-6 -14 -26 -14h-7q-10 2 -15 12t-1 21zM217 1104q0 12 2 20q0 10 9.5 18.5t17.5 6.5q27 0 26 -27q-4 -8 -4 -18t11 -78q12 -23 -17 -31h-6q-21 1 -27 19q-12 57 -12 90zM244 1213.5q-4 9.5 2 19.5q18 53 59 94q18 20 37 2 q16 -16 2 -35q-31 -33 -51 -82q-8 -14 -25 -14q-6 0 -10 2q-10 4 -14 13.5zM248 766q-16 20 4 37q35 31 74 53q-23 20 -47 55q-16 18 6 37q20 14 37 -6q33 -43 67 -68q8 -4 9 -15t-5 -19q-4 -10 -18 -11q-4 -8 -10 -8q-20 -12 -80 -57q-2 -8 -17 -8q-12 0 -20 10zM252 156 q4 8 15.5 8t19.5 -8q33 -27 82 -56q18 -10 10 -34q-10 -14 -25 -15q-8 0 -12 4q-61 37 -88 64q-27 16 -2 37zM383 1360q-12 23 10 37q57 27 107 35q29 4 28 -21q6 -27 -20 -33q-47 -4 -88 -28h-2q-4 -2 -10 -2q-13 0 -25 12zM426 47q8 25 33 19q49 -14 96 -15q27 0 27 -24 q-9 -27 -27 -27h-2q-51 0 -111 16q-25 4 -16 31zM510 379q0 29 4 45q4 25 31 20q8 0 15 -9t5 -19q-2 -12 -2 -37q0 -31 2 -41l2 -12q10 -23 -14 -35h-8q-23 0 -27 18l-2 4q0 4 -1 10.5t-2 13.5t-2 18.5t-1 23.5zM565 494q-20 16 0 36q33 41 94 64q25 12 33 -12 q12 -25 -12 -33q-47 -20 -76 -53q-8 -10 -20 -11q-11 1 -19 9zM584 1407q4 29 28 20q41 -4 107 -38q8 -2 10 -13.5t-2 -19.5q-8 -12 -22 -13q-11 1 -13 3q-51 25 -90 32q-23 6 -18 29zM631 31q-6 27 20 30q55 14 90 35q25 6 37 -12q10 -25 -12 -35q-49 -25 -104 -37 q0 -2 -7 -2q-16 1 -24 21zM741 594q-4 25 25 29q41 8 102 8h4q25 0 25 -27q0 -25 -25 -24h-4q-57 0 -96 -9h-4q-23 0 -27 23zM766 1286q-18 18 2 35q18 16 37 -2q37 -49 57 -98q8 -23 -16 -31q-2 -2 -10 -2q-17 0 -25 14q-12 37 -45 84zM819 113q-14 23 6 34q59 66 66 74 q4 8 15.5 9t19.5 -5q27 -10 6 -35q-29 -41 -74 -81q-8 -4 -18 -5q-13 1 -21 9zM829 1104v8q0 25 27 25t27 -25v-8q0 -27 -27 -27t-27 27zM936 307q14 31 27 92q2 10 11 16.5t19 4.5q27 -4 21 -29q-6 -51 -29 -106q-6 -14 -22 -15q-9 0 -11 2q-23 12 -16 35zM946 592 q-8 23 17 35h4q2 2 6 2q49 4 80 30q25 14 37 -4q16 -18 -3 -37q-39 -33 -83 -38q2 -10 14 -78q4 -25 -25 -29h-2q-18 0 -26 23q-2 49 -19 96zM1087 813q-10 27 19 31q27 4 31 -19q8 -33 8 -69v-31q-2 -20 -27 -20h-4q-27 0 -22 28v23q0 16 -5 57z" />
<glyph unicode="'" d="M139 1382q0 23 16.5 38.5t37.5 15.5q37 0 47 -37q0 -4 2 -4v-21q0 -92 -78 -112h-6q-13 0 -13 12q-6 10 11 18q37 8 47 41h-10q-23 0 -38.5 14.5t-15.5 34.5z" />
<glyph unicode="(" horiz-adv-x="880" d="M145 575v39q0 55 2 82q0 29 31 29q29 -4 29 -31q-2 -27 -2 -80v-36q0 -31 -29 -31q-31 -1 -31 28zM152 455q-4 29 26 32q29 0 33 -28q4 -59 12 -115q4 -29 -26 -33q0 -2 -4 -2q-25 0 -29 27q-10 59 -12 119zM156 815q8 76 14 121q6 29 35 25q29 -6 24 -35 q-12 -70 -16 -115q0 -27 -29 -27h-2q-12 0 -20 10.5t-6 20.5zM186 217q-8 27 23 35q27 8 35 -23q18 -70 32 -110q10 -25 -16 -37q-4 -2 -10 -2q-21 0 -29 18q-16 43 -35 119zM197 1055q16 55 41 114q10 29 38 17q29 -10 17 -39q-16 -39 -39 -109q-4 -23 -29 -22h-4 q-2 2 -4 2q-29 8 -20 37zM274 -12q-14 25 11 41q23 12 41 -13q27 -49 67 -86q23 -23 0 -41q-10 -10 -20 -10q-15 0 -21 8q-43 41 -78 101zM299 1278q43 57 90 92q20 18 41 -6q14 -27 -6 -43q-39 -25 -76 -76q-10 -12 -24 -12q-13 0 -19 4q-25 20 -6 41zM442 -143 q12 29 39 16q49 -18 105 -18q12 0 21 -9.5t9 -21.5q0 -29 -30 -29q-74 0 -125 23q-29 10 -19 39zM483 1389q-6 27 23 34q41 10 80 11q12 0 21 -9.5t9 -21.5q0 -29 -30 -29q-25 0 -66 -8h-8q-23 0 -29 23z" />
<glyph unicode=")" horiz-adv-x="880" d="M123 -176q0 12 9 21.5t22 9.5q55 0 104 18q27 12 39 -16q11 -29 -18 -39q-51 -23 -125 -23q-31 0 -31 29zM123 1403q0 12 9 21.5t22 9.5q39 0 79 -11q29 -7 23 -34q-6 -23 -29 -23h-8q-41 8 -65 8q-31 0 -31 29zM309 1364q20 25 41 6q47 -35 90 -92q19 -21 -6 -41 q-6 -4 -18 -4q-16 0 -25 12q-37 51 -76 76q-20 16 -6 43zM346 -70q39 37 68 86q18 25 41 13q25 -16 10 -41q-35 -60 -78 -101q-6 -8 -20 -8q-10 0 -21 10q-23 18 0 41zM446 1147q-12 29 17 39q29 12 39 -17q25 -59 41 -114q8 -29 -21 -37q-2 0 -6 -2h-2q-25 0 -29 22 q-23 70 -39 109zM463 119q14 41 33 110q8 31 34 23q31 -8 23 -35q-19 -76 -35 -119q-8 -18 -29 -18q-6 0 -10 2q-27 12 -16 37zM510 926q-4 29 25 35q29 4 34 -25q6 -45 15 -121q2 -10 -6.5 -20.5t-20.5 -10.5h-2q-29 0 -29 27q-4 45 -16 115zM516 344q8 55 12 115 q4 29 33 28q31 -4 27 -32q-3 -60 -13 -119q-4 -27 -28 -27q-4 0 -4 2q-31 4 -27 33zM532 694q0 27 29 31q31 0 31 -29q2 -27 2 -82v-39q0 -29 -31 -28q-29 0 -28 31v36q0 53 -3 80z" />
<glyph unicode="*" horiz-adv-x="880" d="M156 387q0 31 32 31h119q27 0 27 -31q0 -8 -8.5 -16.5t-18.5 -8.5h-119q-14 0 -23 8.5t-9 16.5zM250 158q-18 29 0 43l84 84q16 16 43 0q18 -25 0 -43l-84 -84q-8 -6 -25 -6q-8 0 -18 6zM250 580q-14 23 0 38q27 27 43 0l84 -77q20 -23 0 -43q-14 -12 -23 -13 q-16 1 -20 13zM389 387q0 25 21 29q-12 20 8 40.5t37 0.5q4 25 24.5 24.5t26.5 -20.5q18 10 43 -4q10 -18 4 -41q20 -4 20 -29q0 -18 -24 -25q18 -14 0 -36q-10 -6 -22.5 -6.5t-18.5 2.5q-6 -25 -29 -25q-20 0 -24 25q-4 -2 -17 -3q-16 1 -20 7q-29 20 -4 36q-25 6 -25 25z M455 96v119q0 27 24 27q31 0 31 -27v-119q0 -12 -9 -22.5t-22 -10.5q-24 0 -24 33zM455 569v117q0 31 24 31q12 0 21.5 -10.5t9.5 -20.5v-117q0 -29 -31 -28q-24 -1 -24 28zM578 519q0 13 12 22l82 77q16 23 39 0q14 -16 0 -38l-78 -82q-12 -12 -23 -13q-12 1 -20 13 q-12 8 -12 21zM590 242q-29 18 0 43q16 16 43 0l78 -84q18 -14 0 -43l-17 -6q-16 0 -22 6zM633 387q0 31 29 31h116q31 0 31 -31q0 -6 -10.5 -15.5t-20.5 -9.5h-116q-10 0 -19.5 9.5t-9.5 15.5z" />
<glyph unicode="+" horiz-adv-x="1269" d="M131 719q0 25 27 24h55q25 0 25 -24q0 -29 -25 -29h-55q-27 0 -27 29zM293 719q0 25 26 24h111q27 0 27 -24q0 -29 -27 -29h-111q-27 0 -26 29zM483 365v55q0 10 7.5 18t17.5 8q29 0 29 -26v-55q0 -10 -8.5 -18.5t-20.5 -8.5q-8 0 -16.5 8.5t-8.5 18.5zM483 528v109 q0 10 7.5 18.5t17.5 8.5q29 0 29 -27v-109q0 -27 -29 -26q-10 0 -17.5 8t-7.5 18zM483 743v109q0 10 7.5 18.5t17.5 8.5q29 0 29 -27v-109q0 -25 -29 -24q-8 0 -16.5 7t-8.5 17zM483 958v111q0 10 7.5 18.5t17.5 8.5q29 0 29 -27v-111q0 -25 -29 -24q-8 0 -16.5 8t-8.5 16z M508 719q0 25 29 24h108q27 0 27 -24q0 -29 -27 -29h-108q-10 0 -19.5 8.5t-9.5 20.5zM725 719q0 25 27 24h110q27 0 27 -24q0 -29 -27 -29h-110q-27 0 -27 29z" />
<glyph unicode="," d="M111 57.5q0 20.5 16 37t37 16.5q37 0 47 -37q0 -4 2 -4v-21q0 -92 -78 -112h-6q-12 0 -12 12q-6 10 10 18q37 10 47 41h-10q-23 0 -38 14.5t-15 35z" />
<glyph unicode="-" horiz-adv-x="835" d="M135 717q0 23 15 22h59q16 0 16 -22q0 -20 -16 -21h-59q-14 0 -15 21zM254 717q0 23 14 22h60q16 0 16 -22q0 -20 -16 -21h-60q-14 0 -14 21zM373 717q0 23 14 22h59q16 0 17 -22q0 -20 -17 -21h-59q-14 0 -14 21z" />
<glyph unicode="." d="M168 57.5q0 20.5 15.5 36t37.5 15.5q20 0 34.5 -15.5t14.5 -36t-14 -36t-34.5 -15.5t-37 15.5t-16.5 36z" />
<glyph unicode="/" horiz-adv-x="864" d="M156 37l16 41q10 25 35 14q10 -4 14 -14t0 -19l-16 -43q-10 -16 -27 -16q-6 0 -8 2q-25 12 -14 35zM215 174l39 94q4 10 14.5 15.5t18.5 1.5q23 -14 16 -37l-43 -92q-4 -18 -22 -19l-5 2h-6q-23 10 -12 35zM295 365l39 96q8 25 33 12q25 -8 16 -33l-41 -96 q-6 -16 -25 -16q-8 0 -10 4q-25 8 -12 33zM375 557l39 94q12 20 32 15q25 -8 17 -35l-41 -94q-6 -16 -25 -17q-6 0 -10 2q-23 10 -12 35zM455 748l39 94q14 23 36 14q25 -8 13 -33l-41 -96q-4 -16 -25 -16h-10q-18 12 -12 37zM535 936l38 96q16 23 37 12q25 -8 13 -32 l-41 -97q-4 -14 -23 -14q-2 0 -5 1t-5 1q-23 10 -14 33zM614 1128l43 97q6 20 33 12q23 -12 12 -33l-40 -96q-4 -16 -23 -16q-6 0 -10 2q-23 10 -15 34zM696 1319l41 96q8 25 33 12q23 -6 14 -32l-43 -97q-2 -14 -22 -14q-6 0 -10 2q-23 12 -13 33z" />
<glyph unicode="0" horiz-adv-x="1454" d="M133 647q0 29 27 29q25 0 24 -23q6 -59 15 -100q4 -25 -21 -33h-6q-21 0 -27 25q-12 94 -12 102zM133 754q0 20 4 59t4 47q4 29 31 25q25 -8 21 -33q-8 -61 -9 -98q0 -25 -24 -25h-4q-23 0 -23 25zM162 967q16 57 33 102q12 23 34 14q25 -8 13 -32q-23 -74 -29 -97 q-6 -20 -25 -20h-6q-25 6 -20 33zM170 440q-6 23 18 31q10 4 19.5 -2t11.5 -14q16 -53 33 -97q8 -20 -12 -34h-11q-18 0 -24 16q-23 57 -35 100zM236.5 1144.5q-3.5 10.5 3.5 18.5q31 59 59 92q12 18 37 5q20 -16 2 -37q-18 -25 -55 -82q-2 -12 -21 -13q-10 0 -12 2 q-10 4 -13.5 14.5zM252 244q-8 25 10 37q25 8 37 -11q25 -41 57 -82q6 -8 6 -19t-8 -15q-8 -8 -18 -9q-13 1 -19 11q-25 27 -65 88zM369 1298q-16 18 2 37q43 35 94 60q8 6 18.5 3t14.5 -14q10 -20 -13 -36q-33 -16 -79 -52q-8 -8 -17 -8q-12 0 -20 10zM389 117q18 18 37 4 q33 -25 84 -49q25 -6 14 -33q-4 -16 -22 -16q-8 0 -10 4q-45 16 -97 53q-18 14 -6 37zM549 1401q-8 23 20 26q29 6 52 7q31 0 59 -7q25 -2 20 -30q0 -20 -22 -21h-6q-4 0 -22.5 3t-29 3t-25.5 -3t-20 -3q-23 0 -26 25zM575 29q0 12 8.5 19t18.5 3h19q10 0 77 10 q23 12 31 -16q4 -27 -18 -33q-61 -12 -90 -12h-21q-29 4 -25 29zM750 1378q14 25 36 11q49 -23 88 -62q20 -18 3 -37q-6 -6 -18.5 -6t-16.5 4q-20 20 -78 58q-23 6 -14 32zM776 66q-14 20 8 34q41 27 78 64q4 8 15.5 8t19.5 -8q18 -18 0 -37q-35 -39 -84 -70q-6 -2 -14 -2 q-17 1 -23 11zM901 1236q2 11 12 15q18 14 37 -4q31 -43 58 -90q6 -23 -11 -37q-2 0 -6 -1t-8 -1q-16 1 -22 15q-23 41 -54 84q-8 8 -6 19zM924 238q25 35 49 88q10 23 35 12q20 -10 12 -35q-29 -57 -55 -92q-6 -12 -21 -12q-10 0 -14 4q-20 16 -6 35zM1001 1040 q-8 27 17 33q10 4 20.5 -1t12.5 -15q16 -51 28 -101q4 -12 -2 -20t-16 -10h-2l-2 -2q-23 0 -27 20q-6 23 -29 96zM1010 420q20 61 26 96q4 25 31 21q25 -4 20 -31q-6 -29 -28 -105q-4 -18 -23 -18q-2 0 -4 2l-4 2q-23 6 -18 33zM1049 846q-4 20 22 28q25 4 29 -24 q8 -43 8 -102q0 -12 -2 -17q2 -6 2 -16q0 -70 -6 -103q0 -25 -25 -24h-4q-23 0 -22 28q6 31 6 99q0 4 4 16q-4 4 -4 12q0 33 -8 103z" />
<glyph unicode="1" horiz-adv-x="686" d="M70 1227q-12 23 10 37l90 53q25 14 37 -8q14 -20 -10 -37l-91 -53l-12 -5q-18 1 -24 13zM252 1335q-12 23 10 37l84 49q10 10 21 11q27 0 26 -27v-107q0 -27 -26.5 -27t-26.5 27v60l-51 -31q-8 -4 -13 -4q-14 0 -24 12zM340 27v106q0 10 8 18.5t19 8.5q27 0 26 -27v-106 q0 -27 -26.5 -27t-26.5 27zM340 238v106q0 27 26.5 27t26.5 -27v-106q0 -25 -26.5 -25t-26.5 25zM340 451v106q0 10 8 18.5t19 8.5q27 0 26 -27v-106q0 -27 -26.5 -27t-26.5 27zM340 662v106q0 27 26.5 27t26.5 -27v-106q0 -25 -26.5 -25t-26.5 25zM340 874v107q0 10 8 18.5 t19 8.5q27 0 26 -27v-107q0 -27 -26.5 -27t-26.5 27zM340 1085v107q0 27 26.5 27t26.5 -27v-107q0 -25 -26.5 -25t-26.5 25z" />
<glyph unicode="2" horiz-adv-x="1208" d="M98 12q-16 20 2 39l78 68q18 18 37 0q8 -8 6 -19.5t-10 -15.5l-74 -72q-10 -6 -18 -6q-15 0 -21 6zM131 1210q-20 20 4 37l72 68l2 2q20 20 37 -2q18 -18 0 -37h-2q-2 -2 -4 -2l-72 -66q-12 -8 -18.5 -8t-18.5 8zM197 27q0 25 26 24h103q27 0 26 -24q1 -27 -26 -27h-103 q-27 0 -26 27zM246 173q0 11 8 15l78 72q16 14 35 -4q23 -18 -2 -35l-76 -71q-8 -4 -17 -5q-12 1 -18 9q-8 8 -8 19zM289 1346q-12 27 12 32q55 31 102 39q23 12 31 -16q8 -25 -18 -33q-37 -6 -92 -33q-2 -2 -11 -2q-16 1 -24 13zM403 27q0 25 27 24h102q27 0 27 -24 q0 -27 -27 -27h-102q-27 0 -27 27zM406 293q-16 16 4 37l73 69q20 16 37 -2q18 -18 0 -37l-78 -69q-4 -6 -18 -6q-6 0 -18 8zM487 1407q0 27 25 27h4q35 0 105 -13q27 -8 18 -32q-5 -21 -25 -21h-6q-53 14 -92 14h-4q-25 0 -25 25zM559 432q-16 18 2 37l78 68q18 18 37 0 q16 -20 -2 -37l-78 -70q-4 -8 -16 -8q-11 0 -21 10zM610 27q0 25 27 24h104q25 0 25 -24q0 -10 -7.5 -18.5t-17.5 -8.5h-104q-27 0 -27 27zM688 1372q10 23 35 10q41 -20 90 -59q20 -16 2 -39q-6 -8 -16.5 -8t-18.5 4q-35 35 -82 55q-20 14 -10 37zM715 569q-18 23 0 37 l73 66l5 4q18 18 36 0q20 -20 -4 -39q-2 -2 -4 -2l-69 -66q-10 -6 -18.5 -6t-18.5 6zM819 27q0 25 25 24h104q27 0 27 -24q0 -10 -8.5 -18.5t-18.5 -8.5h-104q-25 0 -25 27zM848 1210q-18 18 4 37q20 16 37 -8q35 -47 51 -96q12 -25 -14 -33h-4l-4 -2q-17 0 -27 16 q-10 29 -43 86zM854 752q23 31 45 86q2 10 12.5 14t18.5 0q25 -2 16 -31q-16 -51 -47 -98q-10 -12 -22 -12q-3 0 -15 4q-20 14 -8 37zM918 1032q-4 20 22 29q25 4 29 -25l6 -61q0 -8 -2 -23.5t-2 -23.5q-5 -23 -25 -23h-4q-27 4 -22 29q0 6 1 20.5t1 20.5q0 16 -4 57z" />
<glyph unicode="3" horiz-adv-x="1249" d="M156 137q-18 18 0 37q20 18 39 0q32 -34 77 -61q23 -14 9 -37q-6 -12 -23 -13q-8 0 -14 5q-37 23 -88 69zM225 1405q0 27 27 27h106q27 0 27 -27t-27 -27h-106q-27 0 -27 27zM330 53q8 27 35 19q41 -15 98 -21q25 0 24 -28q-4 -25 -26 -25h-2q-68 6 -111 22q-27 8 -18 33 zM438 1405q0 27 27 27h106q27 0 27 -27t-27 -27h-106q-27 0 -27 27zM469 915q-18 18 0 37l74 76q18 23 39 2q20 -18 0 -39l-39 -41q12 0 20 -2q27 -4 23 -28.5t-27 -24.5h-4q-18 4 -57 4q-18 0 -25 14q-2 0 -4 2zM541 27q-4 25 20 28q41 9 98 29q25 12 35 -14q6 -25 -14 -35 q-51 -20 -109 -31h-4q-23 0 -26 23zM618 1067q-20 18 0 39l74 76q18 18 39 0q18 -18 0 -37l-76 -76q-6 -8 -18 -8q-10 0 -19 6zM637 905q10 25 35 15q57 -23 100 -54q20 -16 6 -37q-8 -12 -22 -12q-6 0 -17 6q-41 29 -88 47q-20 10 -14 35zM651 1405q0 27 27 27h106 q27 0 27 -27t-27 -27h-106q-27 0 -27 27zM739 96q-14 23 6 37q25 18 50 43q16 17 24 27q6 8 17.5 9t19.5 -7q23 -14 4 -37q-4 -4 -13 -14.5t-16 -16.5q-25 -27 -53 -47q-6 -4 -16 -4q-14 0 -23 10zM768 1221q-18 18 0 36l74 78q18 18 37 0q18 -20 2 -37l-76 -77 q-8 -8 -18.5 -8t-18.5 8zM815 756q-16 19 2 37q8 8 19.5 7t17.5 -9q37 -39 66 -95q12 -23 -13 -34q-8 -4 -12 -5q-14 0 -25 15q-18 41 -55 84zM864 1405q0 27 27 27h55q27 0 27 -27q0 -4 -4 -12q0 -4 -6 -9l-9 -10q-8 -8 -18 -8q-12 0 -21 8q0 2 -1 2t-1 2h-22q-27 0 -27 27 zM874 285q25 53 33 94q8 26 33 20q25 -4 21 -30q-12 -51 -39 -107q-6 -14 -25 -14q-8 0 -10 2q-25 10 -13 35zM907 580q-8 26 19 30q25 8 32 -18q14 -66 15 -113q0 -27 -26.5 -26.5t-26.5 26.5q0 51 -13 101z" />
<glyph unicode="4" horiz-adv-x="1359" d="M104 322l70 81q10 23 37 7q16 -20 2 -39l-66 -82q-8 -10 -22 -10q-8 0 -16 6q-18 18 -5 37zM186 305q0 10 8.5 18.5t18.5 8.5h106q27 0 27 -26.5t-27 -26.5h-106q-27 0 -27 26zM240 485l65 86q14 18 39 2q8 -6 9 -17t-7 -19l-67 -82q-8 -12 -21 -13q-4 0 -9 3.5t-7 3.5 q-20 18 -2 36zM366 633.5q-1 11.5 7 19.5l65 82q6 8 17.5 9t19.5 -7q20 -14 4 -37l-67 -82q-6 -8 -18.5 -8t-18.5 6q-8 6 -9 17.5zM399 305.5q0 26.5 27 26.5h106q27 0 27 -26.5t-27 -26.5h-106q-27 0 -27 26.5zM506 817l65 82q14 25 37 6q20 -20 6 -37l-67 -82 q-6 -10 -21 -10q-6 0 -18 4q-20 20 -2 37zM610 305q0 10 8.5 18.5t18.5 8.5h106q27 0 27 -26.5t-27 -26.5h-106q-27 0 -27 26zM637 983l68 84q20 20 36 2q8 -4 10.5 -16.5t-3.5 -20.5l-68 -82q-4 -10 -21 -10q-12 0 -16 4q-16 16 -6 39zM770 1149l68 82q18 23 36 4 q20 -12 5 -37l-66 -84q-16 -10 -20 -10q-9 0 -17 8q-23 12 -6 37zM823 305q0 10 8.5 18.5t18.5 8.5h106q27 0 27 -26.5t-27 -26.5h-106q-27 0 -27 26zM903 1315l70 82q4 8 12 8v2q0 10 8 18.5t19 8.5q27 0 26 -27v-107q0 -27 -26.5 -27t-26.5 27v29l-39 -47q-8 -10 -22 -10 q-8 0 -15 6q-23 12 -6 37zM985 27v106q0 10 9.5 18.5t17.5 8.5q27 0 26 -27v-106q0 -27 -26.5 -27t-26.5 27zM985 240v106q0 8 8 16.5t19 8.5q27 0 26 -25v-31q8 16 25 17h106q27 0 27 -26.5t-27 -26.5h-106q-18 0 -25 14v-53q0 -27 -26.5 -27t-26.5 27zM985 451v106 q0 10 8 18.5t19 8.5q27 0 26 -27v-106q0 -27 -26 -27q-10 0 -18.5 8.5t-8.5 18.5zM985 664v106q0 8 9.5 17.5t17.5 9.5q27 0 26 -27v-106q0 -27 -26.5 -27t-26.5 27zM985 877v106q0 8 9.5 17.5t17.5 9.5q27 0 26 -27v-106q0 -27 -26.5 -27t-26.5 27zM985 1087v107 q0 10 8 18.5t19 8.5q27 0 26 -27v-107q0 -25 -26.5 -25t-26.5 25z" />
<glyph unicode="5" horiz-adv-x="1239" d="M125 801l14 104q4 29 29 25q29 0 25 -31l-15 -106q1 -21 -26 -21h-2q-25 0 -25 29zM133 139q-20 16 0 37q8 8 20.5 8t16.5 -8q45 -41 82 -63q8 -4 10 -15.5t-4 -19.5q-8 -14 -20 -15q-11 1 -17 5q-57 41 -88 71zM152 1012l14 106q0 25 29 25q25 -4 24 -33l-14 -104 q-4 -23 -27 -23h-2q-29 4 -24 29zM176 1225l14 104q4 29 29 25q29 -4 25 -29l-15 -108q1 -23 -26 -23h-2q-25 4 -25 31zM202.5 1407q0.5 27 26.5 27h107q10 0 18 -8.5t8 -18.5q1 -27 -26 -27h-107q-27 0 -26.5 27zM209 842q-16 23 8 37q39 27 100 51q25 4 35 -19 q10 -25 -16 -32q-41 -14 -90 -45q-6 -4 -17 -5q-12 1 -20 13zM307 53q8 23 35 19q49 -16 98 -19q10 -2 18.5 -11t6.5 -17q0 -25 -27 -25h-2q-61 4 -110 20q-23 8 -19 33zM403 924q0 25 25 28h45q45 0 70 -2q25 -4 20 -32q-3 -21 -26 -21h-2q-23 2 -62 2h-41q-25 -4 -29 25z M416 1407q0 10 8 18.5t18 8.5h109q10 0 18.5 -8.5t8.5 -18.5q0 -27 -27 -27h-109q-27 0 -26 27zM518 26.5q-4 24.5 21 28.5q51 8 100 31q20 6 35 -16q6 -23 -17 -35q-55 -23 -106 -29q-4 -4 -6 -4q-23 0 -27 24.5zM616 905q10 23 35 17q53 -23 99 -54q18 -18 6 -39 q-8 -10 -20.5 -10t-16.5 2q-39 33 -88 49q-23 10 -15 35zM630.5 1407q0.5 27 26.5 27h107q10 0 18.5 -8.5t8.5 -18.5q0 -27 -27 -27h-107q-27 0 -26.5 27zM719 96q-14 23 4 37q37 29 49 43q14 12 27 27q16 23 37 2q18 -16 2 -37q-8 -10 -27 -29q-29 -29 -55 -49 q-12 -4 -17 -4q-14 0 -20 10zM785.5 775q0.5 11 9.5 18q23 18 39 -2q39 -41 63 -95q14 -18 -10 -34q-6 -2 -15 -3q-14 1 -22 13q-20 43 -57 84q-8 8 -7.5 19zM843.5 1407q0.5 27 26.5 27h54q27 0 27 -27t-27 -27h-54q-27 0 -26.5 27zM852 285q23 45 35 96q4 25 31 20 q27 -8 22 -32q-16 -61 -41 -107q-6 -14 -22 -14q-9 0 -13 4q-25 8 -12 33zM887 580q-12 25 18 32q25 8 33 -20q12 -74 12 -111q0 -27 -26.5 -27t-26.5 27q0 57 -10 99z" />
<glyph unicode="6" horiz-adv-x="1314" d="M131 432q0 25 27 29q25 0 24 -25q8 -66 19 -96q10 -23 -15 -31q-2 0 -6 -2l-2 -2q-22 1 -26 19q-18 63 -21 108zM133 680q8 72 14 102q4 27 31 21q25 -4 21 -31q-8 -31 -13 -98q-2 -4 -5 -8t-3 -7q8 6 23 3q25 -8 16 -35q-23 -49 -29 -92q-3 -25 -26 -25l-2 4 q-29 4 -23 29q10 57 31 104q2 2 6 8q-4 -4 -14 -4h-2q-29 0 -25 29zM170 887q2 10 31 100q10 23 35 17q25 -12 14 -35q-6 -16 -16.5 -48t-14.5 -47q-4 -23 -22 -22q-7 0 -9 4q-10 2 -16 12.5t-2 18.5zM197 225q-12 25 10 37q25 8 35 -10q23 -41 61 -76q12 -20 0 -39 q-12 -4 -22.5 -4t-16.5 6q-31 31 -67 86zM225 741q31 45 74 80q18 16 37 -2q16 -23 -6 -39q-35 -33 -64 -69q-10 -10 -20 -11q-13 1 -17 5q-23 18 -4 36zM246 1085q20 45 53 93q14 20 37 6q23 -18 8 -35q-25 -35 -53 -88q-8 -14 -23 -14q-8 0 -12 4q-27 10 -10 34zM342 106 q10 20 35 9q45 -27 88 -43q25 -4 16 -31q-1 -18 -24 -18h-6q-61 23 -103 47q-20 16 -6 36zM369 1223q-16 20 0 37q31 33 82 69q23 16 34 -4q14 -23 -4 -37q-29 -18 -75 -65q-6 -6 -19 -6q-10 0 -18 6zM381 846q-16 25 10 35q51 25 103 37q29 4 30 -21q8 -27 -20 -31 q-49 -12 -90 -30q-2 -4 -11 -5q-18 1 -22 15zM532 31q0 25 29 24q10 -4 35 -4l61 6q27 4 31 -20q0 -27 -22 -31q-37 -6 -70 -6q-27 0 -39 2q-10 0 -18.5 9t-6.5 20zM532 1350q-12 23 15 34q70 27 100 33q27 8 31 -20q10 -18 -19 -31q-35 -4 -92 -29q-6 -2 -10 -2 q-23 1 -25 15zM578 903q0 25 24 25q61 0 111 -15q25 -8 16 -32q-4 -17 -24 -17h-7q-61 12 -96 13q-25 0 -24 26zM729 1405q0 25 27 29h8q27 0 27 -27q0 -10 -8.5 -17.5t-16.5 -7.5h-10q-27 0 -27 23zM737 49q-8 25 15 35q51 20 84 45q23 12 36 -4q14 -25 -6 -37 q-31 -23 -94 -55h-10q-15 0 -25 16zM778 864q10 23 35 10q61 -35 90 -63q18 -20 2 -37q-10 -10 -20 -10q-7 0 -15 8q-39 31 -79 55q-23 12 -13 37zM909 197q37 43 54 79q10 23 34 13q23 -14 13 -37q-35 -59 -62 -92q-10 -6 -18 -6q-7 0 -19 4q-18 18 -2 39zM934 700 q-14 23 6 35q23 14 37 -6q33 -45 51 -96q12 -23 -12 -35h-10q-21 0 -25 16q-16 43 -47 86zM997 369q10 39 11 96q0 39 -2 55q-6 25 22 29q10 4 18.5 -3t10.5 -20q2 -20 2 -61q0 -66 -12 -111q-4 -20 -25 -20q-2 0 -2 2l-4 2q-23 4 -19 31z" />
<glyph unicode="7" horiz-adv-x="1202" d="M131 1405q0 27 27 27h102q10 0 18.5 -9.5t8.5 -17.5q0 -10 -8.5 -18.5t-18.5 -8.5h-102q-27 0 -27 27zM276 37l19 41q8 27 33 14q25 -8 16 -33l-18 -43q-10 -16 -27 -16q-4 0 -8 2q-25 12 -15 35zM336 174l39 94q2 10 12 15.5t21 1.5q23 -12 16 -37l-41 -92 q-8 -18 -25 -19q-2 0 -4 1l-6 1q-23 10 -12 35zM338 1405q0 27 27 27h102q10 0 18.5 -8.5t8.5 -18.5q0 -27 -27 -27h-102q-27 0 -27 27zM416 365l39 96q8 25 32 12q25 -6 17 -33l-41 -96q-6 -16 -25 -16q-6 0 -10 4q-25 8 -12 33zM496 557l39 94q10 23 34 15q25 -10 15 -35 l-41 -94q-2 -16 -23 -17q-8 0 -12 2q-20 10 -12 35zM544.5 1405q0.5 27 26.5 27h103q10 0 18 -8.5t8 -18.5q1 -27 -26 -27h-103q-27 0 -26.5 27zM575 748l39 94q14 23 37 14q25 -8 13 -33l-41 -96q-5 -16 -23 -16h-10q-20 12 -15 37zM655 936l39 96q16 25 37 12 q25 -8 12 -32l-41 -97q-4 -14 -22 -14h-4q-4 2 -6 2q-23 10 -15 33zM737 1128l41 97q6 20 33 12q23 -10 14 -33l-43 -96q-4 -16 -22 -16q-4 0 -10 2q-25 12 -13 34zM751.5 1405q0.5 27 26.5 27h103q6 0 18 -9v-2l4 -4q0 -2 2 -4v-4l2 -4q0 -6 -2 -8v-2l-41 -97 q-6 -14 -24 -14q-5 0 -11 2q-23 12 -12 33l25 59h-64q-27 0 -26.5 27z" />
<glyph unicode="8" horiz-adv-x="1290" d="M113 455q0 68 12 106q2 10 11 15.5t20 3.5q23 -4 18 -31q-10 -39 -10 -94q0 -35 2 -54q4 -27 -23 -30h-2q-22 -1 -26 22q-2 20 -2 62zM143 289q-10 25 13 35q25 6 32 -17q23 -47 48 -84q12 -20 -7 -35q-12 -6 -14 -6q-14 1 -20 15q-33 43 -52 92zM162 664q27 49 59 88 q6 8 17.5 8t19.5 -4q20 -18 2 -37q-33 -39 -53 -78q-10 -16 -23 -16q-8 0 -10 4q-25 12 -12 35zM262 150q20 18 37 2q49 -37 78 -54q25 -12 10 -35q-6 -12 -22 -12q-9 0 -11 2q-51 29 -90 62q-16 20 -2 35zM283 1141q0 25 26 28q25 0 25 -24q2 -49 20 -90q8 -27 -12 -33 q-4 -2 -10 -2q-17 0 -23 14q-23 47 -26 107zM295 788q-10 20 6 35q37 29 94 54q20 10 33 -15q8 -27 -12 -33q-55 -27 -84 -47q-12 -4 -17 -4q-10 0 -20 10zM303 1251q18 53 59 95q18 18 35 0q8 -6 9.5 -17.5t-7.5 -19.5q-25 -23 -51 -76q-2 -14 -22 -14h-11q-20 6 -12 32z M373 942q-18 18 0 36.5t35 2.5q39 -35 75 -49q20 -8 17 -27q18 0 51 4q8 8 18 9q47 0 90 18q23 8 33 -12q8 -25 -12 -35q-25 -12 -53 -19q-8 -14 -27 -14q-10 4 -33 4l-61 -6h-4q-18 0 -27 23v6q-2 0 -4 2h-4q-51 16 -94 57zM436 45q2 10 11.5 16.5t19.5 1.5q43 -12 92 -12 q27 0 27 -26q0 -25 -27 -25q-61 0 -106 14q-27 8 -17 31zM440 1374q-6 25 13 35q51 23 110 23q8 2 16.5 -5.5t8.5 -17.5q0 -25 -25 -29q-47 0 -90 -18q-2 -2 -10 -2q-15 0 -23 14zM637 31q-8 27 20 30q61 18 88 31q25 12 33 -10q14 -20 -10 -37q-37 -16 -100 -35h-6 q-21 1 -25 21zM639 1399q8 25 33 14q55 -25 92 -61q16 -16 2 -35q-8 -8 -20.5 -8t-14.5 8q-45 39 -80 47q-23 10 -12 35zM680 872q2 10 11 14.5t20 0.5q57 -20 98 -45q20 -16 8 -37q-10 -10 -22 -10q-9 0 -15 4q-43 27 -86 41q-25 8 -14 32zM733 987q37 37 51 76 q4 10 14.5 14t18.5 0q10 -4 14.5 -14t-0.5 -19q-20 -51 -61 -94q-8 -8 -16 -8q-7 0 -19 8q-18 18 -2 37zM780 1241q-6 23 15 35q20 10 32 -14q23 -53 25 -109q0 -25 -24.5 -25t-28.5 23q0 55 -19 90zM821 109q-12 20 6 36q41 37 64 68q16 16 35 6q10 -6 12 -17.5t-6 -19.5 q-35 -45 -74 -78q-2 0 -7 -3t-9 -3q-11 1 -21 11zM854 739q-10 18 0 37q18 18 39 0q25 -27 65 -88q14 -23 -10 -33q-4 -4 -12 -4q-17 1 -23 13q-20 39 -59 75zM938 295q23 49 29 92q4 23 28 23q27 -4 23 -31q-14 -61 -31 -105q-10 -14 -24 -14q-2 0 -5 2h-4q-25 6 -16 33z M954 578q-10 23 15 30q25 6 32 -16q18 -61 21 -107q0 -25 -24.5 -25t-24.5 23q-8 61 -19 95z" />
<glyph unicode="9" horiz-adv-x="1314" d="M135 969q0 37 12 110q8 23 33 17q25 -4 21 -31q-14 -53 -15 -96q0 -6 7 -56q0 -25 -25 -28h-2q-25 -1 -25 22q-6 31 -6 62zM166 801q-8 25 16 35q25 8 33 -17q27 -55 47 -86q16 -25 -8 -35q-4 -6 -12 -6q-13 0 -23 10q-25 33 -53 99zM185.5 1160q-3.5 11 0.5 20 q29 55 60 90q16 23 39 4q16 -12 4 -37q-35 -35 -56 -80q-8 -14 -22 -14q-8 0 -14 2q-8 4 -11.5 15zM291 623q-16 16 0 36q6 8 17 9.5t20 -6.5q41 -37 80 -56q18 -16 10 -37q-12 -12 -23 -12q-8 0 -14 2q-53 33 -90 64zM322 1309q-12 23 8 37q51 35 96 51q10 6 19.5 2 t13.5 -15q10 -23 -15 -34q-45 -16 -86 -45q-2 -6 -16 -7q-12 1 -20 11zM406 27q0 25 24 24h8q8 2 17.5 -5t9.5 -17q4 -25 -25 -29h-10q-20 0 -24 27zM465 553q8 23 33 16q61 -12 96 -12q10 0 18.5 -8t8.5 -19q0 -24 -27 -24q-63 0 -109 14q-27 6 -20 33zM508 1397 q-4 27 20 30q37 6 72 7q8 0 21.5 -1t19.5 -1q23 0 23 -29q-4 -25 -29 -25q-12 4 -35 4q-2 0 -63 -6h-2q-21 1 -27 21zM516 37q-4 23 21 29q39 6 94 30q10 6 19 2t14 -14q10 -25 -13 -35q-82 -29 -104 -33h-4q-25 1 -27 21zM672 537q-4 8 2 18t16 12q29 6 92 31q25 14 35 -10 q8 -25 -12 -35q-49 -25 -103 -37h-8q-18 1 -22 21zM709 109q-16 23 8 36q43 33 74 66q18 18 36 0q16 -20 0 -37q-45 -45 -84 -70q-2 -6 -12 -6q-18 1 -22 11zM713 1393q10 23 35 18q74 -33 98 -47q20 -12 8 -37q-6 -12 -20 -12q-11 0 -15 4q-45 27 -88 43q-23 4 -18 31z M854 285q8 14 25.5 42.5t25.5 43.5q8 25 33 12q23 -10 14 -35q-31 -55 -57 -92q-4 -10 -21 -10q-10 0 -14 4q-20 16 -6 35zM860 614q-16 18 4 39q35 27 68 70q12 20 35 6q20 -20 6 -37q-29 -43 -76 -80q-6 -6 -14 -6q-15 0 -23 8zM895 1257q-20 20 0 37q18 18 37 0 q45 -49 67 -86q10 -23 -8 -37q-6 -2 -14 -2q-15 1 -23 13q-27 43 -59 75zM946 465q18 53 29 94q10 27 35 19q8 -2 14 -11.5t2 -19.5q-25 -78 -33 -101q-4 -18 -22 -18q-2 0 -5 1t-5 1q-23 10 -15 35zM980.5 806.5q10.5 24.5 29.5 92.5q0 12 9 18.5t19 2.5q25 -4 21 -29 q-10 -59 -33 -105l-2 -2v-4q8 4 16 2q10 0 17.5 -8t5.5 -20q0 -8 -12 -103q-2 -20 -27 -20h-4q-29 4 -21 28q12 96 13 101q0 8 6 14q-8 -4 -14 -4q-9 0 -11 2q-23 10 -12.5 34.5zM993 1092q-4 25 19 32q8 4 18 0t14 -14q14 -55 19 -109q4 -25 -23 -28h-2q-22 -1 -26 24 q0 43 -19 95z" />
<glyph unicode=":" horiz-adv-x="491" d="M178 53.5q0 20.5 15.5 36.5t37.5 16q20 0 35 -15t15 -38q0 -20 -14.5 -34.5t-35.5 -14.5q-23 0 -38 14.5t-15 35zM178 802.5q0 20.5 15.5 36t37.5 15.5q20 0 35 -15.5t15 -36t-14.5 -35.5t-35 -15t-37 15t-16.5 35.5z" />
<glyph unicode=";" horiz-adv-x="491" d="M121 53.5q0 20.5 15.5 36.5t37.5 16q37 0 47 -36q0 -4 2 -4v-7v-6v-8q0 -92 -78 -113h-6q-12 1 -12 13q-6 10 10 18q37 10 47 41h-10q-23 0 -38 14.5t-15 35zM121 802.5q0 20.5 15.5 36t37.5 15.5q20 0 34.5 -15.5t14.5 -36t-14 -35.5t-34.5 -15t-37 15t-16.5 35.5z" />
<glyph unicode="&#x3c;" horiz-adv-x="1269" d="M135 616q-20 23 0.5 43.5t42.5 -0.5l86 -86q18 -23 0 -45q-10 -6 -22.5 -6t-20.5 6zM135 772q-20 23 0 43l86 88q27 16 43 0q20 -25 0 -45l-86 -86q-10 -10 -22 -10q-11 0 -21 10zM305 442q-14 20 0 43q23 23 47 0l84 -86q23 -23 0 -43q-8 -8 -20.5 -8t-20.5 8zM305 946 q-14 20 0 43l90 84q6 8 18.5 8t22.5 -8q10 -6 10 -19.5t-10 -23.5l-84 -84q-10 -10 -24 -10q-13 0 -23 10zM471 1138.5q0 12.5 8 22.5l86 86q20 23 43 0.5t0 -43.5l-86 -84q-10 -10 -20 -10q-13 0 -23 10q-8 6 -8 18.5zM479 268q-23 23 0 43q20 20 43 0l86 -86q23 -20 0 -43 q-8 -8 -22 -8q-13 0 -21 8zM643 117.5q0 13.5 8 23.5q20 18 43 0l88 -90q16 -23 -4 -43q-2 -8 -20 -8q-15 0 -23 8l-84 90q-8 6 -8 19.5zM651 1290q-23 23 0 45l84 86q10 8 23.5 8.5t19.5 -8.5q20 -20 4 -43l-88 -88q-8 -8 -22 -8q-13 0 -21 8z" />
<glyph unicode="=" horiz-adv-x="1269" d="M162 508q0 27 26 27h54q27 0 26.5 -27t-26.5 -27h-54q-8 0 -17 9.5t-9 17.5zM162 926q0 10 8 19t18 9h54q27 0 26 -28q0 -25 -26 -25h-54q-27 0 -26 25zM322 508q0 27 26 27h107q27 0 26.5 -27t-26.5 -27h-107q-8 0 -17 9.5t-9 17.5zM322 926q0 10 8 19t18 9h107 q27 0 26 -28q0 -25 -26 -25h-107q-27 0 -26 25zM537 508q0 27 24 27h107q29 0 28 -27q0 -10 -8 -18.5t-20 -8.5h-107q-8 0 -16 8.5t-8 18.5zM537 926q0 10 8 19t16 9h107q12 0 20 -9t8 -19q0 -25 -28 -25h-107q-25 0 -24 25zM750 508q0 27 26 27h107q27 0 26.5 -27 t-26.5 -27h-107q-10 0 -18 8.5t-8 18.5zM750 926q0 10 8 19t18 9h107q27 0 26 -28q0 -25 -26 -25h-107q-27 0 -26 25z" />
<glyph unicode="&#x3e;" horiz-adv-x="1269" d="M190 8q-14 23 0 43l91 90q6 8 20 8.5t23 -8.5q20 -27 0 -43l-86 -90q-8 -8 -23 -8q-17 0 -25 8zM190 1378q-14 23 0 43q10 8 24.5 8.5t23.5 -8.5l86 -88q20 -20 0 -43q-8 -8 -23 -8q-12 0 -20 8zM365 182q-20 23 0 43l86 86q20 20 42.5 0t0.5 -43l-86 -86q-8 -8 -21 -8 q-14 0 -22 8zM365 1204q-20 20 0 43t43 0l86 -86q10 -10 10 -22.5t-10 -18.5q-10 -10 -23 -10q-10 0 -20 10zM537 356q-20 20 0 43l84 86q10 10 23 10.5t20 -10.5q20 -20 4 -43l-88 -86q-8 -8 -23 -8q-12 0 -20 8zM537 1030q-20 23 0 43.5t43 -0.5l88 -84q16 -23 -4 -43 q-4 -10 -21 -10q-12 0 -22 10zM707 573l88 86q20 20 42.5 0t0.5 -43l-84 -88q-8 -6 -22.5 -6t-20.5 6q-20 20 -4 45zM707 858q-18 23 4 45q12 20 43 0l84 -88q23 -20 0 -43q-10 -10 -21 -10q-12 0 -22 10z" />
<glyph unicode="?" horiz-adv-x="1093" d="M84 1219q18 37 63 84q16 18 35 0q18 -16 0 -35q-20 -20 -57 -74q-4 -12 -21 -12q-8 0 -12 2q-23 14 -8 35zM219 1333q-12 18 6 33q43 29 97 45q10 4 19 0t11 -14q8 -23 -14 -33q-45 -14 -84 -39q-6 -2 -12 -2q-17 0 -23 10zM401 1407q0 23 23 27h35q27 0 67 -4 q29 -8 23 -31q-5 -21 -25 -21h-4q-31 6 -61 6h-31q-27 -4 -27 23zM434 25v47q0 25 24.5 24.5t24.5 -24.5v-47q0 -8 -8 -16.5t-16 -8.5q-25 0 -25 25zM434 322v65q0 25 25 25q8 0 16 -7.5t8 -17.5v-65q0 -25 -24.5 -25t-24.5 25zM434 485v101q0 25 25 24h4l4 -2q8 8 18 10 q59 8 93 19q23 8 30 -14q4 -8 -1 -18.5t-15 -14.5q-43 -14 -103 -21h-2h-4v-84q0 -25 -24.5 -25t-24.5 25zM596 1386q12 23 33 13q33 -14 90 -51q16 -16 6 -35q-8 -10 -20.5 -10t-14.5 6q-47 31 -82 45q-20 10 -12 32zM653 641q-14 23 9 35q49 33 69 59q18 18 35 0 q16 -16 4 -35q-37 -37 -82 -65q-6 -4 -14 -4q-15 0 -21 10zM754 1243q-10 18 6 35q18 16 35 -4q35 -47 55 -90q12 -23 -12 -31q-4 -4 -13 -4q-12 0 -22 16q-20 43 -49 78zM788 807q18 35 37 86q4 23 31 18q27 -10 16 -32q-14 -51 -41 -97q-10 -12 -20 -12q-8 0 -12 4 q-20 14 -11 33zM834 1075q-4 27 20.5 31t28.5 -21q8 -53 8 -84v-18q0 -10 -7.5 -18.5t-17.5 -8.5q-27 6 -26 29v16q0 37 -6 74z" />
<glyph unicode="@" horiz-adv-x="2007" d="M109 715q0 49 8 96q4 20 28 20q23 0 23 -28q-8 -39 -8 -88q0 -8 2 -13q0 -25 -25 -24q-26 -1 -26 22q-2 6 -2 15zM119 592q-4 29 20 35q27 4 31 -23q6 -33 23 -98q4 -10 -0.5 -20.5t-14.5 -10.5q-2 -2 -8 -2q-21 0 -25 16q-16 49 -26 103zM137 913q12 53 39 103 q10 20 31 12q25 -10 14 -33q-20 -49 -33 -96q-6 -16 -26 -16h-8q-23 6 -17 30zM188 391q-10 27 11 35q20 14 34 -10q23 -49 52 -86q16 -20 -4 -37q-2 0 -8.5 -1t-10.5 -1q-12 0 -20 8q-33 47 -54 92zM227 1106q33 53 66 88q20 16 37 4q20 -20 0 -39q-4 -6 -25.5 -34.5 t-34.5 -43.5q-12 -12 -22 -12q-4 0 -6 2l-9 4q-20 12 -6 31zM309 217q-14 14 0 37q23 14 41 -4q23 -25 72 -62q27 -23 4 -36q-6 -12 -18 -13q-11 0 -15 6q-37 25 -84 72zM367 1233q-16 16 4 37q57 47 88 61q27 10 35 -10q16 -16 -11 -35q-35 -20 -75 -57q-2 0 -9.5 -4 t-11.5 -4q-12 0 -20 12zM473 123q10 16 37 10q45 -31 88 -43q29 -10 12 -31q0 -23 -20 -22q-4 0 -6 2l-2 2q-35 16 -101 45q-23 12 -8 37zM473 715q0 39 14 90q0 12 9.5 19t21.5 3q27 -8 17 -30q0 -8 -4.5 -38t-4.5 -44q0 -8 2 -15q0 -25 -24 -28q-12 0 -20.5 8t-8.5 18 q-2 4 -2 17zM494 590q0 31 20 33q10 4 19.5 -1.5t9.5 -17.5q20 -57 47 -80q10 -20 -6 -41q-6 -2 -17 -2q-14 0 -20 8q-27 39 -53 101zM528 911q41 63 70 84q23 23 37 0q20 -20 -4 -37q-41 -45 -60 -73q-8 -13 -22 -13h-14q-14 16 -7 39zM543 1343q-12 23 12 35q61 25 104 35 q25 0 29 -20q8 -29 -18 -29q-6 -2 -42 -13.5t-53 -19.5q-4 -2 -12 -2q-20 0 -20 14zM621 446q14 20 36 7q45 -33 82 -43q10 -2 16.5 -13.5t2.5 -19.5q-7 -19 -27 -19h-8q-49 16 -96 52q-20 20 -6 36zM664 41q4 29 30 20q14 0 48 -5t53 -5q18 -4 18 -28q1 -23 -22 -23 q-43 0 -105 12q-29 8 -22 29zM680 1024q-12 20 12 33q59 27 111 26q8 2 15 -5t7 -17q2 -20 -22 -29q-41 -2 -90 -22h-13q-20 0 -20 14zM743 1401q-6 20 23 31q10 0 29.5 1t30 1t24.5 -1t20 -1q10 0 18.5 -9.5t4.5 -17.5q0 -27 -23 -27q-14 2 -45 2q-10 0 -28.5 -1t-28.5 -1 q-25 0 -25 23zM809 367q0 29 25 28q55 4 92 21q25 4 35 -15q6 -29 -19 -36q-49 -18 -108 -23q-25 0 -25 25zM870 27q0 25 21 24q12 2 47 8.5t51 12.5q27 4 33 -21q4 -10 -2 -19t-19 -12q-35 -10 -102 -18l-6 -2q-8 0 -15.5 8.5t-7.5 18.5zM879 1057q14 29 32 18 q31 -6 103 -47q20 -14 8 -33q-10 -14 -23 -14q-6 0 -12 6q-35 23 -88 37q-25 6 -20 33zM944 1395q8 31 35 18q31 -2 104 -31q10 -2 14.5 -12t0.5 -18q-12 -16 -29 -17q-2 2 -8 2q-45 18 -94 27q-27 4 -23 31zM1008 426q-18 16 0 35q39 35 61 71q6 8 18.5 11.5t18.5 -2.5 q23 -12 10 -39q-31 -45 -74 -80q-10 -6 -18 -6q-16 0 -16 10zM1053 920q-16 18 4 38q27 16 39 -8q33 -41 53 -94q12 -25 -14 -33h-11q-18 1 -20 15q-14 39 -51 82zM1112 621q12 43 12 94v30q0 23 25 29q8 0 17.5 -7t9.5 -15q2 -14 2 -37q0 -29 -2 -43q2 -2 2 -13v-102 q0 -25 -29 -25q-25 0 -25 25v33q-20 10 -12 31zM1124 358v97q0 27 25 26q10 0 19.5 -8t9.5 -18v-90q4 -25 -23 -29h-6q-21 -1 -25 22zM1140 1309.5q-3 9.5 5 19.5q6 23 33 8q53 -25 88 -59q23 -16 6 -37q-8 -8 -21 -8q-6 0 -14 4q-20 16 -84 59q-10 4 -13 13.5zM1184 291 q4 8 14 11t16 -3q12 -6 35 -6h27q4 6 20 6q25 12 33 -14q10 -25 -14 -35q-12 -8 -27 -8q-12 -2 -39 -2q-37 0 -57 10q-20 16 -8 41zM1303 1189.5q0 12.5 6 16.5q20 20 41 0q45 -53 67 -82q16 -23 -8 -37q-4 -4 -14.5 -3.5t-22.5 8.5q-35 53 -63 77q-6 8 -6 20.5zM1372 313 q-20 16 0.5 37t32.5 45l14 15q6 12 6 16q10 25 35 14q27 -10 10 -32q0 -2 -8 -23q-16 -35 -53 -72q-6 -6 -20 -6q-9 0 -17 6zM1422 1027q3 11 12 15q23 8 36 -12q27 -59 39 -100q8 -27 -18 -31h-6q-23 0 -25 16q-10 33 -35 93q-6 8 -3 19zM1462 524q18 66 21 97q4 25 30 20 q10 0 17.5 -9t3.5 -20q-4 -39 -21 -106q-8 -18 -24 -19q-6 0 -8 2q-10 4 -16.5 15.5t-2.5 19.5zM1483 817q-2 20 20 33q12 2 21.5 -6t9.5 -21q8 -33 8 -106q0 -23 -22 -23q-29 0 -29 23q0 57 -8 100z" />
<glyph unicode="A" horiz-adv-x="1323" d="M115 37l39 94q2 10 11 15.5t19 0.5q25 -8 17 -32l-37 -97q-4 -18 -23 -18q-8 0 -10 2q-20 10 -16 35zM190 227l37 99q6 23 33 16q23 -10 12 -35l-34 -98q-6 -14 -25 -14q-4 0 -10 2q-23 10 -13 30zM262 422l37 98q12 23 33 17q20 -8 16 -35l-26 -64h69q27 0 27 -26.5 t-27 -26.5h-102q-14 0 -21 8q-12 12 -6 29zM336 616l35 99q12 25 35 14q10 -4 14 -14t0 -19l-35 -98q-11 -16 -27 -16h-8q-25 12 -14 34zM408 809l36 100q6 20 33 13q8 -2 14.5 -11.5t2.5 -19.5l-37 -98q-7 -17 -27 -17h-6q-25 10 -16 33zM469 412q0 10 9 18t18 8h104 q25 0 25 -26.5t-25 -26.5h-104q-27 0 -27 27zM479 1004l37 96q8 25 35 16q23 -12 14 -35l-37 -96q-6 -14 -24 -14h-8q-25 8 -17 33zM553 1179.5q-4 10.5 0 18.5l35 96q10 27 35 15q25 -8 14 -33l-35 -96q-10 -18 -24 -19q-2 0 -5.5 2t-5.5 2q-10 4 -14 14.5zM625 1393l8 20 q4 20 26 17q16 4 29 -17l6 -20q10 -23 -14 -35q-2 0 -4 -2h-4q-8 0 -13 2q-2 -2 -8 -2h-4q-4 2 -6 2q-23 10 -16 35zM676 412q0 10 8 18t18 8h105q25 0 25 -26.5t-25 -26.5h-105q-27 0 -26 27zM682 1276q-10 25 16 33q23 10 33 -15l37 -96q8 -25 -16 -33l-2 -2q-4 -2 -7 -2 q-16 1 -24 19zM758 1081q-8 25 12 35q27 6 33 -14l37 -98q12 -25 -17 -33h-6q-18 0 -24 14zM829 891q-4 8 0.5 18.5t12.5 12.5q25 6 35 -13l34 -100q10 -20 -12 -33h-10q-19 1 -23 17zM885 412q0 10 8 18t16 8h88l-22 64q-10 23 14 35q23 6 35 -17l35 -98q4 -8 0 -18.5 t-15 -14.5h-10h-6q-4 -4 -14 -4h-105q-25 0 -24 27zM901 696q-8 27 17 33q8 4 18 0t12 -14l39 -99q4 -27 -16 -34h-10q-19 0 -23 16zM1047 307q-6 25 16 35q27 8 33 -16l37 -99q6 -20 -17 -30q-2 -2 -10 -2q-17 0 -23 14zM1120 115q-10 20 15 32q23 12 34 -16l35 -94 q8 -23 -14 -35q-4 -2 -8 -2q-17 0 -27 18z" />
<glyph unicode="B" horiz-adv-x="1216" d="M213 57v105q0 25 27 24q25 0 24 -24v-105q0 -4 -2 -6h84q25 0 25 -24q0 -27 -25 -27h-102q-25 0 -25 27q0 6 2 10q-8 6 -8 20zM213 264v105q0 27 27 26q25 0 24 -26v-105q0 -10 -7 -17t-17 -7q-27 -1 -27 24zM213 473v105q0 25 27 24q25 0 24 -24v-105q0 -10 -7 -18.5 t-17 -8.5q-27 0 -27 27zM213 680v104q0 27 27 27q25 0 24 -27v-104q0 -8 -7 -16.5t-17 -8.5q-27 0 -27 25zM213 889v102q0 27 27 27q25 0 24 -27v-102q0 -10 -7 -18.5t-17 -8.5q-27 0 -27 27zM213 1096v104q0 27 27 27q10 0 17 -8.5t7 -18.5v-104q0 -10 -8 -18.5t-16 -8.5 q-27 0 -27 27zM213 1305v102q0 27 27 27h4h104q27 0 27 -27q0 -25 -27 -25h-84v-77q0 -10 -7 -18.5t-17 -8.5q-27 0 -27 27zM307 774q0 10 8.5 18.5t16.5 8.5h104q27 0 27 -26.5t-27 -26.5h-104q-25 0 -25 26zM424 27q0 10 7 17t18 7h104q27 0 27 -24q0 -27 -27 -27h-104 q-25 0 -25 27zM426 1407q0 27 27 27h102q27 0 27 -27q0 -25 -27 -25h-102q-10 0 -18.5 7.5t-8.5 17.5zM514 774q0 10 8 18.5t19 8.5h28q37 0 70 6q27 8 31 -21q4 -20 -19 -30q-33 -8 -82 -8h-28q-27 0 -27 26zM631 27q0 8 8 16t18 8h5q45 0 92 10q25 10 32 -16 q6 -23 -18 -33q-66 -12 -106 -12h-5q-26 0 -26 27zM633 1403q10 23 33 18q53 -16 100 -49q23 -14 8 -37q-8 -10 -24 -10q-11 0 -13 4q-35 23 -86 43q-10 2 -15 11.5t-3 19.5zM688 772q0 25 27 25h20q-12 0 -18 10q-12 20 8 37q43 27 72 65q16 20 37 2q8 -6 9 -17t-7 -20 q-31 -41 -82 -73q-4 -4 -15 -4h-4q55 -4 88 -19q25 -4 17 -30q-7 -19 -25 -19h-8q-45 16 -92 16q-27 0 -27 27zM805 1262q-12 23 6 36q8 6 19.5 5.5t15.5 -9.5q33 -49 51 -102q8 -23 -16 -31l-4 -2h-5q-16 1 -26 17q-8 41 -41 86zM834 66q-14 20 8 34q49 31 76 64 q16 16 34 0q16 -16 4 -37q-45 -45 -86 -70q-6 -2 -16 -2q-12 1 -20 11zM844 989q16 49 16 94q4 25 29 25q10 0 17 -8t5 -17q0 -51 -20 -112q-2 -14 -23 -15q-6 0 -8 2q-25 4 -16 31zM885 723q18 18 37 4q47 -37 75 -86q6 -8 3 -18.5t-13 -14.5q-4 -6 -12 -6q-13 0 -23 14 q-29 43 -61 70q-16 14 -6 37zM971 242q23 39 33 90q4 27 30 20q25 -4 21 -30q-12 -51 -37 -103q-6 -14 -23 -14q-8 0 -14 2q-18 10 -10 35zM991 526q-6 25 17 33q25 6 34 -18q12 -43 17 -107q0 -25 -23 -28h-2q-26 -1 -26 26q-2 43 -17 94z" />
<glyph unicode="C" horiz-adv-x="1579" d="M150 705q0 25 22 28q25 0 29 -26q0 -49 10 -97q6 -27 -21 -30h-4q-22 0 -26 20q-10 88 -10 105zM156 815q2 41 20 107q8 27 31 18q25 -6 18 -35q-16 -61 -18 -98q-4 -23 -27 -23q-2 0 -4 2q-10 0 -17 9.5t-3 19.5zM188 494q-12 23 17 34q27 4 31 -16q6 -18 40 -96 q12 -25 -10 -33q-4 -2 -12 -2q-17 0 -25 12q-31 66 -41 101zM211 1022q29 61 55 98q14 20 39 8q18 -14 4 -36q-27 -41 -47 -91q-8 -14 -24 -14q-9 0 -13 2q-23 6 -14 33zM287 301q-16 20 6 35q27 14 37 -4q8 -10 22.5 -25.5t25.5 -28t21 -22.5q23 -18 0 -37q-8 -8 -16 -8 q-11 0 -23 8q-10 10 -34.5 38zM336 1206q35 37 78 78q23 14 37 -6q16 -18 -5 -39q-41 -35 -71 -68q-10 -6 -19 -6q-12 0 -18 4q-23 18 -2 37zM438 186q14 18 37 4q41 -35 86 -57q10 -4 13.5 -15.5t-3.5 -19.5q-2 -14 -20 -14q-6 0 -14 4q-53 27 -93 57q-16 14 -6 41z M492 1309q-10 23 10 37q53 31 98 51q27 12 35 -17q10 -25 -14 -34q-37 -14 -91 -46q-8 -4 -14 -4q-18 1 -24 13zM623 76q10 25 32 14l99 -24q25 -8 16 -33q-4 -20 -20 -21q-7 0 -7 4q-53 6 -104 29q-27 8 -16 31zM684 1399q-6 20 21 33q88 16 104 16q25 6 29 -23 q0 -25 -23 -28q-53 -4 -96 -21h-8q-19 0 -27 23zM823 29q4 23 29 22h41q41 0 59 4q29 0 29 -26q2 -10 -5 -18.5t-20 -8.5q-20 -2 -63 -2h-45q-25 0 -25 29zM891 1427q0 27 27 27q25 0 106 -10q29 -4 20 -31q-2 -20 -24 -20h-4q-82 10 -101 10q-10 0 -18 8t-6 16zM1032 37 q-4 27 19 31q51 12 98 30q8 4 18.5 0t14.5 -14q10 -25 -13 -35q-49 -18 -104 -31h-4q-25 1 -29 19zM1100 1399q2 12 11 17t19 1q57 -18 103 -43q25 -10 14 -35q-8 -14 -28 -14q-2 0 -5 1l-6 1q-43 23 -94 39q-25 12 -14 33zM1231 104q-8 27 12 35q41 27 84 60q20 18 37 -2 q16 -25 -6 -39q-37 -35 -88 -62q-2 0 -6 -3t-7 -3q-16 0 -26 14zM1290 1315q18 18 37 4q12 -6 33 -23q20 -20 6 -39q-8 -10 -20 -10q-15 0 -17 6q-14 8 -31 25q-20 14 -8 37z" />
<glyph unicode="D" horiz-adv-x="1472" d="M213 27q0 8 6 14q-6 8 -6 16v105q0 25 27 24q25 0 24 -24v-105q0 -4 -2 -6q27 -4 27 -24q0 -27 -27 -27h-22q-27 0 -27 27zM213 264v105q0 27 27 26q25 0 24 -26v-105q0 -10 -7 -17t-17 -7q-27 -1 -27 24zM213 473v105q0 25 27 24q25 0 24 -24v-105q0 -10 -7 -18.5 t-17 -8.5q-27 0 -27 27zM213 680v104q0 27 27 27q25 0 24 -27v-104q0 -8 -7 -16.5t-17 -8.5q-27 0 -27 25zM213 889v102q0 27 27 27q25 0 24 -27v-102q0 -10 -7 -18.5t-17 -8.5q-27 0 -27 27zM213 1096v104q0 27 27 27q10 0 17 -8.5t7 -18.5v-104q0 -10 -8 -18.5t-16 -8.5 q-27 0 -27 27zM213 1305v102q0 23 23 27h4h4h98q27 0 27 -27q0 -25 -27 -25h-78v-77q0 -10 -7 -18.5t-17 -8.5q-27 0 -27 27zM340 27q0 25 27 24h104q8 0 16.5 -7t8.5 -17q0 -27 -25 -27h-104q-27 0 -27 27zM420 1407q0 27 26 27h107q27 -4 25 -29q0 -23 -27 -23h-105 q-10 0 -18 8.5t-8 16.5zM549 27q-6 20 22 28q57 4 99 15q27 8 30 -21q4 -10 -2 -19.5t-14 -11.5q-37 -8 -106 -16h-5q-24 0 -24 25zM629 1401q2 10 12 15t18 1q47 -6 105 -28q10 -4 14 -14.5t0 -18.5q-6 -17 -24 -17h-9q-27 12 -96 29q-25 8 -20 33zM750 66q-8 27 14 32 q61 29 90 45q23 12 37 -8q10 -23 -10 -37q-31 -18 -97 -47q-2 -2 -10 -2q-14 1 -24 17zM825 1335q12 18 37 11q31 -18 88 -60q10 -6 12.5 -17.5t-6.5 -19.5q-8 -10 -20 -10q-8 0 -16 4q-27 23 -84 55q-23 14 -11 37zM932 164q-18 23 4 37q61 55 72 69q18 18 36 2 q20 -18 3 -36q-27 -33 -78 -74q-6 -6 -17 -6q-12 0 -20 8zM995 1180q-16 16 0 34q14 18 35 -2q43 -39 72 -79q12 -23 -8 -37q-2 -4 -13 -4q-16 0 -24 10q-35 45 -62 78zM1069 348q25 39 51 88q8 25 33 12.5t12 -34.5q-14 -33 -51 -95q-8 -10 -22 -10q-11 0 -15 2 q-23 14 -8 37zM1108 1016q-8 27 14 33q25 16 33 -11q31 -59 43 -98q6 -27 -18 -33h-9q-20 1 -22 15q-20 59 -41 94zM1153 530q14 41 21 97q4 27 28 22q29 -4 25 -28q-8 -53 -25 -107q-4 -18 -22 -18h-9q-23 10 -18 34zM1171 825q-4 27 21 31q27 6 31 -22q8 -43 8 -107 q2 -8 -5 -17.5t-18 -9.5h-4q-20 0 -24 27q0 37 -9 98z" />
<glyph unicode="E" horiz-adv-x="1214" d="M213 57v105q0 25 27 24q25 0 24 -24v-105l-2 -2v-4h86q27 0 27 -24q0 -27 -27 -27h-104q-25 0 -25 27q0 8 2 10q-8 8 -8 20zM213 264v105q0 27 27 26q25 0 24 -26v-105q0 -25 -24 -24q-10 0 -18.5 7t-8.5 17zM213 473v105q0 25 27 24q25 0 24 -24v-105q0 -27 -24 -27 q-27 0 -27 27zM213 680v104q0 27 27 27q25 0 24 -27v-41h84q27 0 27 -26.5t-27 -26.5h-84v-10q0 -25 -24 -25q-10 0 -18.5 7.5t-8.5 17.5zM213 889v102q0 27 27 27q25 0 24 -27v-102q0 -27 -24 -27q-27 0 -27 27zM213 1096v104q0 27 27 27q25 0 24 -27v-104q0 -27 -24 -27 q-10 0 -18.5 8.5t-8.5 18.5zM213 1305v102q0 27 27 27h4h104q27 0 27 -27q0 -25 -27 -25h-84v-77q0 -27 -24 -27q-27 0 -27 27zM426 27q0 10 8 17t19 7h102q27 0 27 -24q0 -27 -27 -27h-102q-27 0 -27 27zM426 717q0 10 8 18t19 8h102q27 0 27 -26.5t-27 -26.5h-102 q-27 0 -27 27zM426 1407q0 27 27 27h102q27 0 27 -27q0 -25 -27 -25h-102q-10 0 -18.5 7.5t-8.5 17.5zM633 27q0 8 8 16t18 8h105q10 0 18.5 -7t8.5 -17q0 -27 -27 -27h-105q-27 0 -26 27zM633 717q0 8 9 17t17 9h105q10 0 18.5 -8t8.5 -18q0 -27 -27 -27h-105q-27 0 -26 27 zM633 1407q0 27 26 27h105q27 0 27 -27q0 -10 -8.5 -17.5t-18.5 -7.5h-105q-10 0 -18 8.5t-8 16.5zM842 27q0 10 8 17t18 7h103q27 0 26 -24q1 -27 -26 -27h-103q-27 0 -26 27zM842 717q0 10 8 18t18 8h50q25 0 25 -26.5t-25 -26.5h-50q-27 0 -26 27zM842 1407q0 27 26 27 h103q27 0 26 -27q1 -25 -26 -25h-103q-10 0 -18 7.5t-8 17.5z" />
<glyph unicode="F" horiz-adv-x="1239" d="M213 27v106q0 27 26.5 27t26.5 -27v-106q0 -27 -26.5 -27t-26.5 27zM213 240v106q0 25 26.5 25t26.5 -25v-106q0 -27 -26.5 -27t-26.5 27zM213 451v106q0 27 26.5 27t26.5 -27v-106q0 -27 -26 -27q-10 0 -18.5 8.5t-8.5 18.5zM213 664v106q0 27 26.5 27t26.5 -27v-43h84 q27 0 27 -26.5t-27 -26.5h-84v-10q0 -27 -26 -27q-10 0 -18.5 8.5t-8.5 18.5zM213 877v106q0 27 26.5 27t26.5 -27v-106q0 -27 -26.5 -27t-26.5 27zM213 1087v107q0 27 26.5 27t26.5 -27v-107q0 -25 -26 -24q-10 0 -18.5 7t-8.5 17zM213 1300v107q0 27 27 27h6h104 q27 0 27 -27t-27 -27h-84v-80q0 -27 -26 -26q-10 0 -18.5 8t-8.5 18zM430 700.5q0 26.5 27 26.5h106q27 0 27 -26.5t-27 -26.5h-106q-27 0 -27 26.5zM430 1407q0 27 27 27h106q27 0 27 -27t-27 -27h-106q-27 0 -27 27zM643 700.5q0 26.5 27 26.5h106q27 0 27 -26.5 t-27 -26.5h-106q-27 0 -27 26.5zM643 1407q0 27 27 27h106q27 0 27 -27t-27 -27h-106q-27 0 -27 27zM856 700.5q0 26.5 27 26.5h49q27 0 27 -26.5t-27 -26.5h-49q-27 0 -27 26.5zM856 1407q0 27 27 27h106q25 0 25 -27t-25 -27h-106q-27 0 -27 27z" />
<glyph unicode="G" horiz-adv-x="1667" d="M150 704.5q0 24.5 26 28.5q8 0 16.5 -8t8.5 -18q0 -23 10 -99q6 -27 -21 -30h-4q-22 0 -26 20q-10 82 -10 106.5zM156 815q4 37 20 107q8 27 33 18q25 -6 20 -33q-20 -66 -22 -100q-4 -23 -27 -23q-2 0 -2 2q-12 0 -19 9.5t-3 19.5zM188 494q-12 23 17 34q29 4 35 -18 q8 -23 39 -94q6 -10 3 -19.5t-14 -13.5q-2 -2 -12 -2q-18 0 -20 12q-25 37 -48 101zM215 1024q27 57 53 94q14 20 37 8q20 -12 8 -36q-35 -51 -49 -89q-8 -14 -24 -14q-9 0 -11 2q-27 8 -14 35zM285 320.5q2 11.5 12 15.5q18 18 37 -4q23 -33 65 -76q23 -18 0 -37 q-8 -8 -16 -8q-10 0 -18 8q-29 25 -74 82q-8 8 -6 19.5zM334 1206q14 12 40.5 38t39.5 38q25 12 37 -6q14 -14 -5 -37q-41 -35 -71 -68q-14 -10 -19 -10q-8 0 -20 8q-18 18 -2 37zM438 184q16 20 37 4q49 -35 88 -53q23 -14 10 -35q-6 -14 -22 -14q-2 0 -6 1t-8 1 q-70 43 -93 59q-16 12 -6 37zM496 1309q-14 20 8 37q31 18 96 49q10 4 21.5 -1t13.5 -16q10 -23 -14 -32q-43 -16 -89 -46q-12 -4 -16 -4q-12 1 -20 13zM621 78q14 25 34 14l48 -12t49 -14q27 -8 22 -33q-8 -21 -26 -21h-7q-59 14 -102 33q-29 4 -18 33zM684 1397 q-2 20 18 35q86 14 107 16q25 8 29 -25q2 -8 -5.5 -17t-17.5 -11q-49 -2 -98 -19h-6q-21 1 -27 21zM825 29q0 23 27 22h102q10 4 18.5 -3t10.5 -19q0 -27 -27 -27q-18 -2 -63 -2h-45q-10 0 -17.5 8t-5.5 21zM856 694q0 10 8 17.5t19 7.5h106q25 0 25 -25q0 -26 -25 -26h-106 q-27 0 -27 26zM891 1425q0 29 27 29q25 0 106 -10q31 -4 27 -33q-6 -20 -29 -20h-6q-78 10 -98 10q-10 0 -18.5 7t-8.5 17zM1032 37q-4 25 23 33q47 10 96 30q8 4 20.5 0t16.5 -14q8 -25 -17 -37q-53 -18 -106 -31h-4q-21 1 -29 19zM1069 694q0 10 8 17.5t17 7.5h106 q27 0 27 -25q0 -26 -27 -26h-106q-25 0 -25 26zM1100 1378.5q-4 10.5 0 18.5q6 27 33 18q70 -25 100 -41q23 -10 14 -35q-8 -14 -24 -14q-7 0 -13 2q-39 23 -96 39q-10 2 -14 12.5zM1233 106q-12 25 12 35q70 45 74 47v86q0 10 8 18.5t19 8.5q25 0 24 -27v-94v-6 q-2 -10 -10 -16q-41 -33 -92 -60q-6 -6 -13 -6q-12 0 -22 14zM1278 694q0 10 8 17.5t19 7.5h34h4h3q25 0 24 -25v-104q0 -27 -24 -27q-27 0 -27 27v78h-14q-27 0 -27 26zM1290 1315q16 20 39 4q10 -6 31 -23q23 -18 6 -39q-8 -10 -20 -10q-7 0 -17 6q-6 4 -17.5 12.5 t-15.5 10.5q-16 14 -6 39zM1319 381v104q0 27 27 27q25 0 24 -27v-104q0 -27 -24 -27q-27 0 -27 27z" />
<glyph unicode="H" horiz-adv-x="1452" d="M213 27v106q0 27 26.5 27t26.5 -27v-106q0 -10 -8 -18.5t-18 -8.5q-27 0 -27 27zM213 240v106q0 25 26.5 25t26.5 -25v-106q0 -10 -8 -18.5t-18 -8.5q-27 0 -27 27zM213 451v106q0 27 26.5 27t26.5 -27v-106q0 -8 -8 -17.5t-18 -9.5q-27 0 -27 27zM213 664v106 q0 27 26.5 27t26.5 -27v-43h88q27 0 27 -26.5t-27 -26.5h-88v-10q0 -8 -8 -17.5t-18 -9.5q-27 0 -27 27zM213 877v106q0 27 27 27q10 0 18 -8.5t8 -18.5v-106q0 -10 -8 -18.5t-18 -8.5q-27 0 -27 27zM213 1087v107q0 27 26.5 27t26.5 -27v-107q0 -8 -8 -16t-18 -8 q-27 -1 -27 24zM213 1300v107q0 27 26.5 27t26.5 -27v-107q0 -10 -8 -18t-18 -8q-27 -1 -27 26zM434 700.5q0 26.5 27 26.5h104q27 0 27 -26.5t-27 -26.5h-104q-27 0 -27 26.5zM645 700q0 10 8.5 18.5t18.5 8.5h106q27 0 27 -26.5t-27 -26.5h-106q-27 0 -27 26zM858 700.5 q0 26.5 27 26.5h106q27 0 27 -26.5t-27 -26.5h-106q-27 0 -27 26.5zM1071 700.5q0 26.5 27 26.5h2v43q0 27 26.5 27t26.5 -27v-106q0 -8 -9 -17.5t-18 -9.5q-26 0 -26 27v10h-2q-27 0 -27 26.5zM1100 27v106q0 27 26.5 27t26.5 -27v-106q0 -10 -8 -18.5t-19 -8.5 q-26 0 -26 27zM1100 240v106q0 25 26.5 25t26.5 -25v-106q0 -10 -8 -18.5t-19 -8.5q-26 0 -26 27zM1100 451v106q0 27 26.5 27t26.5 -27v-106q0 -8 -9 -17.5t-18 -9.5q-26 0 -26 27zM1100 877v106q0 27 26 27q10 0 18.5 -8.5t8.5 -18.5v-106q0 -10 -8 -18.5t-19 -8.5 q-26 0 -26 27zM1100 1087v107q0 27 26.5 27t26.5 -27v-107q0 -8 -8 -16t-19 -8q-26 -1 -26 24zM1100 1300v107q0 27 26.5 27t26.5 -27v-107q0 -10 -9 -18t-18 -8q-26 -1 -26 26z" />
<glyph unicode="I" horiz-adv-x="624" d="M227 27v106q0 27 27 27t27 -27v-106q0 -10 -8.5 -18.5t-18.5 -8.5q-27 0 -27 27zM227 240v106q0 25 27 25t27 -25v-106q0 -10 -8.5 -18.5t-18.5 -8.5q-27 0 -27 27zM227 451v106q0 27 27 27t27 -27v-106q0 -8 -9.5 -17.5t-17.5 -9.5q-27 0 -27 27zM227 664v106 q0 27 27 27t27 -27v-106q0 -8 -9.5 -17.5t-17.5 -9.5q-27 0 -27 27zM227 877v106q0 27 27 27q10 0 18.5 -8.5t8.5 -18.5v-106q0 -10 -8.5 -18.5t-18.5 -8.5q-27 0 -27 27zM227 1087v107q0 27 27 27t27 -27v-107q0 -8 -8.5 -16t-18.5 -8q-27 -1 -27 24zM227 1300v107 q0 27 27 27t27 -27v-107q0 -10 -9.5 -18t-17.5 -8q-27 -1 -27 26z" />
<glyph unicode="J" horiz-adv-x="1216" d="M92 301q-12 23 12 35q25 6 33 -17q33 -66 47 -86q16 -20 -4 -36q-12 -4 -16 -4q-15 0 -21 12q-33 45 -51 96zM213 158q20 20 37 4q35 -35 80 -58q23 -12 10 -36q-6 -12 -23 -13q-4 0 -12 4q-47 23 -90 64q-18 18 -2 35zM387 49q10 23 31 19q53 -16 100 -17q23 0 23 -28 q0 -23 -27 -23q-49 0 -108 18q-23 4 -19 31zM592 29q-4 25 20 28q61 14 95 29q23 14 34 -12q8 -25 -14 -35q-49 -25 -104 -31h-5q-20 1 -26 21zM786 98q-16 23 7 37q37 29 69 68q6 8 17.5 9t19.5 -7q18 -14 2 -37q-41 -45 -78 -74q-6 -6 -14 -6q-13 0 -23 10zM918 285 q25 57 32 92q8 25 31 18q25 -8 18 -30q-8 -51 -38 -103q-4 -16 -21 -16q-10 0 -12 4q-23 16 -10 35zM961 473v4v101q0 25 26.5 24.5t26.5 -24.5v-101v-4q0 -27 -27 -27q-10 0 -18 8.5t-8 18.5zM961 680v104q0 27 26.5 27t26.5 -27v-104q0 -25 -27 -25q-10 0 -18 8.5t-8 16.5 zM961 889v102q0 27 26.5 27t26.5 -27v-102q0 -27 -27 -27q-10 0 -18 8.5t-8 18.5zM961 1096v104q0 10 8 18.5t18 8.5q27 0 27 -27v-104q0 -27 -27 -27q-8 0 -17 8.5t-9 18.5zM961 1305v102q0 27 26.5 27t26.5 -27v-102q0 -27 -27 -27q-10 0 -18 8.5t-8 18.5z" />
<glyph unicode="K" horiz-adv-x="1464" d="M213 27v106q0 27 25 27q27 0 26 -27v-106q0 -27 -26 -27q-25 0 -25 27zM213 240v106q0 25 25 25q27 0 26 -25v-106q0 -27 -26 -27q-25 0 -25 27zM213 451v106q0 27 25 27q27 0 26 -27v-88l45 43q18 18 37 0t0 -37l-74 -74q-8 -8 -22 -8q-11 0 -19 8q-10 10 -6 27 q-12 6 -12 23zM213 664v106q0 27 25 27q27 0 26 -27v-106q0 -10 -8 -18.5t-18 -8.5q-25 0 -25 27zM213 877v106q0 27 25 27q27 0 26 -27v-106q0 -27 -26 -27q-25 0 -25 27zM213 1087v107q0 27 25 27q27 0 26 -27v-107q0 -10 -8 -17t-18 -7q-25 -1 -25 24zM213 1300v107 q0 27 25 27q27 0 26 -27v-107q0 -10 -8 -18t-18 -8q-25 -1 -25 26zM383 549q-16 20 0 37l74 78q8 8 20 8t17 -8q10 -8 10 -19.5t-10 -17.5l-74 -78q-8 -8 -19 -8q-6 0 -18 8zM535 700q-18 18 0 37l73 76q18 18 37 0l4 -8q6 -2 13 -8l65 -82q6 -8 5 -20.5t-11 -16.5 q-2 -6 -16 -6q-12 0 -21 8l-57 76l-56 -56q-12 -8 -18 -8q-10 0 -18 8zM682 850q-18 18 0 39l76 76q20 18 39 0q12 -20 0 -39l-76 -76q-8 -8 -19 -8q-12 0 -20 8zM750 598q-18 20 2 37q8 8 19 7t17 -9l70 -84q16 -20 -6 -37q-8 -4 -14 -4q-15 0 -23 10zM834 1001 q-18 18 0 37l75 74q18 18 37 0t0 -37l-76 -74q-6 -8 -18 -8q-10 0 -18 8zM885 436q-16 18 2 37q23 18 37 -6l69 -80q14 -23 -6 -39q-12 -6 -14 -6q-13 0 -23 10zM975 1169.5q0 12.5 8 20.5l78 74q12 20 37 0q18 -18 0 -37l-78 -74q-8 -8 -18.5 -8t-18.5 8q-8 4 -8 16.5z M1020 270q-16 16 2 37q18 16 37 -2l67 -82q16 -23 -2 -37q-8 -8 -16 -8q-13 0 -23 10zM1135 1300q-18 18 0 37l73 78q18 14 37 0q18 -18 0 -41l-74 -74q-12 -8 -18 -8q-10 0 -18 8zM1153 106q-16 20 4 37q18 14 39 -2l66 -82q18 -23 -2 -39q-6 -4 -17 -4q-14 1 -22 9z" />
<glyph unicode="L" horiz-adv-x="1153" d="M213 57v105q0 25 27 24q25 0 24 -24v-105l-2 -2v-4h86q10 0 18.5 -8t8.5 -16q0 -27 -27 -27h-104q-25 0 -25 27q0 8 2 10q-8 8 -8 20zM213 264v105q0 27 27 26q25 0 24 -26v-105q0 -25 -24 -24q-10 0 -18.5 7t-8.5 17zM213 473v105q0 25 27 24q25 0 24 -24v-105 q0 -27 -24 -27q-27 0 -27 27zM213 680v104q0 27 27 27q25 0 24 -27v-104q0 -25 -24 -25q-10 0 -18.5 7.5t-8.5 17.5zM213 889v102q0 27 27 27q25 0 24 -27v-102q0 -27 -24 -27q-27 0 -27 27zM213 1096v104q0 27 27 27q25 0 24 -27v-104q0 -27 -24 -27q-10 0 -18.5 8.5 t-8.5 18.5zM213 1305v102q0 27 27 27q25 0 24 -27v-102q0 -27 -24 -27q-27 0 -27 27zM426 27q0 25 27 24h102q10 0 18.5 -7t8.5 -17q0 -27 -27 -27h-102q-27 0 -27 27zM633 27q0 10 8 17t18 7h105q10 0 18.5 -8t8.5 -16q0 -27 -27 -27h-105q-27 0 -26 27zM842 27q0 25 26 24 h103q10 0 18 -7t8 -17q1 -27 -26 -27h-103q-27 0 -26 27z" />
<glyph unicode="M" horiz-adv-x="1728" d="M213 27v106q0 27 26.5 27t26.5 -27v-106q0 -27 -26.5 -27t-26.5 27zM213 238v106q0 27 26.5 27t26.5 -27v-106q0 -25 -26.5 -25t-26.5 25zM213 451v106q0 27 26.5 27t26.5 -27v-106q0 -27 -26.5 -27t-26.5 27zM213 662v106q0 27 26.5 27t26.5 -27v-106q0 -25 -26.5 -25 t-26.5 25zM213 874v107q0 27 26.5 27t26.5 -27v-107q0 -27 -26.5 -27t-26.5 27zM213 1085v107q0 27 26.5 27t26.5 -27v-107q0 -25 -26.5 -25t-26.5 25zM213 1298v107q0 27 27 27q6 0 8 -2q6 0 18 -9l62 -88q14 -18 -6 -35q-6 -6 -16.5 -5.5t-20.5 12.5l-19 24v-31 q0 -27 -26.5 -26.5t-26.5 26.5zM346 1217q-14 23 4 36q27 18 37 -6l64 -84q14 -23 -7 -37q-4 -6 -14 -6q-14 0 -24 10zM471 1044q-14 23 4 37q25 16 37 -6l61 -84q16 -25 -6 -37q-4 -6 -14 -6q-13 0 -23 10zM594 874q-20 20 6 35q20 20 37 -6l61 -84q12 -23 -6 -37 q-6 -6 -16 -6q-13 0 -21 10zM717 702q-16 20 8 37q20 16 37 -8l61 -84q4 -16 2 -22q-2 8 4 22l66 84q10 23 37 8q18 -18 4 -37l-64 -88q-2 -10 -20 -10q-8 0 -14 6q-8 2 -13 15q0 -10 -8 -15q-10 -6 -16 -6q-14 0 -21 10zM954 819l62 84q18 25 37 6q25 -14 8 -35l-64 -88 q-8 -10 -20 -10q-10 0 -16 6q-18 14 -7 37zM1079 991l62 84q16 27 37 6q25 -16 6 -37l-62 -86q-10 -10 -22 -10q-11 0 -15 6q-18 14 -6 37zM1204 1163l62 84q12 23 37 6q18 -14 4 -36l-60 -87q-10 -10 -22 -10q-11 0 -15 6q-25 14 -6 37zM1325 1333l64 88q8 8 16 9q2 2 8 2 q27 0 27 -27v-107q0 -27 -27 -26q-8 0 -17.5 9t-9.5 17v29l-16 -22q-6 -12 -22 -13q-10 0 -15 6q-20 14 -8 35zM1386 27v106q0 10 8.5 18.5t18.5 8.5q27 0 27 -27v-106q0 -27 -27 -27q-10 0 -18.5 8.5t-8.5 18.5zM1386 238v106q0 27 27 27t27 -27v-106q0 -25 -27 -25 q-10 0 -18.5 8.5t-8.5 16.5zM1386 451v106q0 10 8.5 18.5t18.5 8.5q27 0 27 -27v-106q0 -27 -27 -27q-10 0 -18.5 8.5t-8.5 18.5zM1386 662v106q0 27 27 27t27 -27v-106q0 -25 -27 -25q-10 0 -18.5 8.5t-8.5 16.5zM1386 874v107q0 27 27 27t27 -27v-107q0 -27 -27 -26 q-8 0 -17.5 8t-9.5 18zM1386 1085v107q0 27 27 27t27 -27v-107q0 -25 -27 -24q-10 0 -18.5 8t-8.5 16z" />
<glyph unicode="N" horiz-adv-x="1579" d="M213 49v105q0 25 26.5 24.5t26.5 -24.5v-105q0 -27 -26 -26q-10 0 -18.5 9t-8.5 17zM213 256v104q0 27 26.5 27t26.5 -27v-104q0 -25 -26 -25q-10 0 -18.5 8.5t-8.5 16.5zM213 465v102q0 27 26.5 27t26.5 -27v-102q0 -27 -26 -27q-10 0 -18.5 8.5t-8.5 18.5zM213 672v102 q0 27 26.5 27t26.5 -27v-102q0 -27 -26 -27q-10 0 -18.5 9.5t-8.5 17.5zM213 879v104q0 25 26.5 25t26.5 -25v-104q0 -27 -26 -27q-10 0 -18.5 8.5t-8.5 18.5zM213 1085v105q0 27 26.5 27t26.5 -27v-105q0 -25 -26 -24q-10 0 -18.5 8t-8.5 16zM213 1294v103v8q0 10 10 20 q23 12 37 -4l62 -86q14 -18 -7 -37q-4 -2 -16 -2q-16 1 -20 11l-13 16v-29q0 -27 -26 -26q-10 0 -18.5 8t-8.5 18zM340 1221q-12 23 6 36q20 16 37 -6l59 -84q18 -18 -6 -34q-4 -4 -14 -5q-15 1 -23 11zM461 1053q-14 23 6 37q16 16 37 -7l59 -82q12 -23 -4 -36 q-6 -6 -16 -7q-15 1 -21 11zM582 885q-16 25 8 35q18 18 33 -5l63 -84q12 -25 -6 -34q-4 -6 -14 -6q-15 0 -23 10zM705 719q-14 18 4 33q23 18 36 -4l62 -84q16 -23 -8 -37q-4 -4 -15 -4q-14 0 -20 10zM825 549q-14 18 6 37q20 16 35 -8l60 -82q16 -23 -4 -37q-12 -4 -17 -4 q-12 0 -20 10zM946 381q-16 16 6 37q18 14 37 -8l60 -84q12 -20 -7 -35q-12 -6 -14 -6q-10 0 -20 10zM1063 232.5q2 11.5 12 17.5q20 12 33 -8l61 -84q16 -20 -4 -37q-12 -4 -16 -4q-11 0 -21 10l-61 86q-6 8 -4 19.5zM1188 45q-14 18 6 35q10 8 20 4v70q0 25 27 24 q25 0 25 -24v-105q0 -8 -6 -18q4 -16 -13 -29q-2 -2 -12 -2q-19 0 -23 10zM1214 256v104q0 27 27 27q25 0 25 -27v-104q0 -25 -25 -25q-10 0 -18.5 7.5t-8.5 17.5zM1214 465v102q0 27 27 27q25 0 25 -27v-102q0 -27 -25 -27q-27 0 -27 27zM1214 672v102q0 27 27 27 q25 0 25 -27v-102q0 -27 -25 -27q-10 0 -18.5 8.5t-8.5 18.5zM1214 879v104q0 25 27 25q25 0 25 -25v-104q0 -27 -25 -27q-10 0 -18.5 8.5t-8.5 18.5zM1214 1085v105q0 27 27 27q25 0 25 -27v-105q0 -25 -25 -24q-10 0 -18.5 7t-8.5 17zM1214 1294v103q0 27 27 26 q25 0 25 -26v-103q0 -27 -25 -26q-27 -1 -27 26z" />
<glyph unicode="O" horiz-adv-x="1740" d="M150 694v33q0 37 6 74q0 10 7 17t17 5q29 0 25 -26q0 -10 -2 -35t-2 -35v-31q2 -12 -5.5 -20t-17.5 -8h-2q-22 -1 -26 26zM162 586q-4 23 20 30q25 4 33 -20q6 -45 27 -102q6 -20 -19 -31q-4 -2 -8 -2q-17 0 -25 18q-12 33 -28 107zM172 907q12 59 33 107q6 25 35 14 q25 -12 16 -35q-20 -47 -33 -96q-6 -20 -26 -20h-7q-27 8 -18 30zM236 379q-16 27 10 35q23 14 35 -11q29 -53 53 -88q16 -20 -8 -36q-4 -4 -13 -5q-14 1 -24 13q-37 51 -53 92zM256 1110q27 43 59 90q20 20 37 4q20 -12 4 -37q-47 -66 -57 -84q-8 -12 -23 -12q-8 0 -12 2 q-25 14 -8 37zM358 203q-16 16 0 37q23 18 39 0q43 -43 76 -66q23 -20 6 -37q-8 -10 -22 -10q-11 0 -15 2q-59 51 -84 74zM389 1243q-16 14 4 35q37 41 86 68q18 16 33 -9q14 -18 -6 -32q-53 -41 -80 -66q-8 -4 -18.5 -4t-18.5 8zM522 109q18 23 39 10q43 -25 90 -37 q23 -6 19 -35q-8 -18 -27 -18h-6q-35 12 -100 41q-23 16 -15 39zM561 1364q-12 25 12 33q41 18 105 37q27 4 33 -21q4 -25 -21 -31q-43 -10 -96 -30q-2 -4 -10 -4q-17 0 -23 16zM721 33q4 29 29 24q29 -6 88 -6h16q10 0 17.5 -7t7.5 -17q0 -27 -25 -27h-16q-64 0 -93 6 q-29 4 -24 27zM760 1423q0 29 26 29q14 2 52 2q39 0 57 -2q10 0 17.5 -10t5.5 -21q0 -25 -25 -24h-4q-14 4 -51 4q-33 0 -50 -4q-25 0 -28 26zM932 31q-6 27 20 30q31 6 95 29q25 8 34 -12q6 -29 -12 -37q-49 -16 -106 -31h-7q-20 1 -24 21zM971 1413q4 23 33 19 q66 -18 100 -37q27 -8 14 -33q-6 -16 -24 -16q-9 0 -11 2q-33 16 -92 34q-27 4 -20 31zM1128 98q-12 25 11 37q45 23 82 58q25 12 39 -6.5t-5 -36.5q-39 -31 -90 -60q-8 -4 -12 -4q-19 0 -25 12zM1165 1335q16 20 37 8q37 -27 84 -69q23 -18 2 -37q-6 -8 -20 -8q-11 0 -17 6 q-25 23 -77 63q-20 12 -9 37zM1296 262q20 23 62 80q12 18 35 8q20 -14 6 -37q-18 -31 -64 -88q-12 -8 -18.5 -8t-18.5 6q-18 18 -2 39zM1321 1161q-18 18 4 37q25 16 35 -6q29 -29 63 -90q8 -25 -10 -35q-4 0 -8 -2t-6 -2q-15 0 -23 14q-27 47 -55 84zM1405 432 q29 68 37 94q2 10 12 16.5t21 2.5q23 -8 18 -35q-12 -39 -39 -100q-8 -16 -27 -17q-2 0 -4 1l-6 1q-23 14 -12 37zM1419 983q-6 29 17 37q27 8 37 -14q18 -51 30 -105q4 -27 -20 -33h-6q-21 0 -27 23q-18 66 -31 92zM1464 625q4 66 4 102q0 41 -2 61q0 27 23 27q29 4 29 -22 q4 -20 4 -66q0 -43 -9 -109q0 -23 -24 -22h-4q-25 4 -21 29z" />
<glyph unicode="P" horiz-adv-x="1193" d="M213 27v106q0 27 26.5 27t26.5 -27v-106q0 -27 -26.5 -27t-26.5 27zM213 240v106q0 25 26.5 25t26.5 -25v-106q0 -27 -26.5 -27t-26.5 27zM213 451v106q0 27 26.5 27t26.5 -27v-106q0 -27 -26 -27q-10 0 -18.5 8.5t-8.5 18.5zM213 664v106q0 27 26.5 27t26.5 -27v-100 l4 2h6h107q10 0 18.5 -8.5t8.5 -18.5q0 -27 -27 -27h-107q-25 0 -26 21q-4 -2 -10 -2q-10 0 -18.5 8t-8.5 19zM213 877v106q0 27 26.5 27t26.5 -27v-106q0 -27 -26.5 -27t-26.5 27zM213 1087v107q0 27 26.5 27t26.5 -27v-107q0 -25 -26 -24q-10 0 -18.5 7t-8.5 17zM213 1300 v107q0 27 27 27h2h2h104q27 0 27 -27t-27 -27h-82v-80q0 -27 -26 -26q-10 0 -18.5 8t-8.5 18zM428 1407q0 27 27 27h106q27 0 27 -27t-27 -27h-106q-10 0 -18.5 8.5t-8.5 18.5zM462.5 645q0.5 27 26.5 27h107q10 0 18.5 -8.5t7.5 -18.5q0 -27 -26 -27h-107q-27 0 -26.5 27z M641 1407q0 27 27 27h2q51 0 110 -17q27 -4 19 -31q-7 -18 -25 -18h-8q-61 12 -96 12h-2q-10 0 -18.5 8.5t-8.5 18.5zM676 645q-2 8 5 17.5t17 9.5q53 4 97 24q25 4 34 -16q6 -23 -16 -35q-45 -16 -108 -27h-3q-26 0 -26 27zM848 1364q12 23 37 8q49 -29 84 -72 q23 -18 0 -36q-6 -8 -19 -9q-10 1 -18 11q-35 39 -76 61q-25 14 -8 37zM877 705q-18 23 6 36q33 25 67 68q14 27 39 6q20 -12 4 -37q-37 -43 -80 -80q-12 -6 -16 -6q-8 1 -20 13zM989 1184q-14 25 10 35q20 14 37 -11q23 -45 35 -108q4 -23 -22 -31h-5q-22 0 -26 23 q-10 47 -29 92zM999 897q20 45 23 96q0 23 31 23q23 -4 22 -29q-2 -53 -26 -110q-6 -16 -23 -17q-8 0 -12 2q-25 12 -15 35z" />
<glyph unicode="Q" horiz-adv-x="1728" d="M135 696v33q0 25 4 74q0 12 8.5 20t18.5 6q25 -2 24 -32q-4 -41 -4 -68q0 -20 2 -31q1 -22 -26 -26q-23 0 -27 24zM147 590q-4 25 21 28q27 4 31 -18q10 -55 28 -98q8 -27 -18 -31q-4 -2 -8 -2q-16 0 -29 16zM156 913q4 18 17 57.5t15 45.5q14 27 35 16q27 -10 15 -35 q-27 -84 -29 -96q-10 -20 -27 -20h-4q-27 6 -22 32zM217 387q-12 18 12 33q27 13 37 -12q29 -55 49 -84q6 -8 4 -19.5t-8 -15.5q-4 -6 -16 -6t-19 10q-45 61 -59 94zM238 1114q16 31 61 88q16 20 37 6q18 -16 6 -37q-29 -29 -59 -86q-6 -10 -21 -10q-6 0 -14 4 q-20 10 -10 35zM344 211q-18 16 0 35q17 18 35 0q72 -61 78 -66q23 -16 4 -35q-6 -12 -19 -12q-8 0 -16 4q-72 61 -82 74zM373 1243q-20 25 0 37q29 27 86 68q10 8 21.5 6t15.5 -13q12 -23 -7 -36q-45 -29 -77 -62q-6 -6 -19 -6q-14 0 -20 6zM506 113q10 25 37 14 q49 -27 96 -41q23 -12 16.5 -32.5t-26.5 -20.5q-4 0 -6 2q-53 14 -103 43q-27 16 -14 35zM528 -162q-12 23 13 33l98 43q23 12 33 -12q2 0 2 -2q2 -2 4 -7.5t2 -7.5q4 -25 -18 -30q-39 -8 -66 -21l-25 -10q-12 -4 -14 -4q-12 0 -18 6q-10 6 -11 12zM543 1364q-10 25 14 35 q14 4 50.5 17.5t54.5 19.5q27 4 30 -19q4 -27 -18 -33q-25 -6 -92 -30q-4 -2 -11 -2q-23 0 -28 12zM705 41q6 27 32 22q37 -6 82 -6q2 0 6 1t9 1q10 0 18 -9t8 -19q0 -27 -24 -27h-17q-31 0 -92 8q-27 4 -22 29zM721 -78q-12 20 12 37l94 43q20 10 35 -12q10 -23 -12 -37 l-70 -31q43 0 88 -6q25 -6 19 -33q-2 -18 -25 -18h-6q-41 6 -76 6h-20q-10 -2 -18.5 6t-8.5 21l6 12q-16 4 -18 12zM745 1423q0 25 25 29q10 0 25.5 1t23.5 1t28 -1t30 -1q27 -4 26 -29q-4 -25 -29 -24h-2q-18 2 -53 2h-47q-10 -2 -18.5 5t-8.5 17zM909 12q-6 10 2 23v2 q-4 27 25 31q74 20 94 28q8 4 19.5 -1t15.5 -15q8 -23 -18 -35h-3l-2 -2l-4 -2l-94 -43q-2 0 -4 -1t-4 -1q-16 0 -27 16zM940 -133q6 20 33 12q4 -2 10 -6t8 -6q12 -6 36 -18.5t38 -18.5q20 -10 12 -37q-8 -14 -26 -14h-4q-4 2 -9 2q-12 8 -35.5 21.5t-33.5 21.5 q-4 2 -10.5 6t-8.5 4q-25 12 -10 33zM954 1411q4 27 31 23q26 -8 102 -39q23 -6 15 -33q-8 -14 -25 -14q-8 0 -10 4q-84 27 -96 28q-25 10 -17 31zM1112 102q-14 20 8 43q66 41 80 54q18 18 41 -2q16 -25 -6 -35q-47 -43 -90 -68q-2 -2 -12 -2q-14 0 -21 10zM1122 -229 q12 27 35 16q49 -19 96 -27q29 -4 25 -28q-8 -23 -29 -23h-4q-61 14 -106 29q-23 12 -17 33zM1145 1337q14 23 37 9q76 -59 86 -70q10 -8 10 -19.5t-10 -17.5q-6 -8 -18.5 -8t-20.5 6q-29 29 -78 63q-23 12 -6 37zM1278 231q-23 18 0 35q35 45 57 82q14 20 37 10 q20 -20 6 -36q-33 -55 -63 -89q-8 -6 -19 -6q-14 0 -18 4zM1296 1184.5q2 11.5 11 15.5q18 18 34 -2q33 -45 60 -92q16 -20 -8 -35q-4 -4 -15 -4q-14 0 -20 14q-20 37 -58 84q-6 8 -4 19.5zM1329 -270q-2 8 6 17t17 9q45 3 98 19q8 4 18.5 -1t14.5 -16q10 -25 -19 -32 q-61 -18 -108 -21h-4q-23 0 -23 25zM1382 438q29 53 39 92q8 25 35 19q27 -8 19 -31q-23 -68 -41 -104q-8 -14 -23 -15q-10 0 -14 4q-20 6 -15 35zM1399 991q-8 18 16 35q23 6 35 -16q27 -72 33 -107q4 -8 -2 -17t-19 -14h-2l-2 -2q-23 0 -28 25q-8 43 -31 96zM1442 629 q8 66 8 100q0 41 -4 59q-2 12 7.5 21.5t21.5 11.5q25 0 24 -26q2 -23 2 -66q0 -53 -6 -108q-4 -20 -22 -21h-9q-27 4 -22 29zM1530 -219q-12 25 8 35q49 33 72 49q25 14 37 -2q18 -23 -5 -37q-29 -29 -77 -55q-4 -2 -11 -2q-23 0 -24 12z" />
<glyph unicode="R" horiz-adv-x="1280" d="M184 37v104q0 27 27 27t27 -27v-104q0 -27 -27 -27q-10 0 -18.5 8.5t-8.5 18.5zM184 248v104q0 27 27 27t27 -27v-104q0 -27 -27 -27q-10 0 -18.5 8.5t-8.5 18.5zM184 459v104q0 27 27 27t27 -27v-104q0 -27 -27 -27t-27 27zM184 670v104q0 27 27 27t27 -27v-98h4 q4 2 6 2h104q10 0 18.5 -8t8.5 -19q0 -26 -27 -26h-104q-25 0 -27 20q-4 -2 -10 -2q-27 0 -27 27zM184 881v104q0 27 27 27t27 -27v-104q0 -27 -27 -27t-27 27zM184 1092v104q0 27 27 27t27 -27v-104q0 -27 -27 -27t-27 27zM184 1303v104q0 23 25 27h4h106q25 0 25 -27 t-25 -27h-81v-77q0 -27 -27 -27t-27 27zM397 1407q0 27 27 27h106q25 0 25 -27t-25 -27h-106q-10 0 -18.5 8.5t-8.5 18.5zM432 651.5q0 26.5 27 26.5h104q10 0 18.5 -8t8.5 -19q0 -26 -27 -26h-104q-27 0 -27 26.5zM608 1407q0 27 27 27h2q53 0 108 -17q12 -2 17.5 -11 t1.5 -20q-5 -18 -23 -18h-8q-45 12 -96 12h-2q-8 0 -17.5 8.5t-9.5 18.5zM610 655q8 27 33 23q4 -2 12 -4q8 4 11 4q51 2 96 22q25 8 35 -14q8 -27 -17 -35q-25 -10 -26 -10q16 -12 10 -29q-6 -18 -27 -18h-4q-2 2 -4 2q-53 18 -70 22l-26 7q-27 4 -23 30zM809 586 q14 23 37 8q53 -33 86 -76q14 -18 -2 -37q-8 -4 -19 -4q-14 0 -20 8q-27 35 -74 64q-20 20 -8 37zM815 1366q10 20 37 6q49 -31 84 -69q18 -18 0 -37q-8 -8 -18 -9q-13 1 -19 11q-43 43 -78 61q-20 10 -6 37zM844 709q-16 23 4 37t70 69q16 25 36 4q16 -14 4 -37 q-35 -43 -77 -77q-10 -6 -17 -7q-10 1 -20 11zM944 403q-12 23 12 35q25 8 35 -14q20 -61 27 -111q0 -25 -27 -28q-26 -1 -26 26q-2 45 -21 92zM954 1186q-16 25 11 35q23 14 34 -11q23 -43 37 -108q4 -25 -22 -29h-4q-23 1 -27 21q-10 47 -29 92zM965 901q20 45 22 94 q0 25 31 25q23 -4 22 -29q-6 -61 -26 -110q-6 -16 -23 -17q-8 0 -10 2q-29 12 -16 35zM967 203q0 29 24 28q25 6 29 -22q2 -41 16 -98q8 -23 -16 -35h-8q-17 0 -27 18q-16 55 -18 109zM1049 29q4 29 28 24h6q27 4 31 -16q8 -23 -14 -35q-2 0 -7.5 -1t-11.5 -1h-8 q-25 4 -24 29z" />
<glyph unicode="S" horiz-adv-x="1366" d="M141 242q14 16 33 2q63 -47 72 -51q20 -16 6 -33q-6 -10 -21 -10q-4 0 -12 4q-39 27 -74 55q-18 14 -4 33zM184 1071q-4 20 21 25q25 0 24 -21q6 -51 25 -82q12 -20 -10 -30q-4 -2 -11 -2q-14 0 -22 12q-25 47 -27 98zM195 1171q10 39 43 91q16 20 32 6q20 -16 6 -33 q-29 -45 -36 -76q-8 -18 -23 -18q-6 0 -8 2q-20 8 -14 28zM272 926q18 16 33 2q35 -31 72 -51q20 -10 10 -33q-10 -12 -20 -13q-5 1 -13 5q-49 27 -80 57q-16 14 -2 33zM293 135q10 23 31 10q53 -29 82 -41q25 -8 12 -30q-8 -14 -21 -15q-2 0 -5 1t-5 1q-10 4 -27.5 12.5 t-32 15.5t-26.5 15q-20 12 -8 31zM303 1303q-16 16 2 32q25 20 82 54q23 10 33 -11q12 -20 -10 -30q-41 -20 -74 -50q-6 -6 -14 -6q-13 1 -19 11zM428 823q10 20 31 15q49 -18 86 -29q23 -8 16 -29q-4 -18 -22 -18q-5 0 -7 2q-49 12 -90 31q-23 8 -14 28zM463 59q6 20 29 17 q39 -14 88 -21q25 -4 20 -26q-4 -20 -25 -21h-2q-66 12 -94 23q-25 4 -16 28zM463 1397q-8 20 14 28q51 16 96 23q23 4 27 -21q4 -23 -20 -26q-45 -6 -88 -19q-2 -2 -7 -2q-16 1 -22 17zM606 768q8 23 29 18q25 -4 37 -8h4q8 -2 25.5 -5t25.5 -5q23 -4 18 -27 q-6 -20 -24 -20q-2 2 -4 2q-16 2 -49 10h-4q-29 4 -39 8q-23 4 -19 27zM645 25q0 23 25 22h2q45 0 88 6q23 4 26 -20q4 -23 -20 -27q-45 -6 -94 -6h-2q-25 0 -25 25zM645 1432q0 23 25 22q55 0 96 -8q25 -4 20 -27q-4 -20 -24 -20q-2 2 -4 2q-43 6 -88 6q-25 4 -25 25z M791 729q4 25 28 16q84 -29 90 -30q23 -8 15 -31q-6 -14 -23 -14q-6 0 -8 2q-49 18 -86 28q-23 8 -16 29zM831 43q-6 20 17 29q45 12 84 30q23 10 31 -10q10 -23 -11 -31q-47 -25 -92 -34h-6q-17 0 -23 16zM831.5 1407q8.5 23 28.5 14q49 -16 90 -37q20 -12 11 -32 q-6 -12 -21 -13q-8 0 -12 2q-41 23 -82 37q-23 6 -14.5 29zM967 666q10 23 30 10q43 -23 82 -55q18 -14 4 -33q-12 -8 -18 -8q-8 0 -14 6q-37 27 -76 49q-20 12 -8 31zM1001 1329q10 20 31 8t80 -51q20 -10 8 -31q-10 -12 -20 -12q-5 0 -13 4q-12 8 -38.5 25.5t-38.5 25.5 q-23 12 -9 31zM1004 115q-14 16 6 32q43 33 65 60q14 16 33 2q18 -16 2 -33q-37 -39 -74 -65q-6 -6 -14 -7q-12 1 -18 11zM1108 522q-12 18 6 33q23 10 33 -6q27 -39 41 -92q6 -25 -17 -29h-6q-18 0 -22 16q-8 37 -35 78zM1122 279q23 41 25 81q4 25 27 21q25 -4 20 -27 q-6 -47 -29 -96q-6 -12 -20 -12q-8 0 -10 2q-20 6 -13 31z" />
<glyph unicode="T" horiz-adv-x="1327" d="M102 1407q0 27 27 27h107q27 0 26 -27q0 -10 -8 -18.5t-18 -8.5h-107q-27 0 -27 27zM315 1407q0 27 27 27h107q25 0 24 -27q0 -10 -8 -18.5t-16 -8.5h-107q-27 0 -27 27zM526 1407q0 27 27 27h22h5h79q27 0 27 -27q0 -10 -8 -18.5t-19 -8.5h-57v-80q0 -27 -26.5 -27 t-26.5 27v80q-23 4 -23 27zM549 27v106q0 27 26 27q10 0 18.5 -8.5t8.5 -18.5v-106q0 -27 -26.5 -27t-26.5 27zM549 240v106q0 25 26 25q10 0 18.5 -8.5t8.5 -16.5v-106q0 -27 -26.5 -27t-26.5 27zM549 451v106q0 27 26 27q10 0 18.5 -8.5t8.5 -18.5v-106q0 -10 -8 -18.5 t-19 -8.5q-26 0 -26 27zM549 664v106q0 27 26 27q10 0 18.5 -9.5t8.5 -17.5v-106q0 -27 -26.5 -27t-26.5 27zM549 877v106q0 27 26 27q10 0 18.5 -9.5t8.5 -17.5v-106q0 -27 -26.5 -27t-26.5 27zM549 1087v107q0 27 26 27q10 0 18.5 -8.5t8.5 -18.5v-107q0 -25 -26.5 -25 t-26.5 25zM739 1407q0 27 27 27h106q27 0 27 -27q0 -10 -9.5 -18.5t-17.5 -8.5h-106q-27 0 -27 27zM952 1407q0 27 27 27h106q27 0 27 -27q0 -10 -9.5 -18.5t-17.5 -8.5h-106q-27 0 -27 27z" />
<glyph unicode="U" horiz-adv-x="1667" d="M215 573v39q0 27 27 27q10 0 17 -8t7 -19v-39q0 -41 4 -61q4 -29 -24 -29h-2q-21 0 -27 23q-2 20 -2 67zM215 717v104q0 25 27 25q8 0 16 -7.5t8 -17.5v-104q0 -27 -24 -27q-27 0 -27 27zM215 924v104q0 27 27 27q10 0 17 -8.5t7 -18.5v-104q0 -25 -24 -25q-27 0 -27 25z M215 1133v104q0 25 27 25q8 0 16 -8.5t8 -16.5v-104q0 -27 -24 -27q-27 0 -27 27zM215 1339v68q0 27 27 27q25 0 24 -27v-68q0 -25 -24 -24q-27 -1 -27 24zM242 399q-8 27 18 33q10 4 19.5 -2t11.5 -14q20 -59 39 -90q12 -23 -11 -37q-4 -4 -14 -4q-14 0 -20 14 q-27 45 -43 100zM344 211q-12 18 4 35q25 16 35 -4q39 -43 72 -70q23 -14 4 -37q-6 -8 -21 -8q-12 0 -18 6q-33 29 -76 78zM500 106q14 20 37 11q43 -25 92 -39q10 -4 14 -14.5t0 -18.5q-4 -18 -25 -18q-6 0 -8 2q-59 16 -98 41q-25 14 -12 36zM692 33q8 27 33 22 q20 -4 63 -4h35q25 0 25 -22q2 -12 -5 -20.5t-18 -8.5h-37q-48 0 -71 2q-25 6 -25 31zM901 37q-4 27 19 31q53 14 92 32q25 10 35 -12q6 -10 3 -19.5t-14 -13.5q-55 -27 -104 -37q-2 -2 -6 -2q-23 1 -25 21zM1094 115q-18 23 4 37q53 41 73 67q16 18 35 0q18 -23 4 -37 q-53 -53 -82 -73q-8 -4 -14 -5q-16 1 -20 11zM1231 297q20 27 47 88q8 23 33 12q23 -12 12 -32q-20 -57 -49 -97q-8 -14 -21 -14q-6 0 -12 6q-23 14 -10 37zM1303 477q8 43 8 96v5q0 25 26.5 24.5t26.5 -24.5v-5q0 -37 -8 -102q-6 -25 -27 -25l-6 3q-25 8 -20 28zM1311 680 v104q0 27 26.5 27t26.5 -27v-104q0 -10 -8 -17.5t-18.5 -7.5t-18.5 7.5t-8 17.5zM1311 889v102q0 27 26.5 27t26.5 -27v-102q0 -27 -26.5 -27t-26.5 27zM1311 1096v104q0 27 26.5 27t26.5 -27v-104q0 -10 -8 -18.5t-18.5 -8.5t-18.5 8.5t-8 18.5zM1311 1305v102 q0 27 26.5 27t26.5 -27v-102q0 -27 -26.5 -27t-26.5 27z" />
<glyph unicode="V" horiz-adv-x="1536" d="M121 1395q-12 25 12 32q25 12 33 -12l43 -96q8 -27 -14 -33q-4 -2 -11 -2q-18 0 -22 14zM201 1202q-8 23 12 37q23 12 35 -16l41 -95q8 -25 -15 -34h-10q-18 0 -22 16zM281 1014q-12 25 12 33q23 8 37 -13l39 -96q12 -25 -13 -33q-6 -2 -10 -2q-18 1 -24 15zM360 821 q-8 25 15 35q25 8 35 -14l39 -94q10 -25 -13 -35q-6 -2 -10 -2q-21 0 -23 14zM440 631q-8 27 17 33q18 12 35 -13l38 -96q8 -25 -14 -35h-4q-4 -2 -6 -2q-19 1 -23 17zM522 440q-10 23 15 35q23 6 34 -16l39 -97q6 -20 -14 -32h-10q-21 0 -23 14zM602 250q-10 20 16 33 q20 10 33 -13l39 -96q10 -25 -12 -35q-4 -2 -10 -2q-21 1 -25 17zM682 57q-8 27 16 33q12 6 27 -4q12 12 27 4q10 -4 15 -14t1 -19l-16 -37q-5 -14 -17 -20h-18q-4 2 -8 6q-2 0 -2 2l-5 4q-2 2 -2 4zM760 174l39 96q10 23 35 13q25 -12 14 -33l-41 -96q-4 -16 -23 -17 q-8 0 -10 2q-23 10 -14 35zM840 362l39 97q12 25 34 16q25 -10 15 -35l-41 -96q-3 -14 -23 -14h-10q-20 12 -14 32zM922 555l39 96q12 25 32 13q25 -6 17 -33l-43 -96q-4 -16 -23 -17h-4l-6 2q-25 12 -12 35zM1001 748l39 94q12 20 37 14q20 -10 13 -35l-41 -96 q-6 -14 -25 -14q-4 0 -10 2q-23 10 -13 35zM1081 938l41 96q12 25 35 13q25 -8 12 -33l-41 -96q-2 -14 -22 -15q-6 0 -12 2q-20 6 -13 33zM1161 1128l43 95q4 10 14.5 15t18.5 1q20 -14 12 -33l-41 -96q-4 -16 -22 -16h-10q-23 10 -15 34zM1243 1319l41 96q8 25 33 12 q23 -6 14 -32l-39 -97q-10 -14 -26 -14q-7 0 -11 2q-25 8 -12 33z" />
<glyph unicode="W" horiz-adv-x="2256" d="M129 1395q-4 8 0 18t14 14q23 12 35 -12l39 -96q8 -27 -14 -33q-2 -2 -10 -2q-17 0 -23 14zM209 1202q-8 23 14 37q23 10 35 -16l39 -95q12 -23 -14 -34h-11q-12 0 -22 16zM289 1014q-4 10 1 20t15 13q25 12 33 -13l39 -96q6 -10 2 -19.5t-14 -13.5q-4 -2 -11 -2 q-16 1 -24 15zM373 821q-12 23 12 35q27 8 33 -14l39 -94q12 -23 -13 -35q-2 -2 -10 -2q-16 0 -22 14zM451 650q4 9 14 14q20 14 35 -13l41 -96q8 -25 -17 -35h-4q-2 -2 -6 -2q-14 1 -22 17l-39 96q-6 10 -2 19zM532 440q-10 25 13 35q23 6 35 -16l41 -97q8 -18 -17 -32h-10 q-15 0 -23 14zM612 250q-8 23 15 33q20 10 32 -13l41 -96q10 -23 -14 -35q-4 -2 -10 -2q-15 1 -25 17zM692 57q-8 27 15 33q12 6 26 -4l2 4q6 23 33 14q23 -10 14 -34l-22 -50q-4 -12 -15 -20h-10h-4h-6q-12 6 -16 18zM774 168q-4 10 0 18l41 97q12 23 33 12q23 -6 14 -33 l-39 -96q-10 -16 -26 -16q-5 0 -9 4q-10 4 -14 14zM854 379l41 92q12 27 35 16q23 -12 12 -32l-39 -97q-10 -16 -22 -16h-11q-25 14 -16 37zM934 567l41 97q12 27 35 12q25 -8 12 -33l-39 -96q-8 -16 -22 -17q-4 0 -7 2l-4 3q-25 6 -16 32zM1014 760l43 96q8 25 33 12 q10 -4 14 -13t-2 -19l-39 -97q-6 -16 -23 -16q-8 0 -10 2q-25 12 -16 35zM1096 952l41 95q8 23 30 14q18 0 25 -14l41 -95q6 -25 -16 -34q-2 -2 -11 -3q-16 1 -22 15l-21 47l-18 -47q-8 -14 -25 -15q-6 0 -10 3q-25 12 -14 34zM1223 855q4 9 14 13q25 10 35 -12l41 -96 q12 -23 -17 -35q-2 -2 -10 -2q-16 0 -22 16l-39 97q-6 10 -2 19zM1305 643q-8 27 14 33q20 12 33 -12l41 -97q4 -8 0 -18t-15 -14q-2 0 -5 -2.5t-5 -2.5q-13 1 -25 17zM1384 455q-8 23 15 32q10 4 20.5 -1t12.5 -15l41 -92q8 -23 -15 -37h-10q-15 0 -25 16zM1466 262 q-12 25 13 33q25 12 32 -12l43 -97q8 -25 -16 -32q-2 -4 -8 -4q-19 0 -25 16zM1546 70q-10 25 13 34q25 8 34 -14v-4q14 10 29 4q25 -8 12 -33l-16 -37q-4 -12 -14 -20h-21q-12 6 -16 18zM1626 174l41 96q12 25 34.5 12.5t12.5 -32.5l-39 -96q-6 -16 -22 -17q-9 0 -11 2 q-23 10 -16 35zM1706 362l43 97q8 25 33 16q25 -12 12 -35l-39 -96q-6 -14 -22 -14h-11q-23 14 -16 32zM1788 555l41 96q4 10 13 14.5t20 -1.5q27 -8 14 -33l-39 -96q-12 -16 -25 -17q-2 0 -5 1t-5 1q-25 12 -14 35zM1870 748l39 94q10 23 35 14q25 -12 12 -35l-39 -96 q-8 -14 -23 -14q-8 0 -12 2q-25 12 -12 35zM1950 938l39 96q12 25 34 13q10 -4 14.5 -14.5t0.5 -18.5l-41 -96q-6 -14 -23 -15q-8 0 -10 2q-27 8 -14 33zM2032 1128l39 95q2 10 12 15t20 1q23 -14 17 -37l-43 -92q-7 -16 -23 -16h-10q-25 12 -12 34zM2111 1319l39 96 q8 25 33 12q25 -6 17 -32l-41 -97q-10 -14 -25 -14q-8 0 -10 2q-25 8 -13 33z" />
<glyph unicode="X" horiz-adv-x="1478" d="M160 41l59 84q16 20 37 4q23 -16 4 -35l-59 -84q-4 -10 -21 -10q-10 0 -14 6q-27 10 -6 35zM160 1389q-16 25 6 36q16 14 35 -4l28 -43q8 -8 6 -19t-10 -16q-8 -6 -16 -6q-5 1 -21 11zM250 1266q-18 23 6 34q20 16 37 -4l59 -84q20 -25 -6 -34q-2 -6 -14 -7q-15 1 -23 11 zM277.5 187.5q-1.5 11.5 5.5 19.5l59 84q16 18 35 8q25 -16 8 -37l-61 -86q-16 -10 -21 -10q-8 0 -16 6q-8 4 -9.5 15.5zM373 1100q-14 16 4 35q25 14 37 -7l61 -84q16 -20 -6 -36q-8 -4 -14 -4q-15 0 -21 10zM403 377l62 82q14 18 37 6q18 -14 6 -37l-64 -84 q-6 -10 -20 -10q-10 0 -14 6q-18 14 -7 37zM494 930q-12 23 6 37q23 14 37 -4l61 -86q14 -18 -6 -37q-4 -2 -14 -2q-17 0 -21 10zM526 543l62 84q14 18 37 6q20 -16 4 -37l-62 -86q-14 -10 -20 -10q-4 0 -9.5 3t-7.5 3q-16 16 -4 37zM616 762q-16 23 9 37q18 18 32 -6 l25 -35l27 35q16 27 36 6q18 -14 7 -37l-35 -49l2 -2q14 -23 -4 -37q-12 -4 -17 -4q-10 0 -14 2q-6 -2 -16 -2q-9 0 -13 4q-23 14 -8 37l4 4zM741 596q-20 20 4 37q16 14 37 -6l60 -84q16 -20 -6 -37q-12 -6 -15 -6q-10 0 -20 10zM772 877l59 86q16 20 37 4q25 -16 4 -37 l-59 -82q-6 -10 -20 -10q-11 0 -17 2q-23 18 -4 37zM862 428q-18 23 6 37q23 14 35 -6l64 -82q12 -23 -9 -37q-2 -6 -16 -6q-10 0 -20 10zM893 1044l59 84q18 20 37 7q23 -18 8 -35l-61 -86q-10 -10 -23 -10q-6 0 -14 4q-23 16 -6 36zM985 262q-14 18 4 37q23 12 37 -8 l61 -84q6 -8 5.5 -19.5t-9.5 -15.5q-10 -6 -16 -6t-20 10zM1016 1212l61 84q14 18 37 4q20 -12 4 -34l-61 -84q-4 -10 -21 -11q-10 1 -16 7q-20 12 -4 34zM1106 94q-14 18 6 35q23 16 35 -4l63 -84q14 -23 -6 -35q-4 -6 -14 -6q-15 0 -23 10zM1137 1378l30 43q14 18 37 4 q18 -14 6 -36l-30 -41q-16 -10 -23 -11q-8 0 -14 6q-23 14 -6 35z" />
<glyph unicode="Y" horiz-adv-x="1236" d="M121 1389q-16 25 6 36q16 14 35 -4l14 -20q18 -20 -6 -37q-6 -6 -14.5 -6t-22.5 10zM197 1286q-16 20 4 37q25 10 37 -6l61 -86q14 -18 -4 -33q-6 -6 -16.5 -6t-20.5 10zM317 1118q-12 20 7 35q23 18 36 -4l62 -84q14 -23 -6 -35q-6 -6 -15 -6q-16 0 -20 10zM440 952 q-16 20 9 35q16 14 34 -4l60 -86q14 -18 -4 -37q-12 -4 -17 -4q-12 0 -20 12zM565 782q-18 23 4 37q18 14 37 -6l43 -61l45 61q16 20 37 6t4 -37l-59 -82v-79q0 -27 -27 -27q-24 0 -24 27v79zM625 27v73q0 27 24 27q27 0 27 -27v-73q0 -27 -27 -27q-24 0 -24 27zM625 205 v104q0 25 24 25q27 0 27 -25v-104q0 -27 -27 -27q-24 0 -24 27zM625 412v104q0 27 24 27q27 0 27 -27v-104q0 -25 -27 -25q-24 0 -24 25zM756 897l59 86q18 18 37 4q23 -16 8 -35l-63 -84q-6 -12 -21 -12q-6 0 -14 4q-20 20 -6 37zM879 1065l61 84q14 20 37 4q18 -14 4 -35 l-61 -84q-8 -10 -21 -10q-6 0 -16 6q-20 12 -4 35zM999 1231l64 86q10 18 35 6q23 -16 6 -37l-64 -84q-6 -10 -20 -10q-10 0 -14 6q-20 16 -7 33zM1122 1401l15 20q18 18 37 4q23 -14 6 -36l-15 -21q-10 -10 -20 -10q-5 0 -17 6q-20 14 -6 37z" />
<glyph unicode="Z" horiz-adv-x="1366" d="M156 41l59 84q16 20 37 4q23 -16 4 -35l-59 -84q-4 -10 -21 -10q-10 0 -14 6q-27 10 -6 35zM225 27q0 25 27 24h104q8 0 16.5 -7t8.5 -17q0 -27 -25 -27h-104q-27 0 -27 27zM225 1405q0 27 27 27h104q25 0 25 -27q0 -10 -8.5 -18.5t-16.5 -8.5h-104q-27 0 -27 27z M279 207l59 84q16 18 35 8q25 -16 8 -37l-62 -86q-16 -10 -20 -10q-8 0 -16 6q-23 12 -4 35zM399 377l62 82q14 18 37 6q18 -14 6 -37l-64 -84q-6 -10 -20 -10q-10 0 -14 6q-18 14 -7 37zM434 27q0 25 25 24h104q10 0 17.5 -7t7.5 -17q0 -27 -25 -27h-104q-25 0 -25 27z M434 1405q0 27 25 27h104q25 0 25 -27q0 -10 -8.5 -18.5t-16.5 -8.5h-104q-25 0 -25 27zM522 543l62 84q14 18 37 6q20 -16 4 -37l-62 -86q-14 -10 -20 -10q-4 0 -9.5 3t-7.5 3q-16 16 -4 37zM641 27q0 25 25 24h104q10 0 18.5 -8t8.5 -16q0 -27 -27 -27h-104q-25 0 -25 27z M641 1405q0 27 25 27h104q27 0 27 -27q0 -8 -9.5 -17.5t-17.5 -9.5h-104q-25 0 -25 27zM643 711l62 82q16 27 36 6q18 -14 7 -37l-60 -82q-8 -10 -24 -10q-9 0 -13 4q-23 14 -8 37zM768 877l59 86q16 20 37 4q25 -16 4 -37l-59 -82q-6 -10 -21 -10q-10 0 -16 2q-23 18 -4 37 zM847.5 1405q0.5 27 26.5 27h103q27 0 27 -27q0 -10 -8.5 -18.5t-18.5 -8.5h-103q-27 0 -26.5 27zM848 27q0 25 26 24h103q10 0 18.5 -7t8.5 -17q0 -27 -27 -27h-103q-27 0 -26 27zM889 1044l59 84q18 20 37 7q23 -18 8 -35l-61 -86q-10 -10 -23 -10q-6 0 -14 4 q-23 16 -6 36zM1012 1212l61 84q14 18 37 4q20 -12 4 -34l-61 -84q-4 -10 -21 -11q-10 1 -16 7q-20 12 -4 34zM1054.5 1405q0.5 27 26.5 27h105q20 0 24 -23v-4v-4q0 -4 -4 -12l-30 -41q-16 -10 -23 -11q-8 0 -14 6q-18 18 -6 35h-52q-27 0 -26.5 27zM1055 27q0 25 26 24 h105q10 0 17 -7t7 -17q1 -27 -24 -27h-105q-27 0 -26 27z" />
<glyph unicode="[" horiz-adv-x="880" d="M201 -8q0 29 30 28q29 0 29 -28v-119q0 -4 -2 -8h92q29 0 29 -29q0 -31 -29 -31h-119q-12 0 -21 9.5t-9 21.5t6 19q-6 10 -6 18v119zM201 111v118q0 29 30 29q29 0 29 -29v-118q0 -31 -29 -31q-12 0 -21 9.5t-9 21.5zM201 348v117q0 12 9 21.5t21 9.5q29 0 29 -31v-117 q0 -31 -29 -31q-12 0 -21 9.5t-9 21.5zM201 584v118q0 12 9 21.5t21 9.5q29 0 29 -31v-118q0 -29 -29 -29q-30 0 -30 29zM201 821v119q0 12 9 21.5t21 9.5q29 0 29 -31v-119q0 -29 -29 -28q-30 -1 -30 28zM201 1059v119q0 29 30 28q29 0 29 -28v-119q0 -29 -29 -29 q-30 0 -30 29zM201 1296v119q0 25 26 29h4h5h114q29 0 29 -29q0 -31 -29 -31h-90v-88q0 -31 -29 -30q-12 0 -21 9t-9 21zM438 -164q0 29 31 29h51q31 0 31 -29q0 -12 -9.5 -21.5t-21.5 -9.5h-51q-12 0 -21.5 9.5t-9.5 21.5zM438 1415q0 29 31 29h51q31 0 31 -29 q0 -12 -9.5 -21.5t-21.5 -9.5h-51q-12 0 -21.5 9.5t-9.5 21.5z" />
<glyph unicode="\" horiz-adv-x="917" d="M131 37l16 41q10 25 35 14q10 -4 14.5 -14t0.5 -19l-17 -43q-10 -16 -26 -16q-7 0 -9 2q-25 12 -14 35zM190 174l39 94q4 10 14.5 15.5t18.5 1.5q23 -14 17 -37l-43 -92q-4 -18 -23 -19l-4 2h-6q-23 10 -13 35zM270 365l39 96q8 25 33 12q25 -8 16 -33l-41 -96 q-6 -16 -24 -16q-8 0 -10 4q-25 8 -13 33zM350 557l39 94q12 20 33 15q25 -8 16 -35l-41 -94q-6 -16 -24 -17q-7 0 -11 2q-23 10 -12 35zM430 748l39 94q14 23 37 14q25 -8 12 -33l-41 -96q-4 -16 -24 -16h-11q-18 12 -12 37zM510 936l39 96q16 23 37 12q25 -8 12 -32 l-41 -97q-4 -14 -22 -14q-2 0 -5.5 1t-5.5 1q-23 10 -14 33zM590 1128l43 97q6 20 33 12q23 -12 12 -33l-41 -96q-4 -16 -23 -16q-6 0 -10 2q-23 10 -14 34zM672 1319l41 96q8 25 32 12q23 -6 15 -32l-43 -97q-2 -14 -23 -14q-6 0 -10 2q-23 12 -12 33z" />
<glyph unicode="]" horiz-adv-x="880" d="M113 -164q0 29 30 29h52q31 0 30 -29q0 -12 -9 -21.5t-21 -9.5h-52q-12 0 -21 9.5t-9 21.5zM113 1415q0 29 30 29h52q31 0 30 -29q0 -12 -9 -21.5t-21 -9.5h-52q-12 0 -21 9.5t-9 21.5zM285 -164q0 29 28 29h93q-2 4 -3 8v119q0 29 29 28q31 0 31 -28v-119q0 -8 -6 -18 q6 -6 6 -18.5t-9.5 -22t-21.5 -9.5h-119q-29 0 -28 31zM285 1415q0 29 28 29h115h4h4q27 -4 27 -29v-119q0 -12 -9.5 -21t-21.5 -9q-29 0 -29 30v88h-90q-29 0 -28 31zM403 111v118q0 29 29 29q31 0 31 -29v-118q0 -12 -9.5 -21.5t-21.5 -9.5q-29 0 -29 31zM403 348v117 q0 31 29 31q12 0 21.5 -9.5t9.5 -21.5v-117q0 -12 -9.5 -21.5t-21.5 -9.5q-29 0 -29 31zM403 584v118q0 31 29 31q12 0 21.5 -9t9.5 -22v-118q0 -29 -31 -29q-29 0 -29 29zM403 821v119q0 31 29 31q12 0 21.5 -9.5t9.5 -21.5v-119q0 -29 -31 -28q-29 0 -29 28zM403 1059v119 q0 29 29 28q31 0 31 -28v-119q0 -29 -31 -29q-29 0 -29 29z" />
<glyph unicode="_" horiz-adv-x="1228" d="M-49 23q0 23 14 22h60q16 0 16 -22q0 -20 -16 -21h-60q-14 0 -14 21zM70 23q0 23 14 22h59q16 0 17 -22q0 -20 -17 -21h-59q-14 0 -14 21zM188 23q0 23 15 22h59q16 0 17 -22q0 -20 -17 -21h-59q-14 0 -15 21z" />
<glyph unicode="a" horiz-adv-x="1267" d="M82 502v45q4 25 29 24q12 -2 19 -10t3 -18v-41q0 -39 4 -58q5 -20 -24 -28h-2q-18 0 -27 22q-2 20 -2 64zM102 653q12 45 41 101q12 18 37 12q16 -14 10 -39q-27 -47 -38 -90q-4 -16 -25 -16h-6q-23 8 -19 32zM109 334q-8 27 18 31q23 8 29 -17q14 -43 43 -86 q10 -23 -9 -37q-6 -2 -14 -2q-14 0 -22 10q-31 57 -45 101zM205 842q31 35 82 76q25 12 35 -7q16 -23 -5 -34q-26 -21 -73 -68q-6 -8 -17 -8q-14 0 -18 4q-14 18 -4 37zM219 147q-18 16 2 37q19 18 37 0q20 -29 72 -65q23 -12 8 -35q-4 -12 -21 -12q-10 0 -16 6 q-35 23 -82 69zM369 934q-10 20 12 37q57 23 106 28q25 4 29 -20q4 -27 -20 -31q-58 -10 -95 -26q-2 0 -5 -1t-5 -1q-12 0 -22 14zM385 59q4 10 14.5 14.5t18.5 0.5q49 -15 94 -23q27 0 23 -28q-8 -23 -27 -23h-2q-70 12 -107 27q-25 8 -14 32zM567 979q4 27 29 27 q57 -10 106 -25q25 -6 17 -33q-8 -18 -25 -18q-2 0 -4 2t-4 2q-61 16 -96 18q-23 0 -23 27zM586 23q-4 27 22 32q41 3 94 23q8 4 18.5 -1t14.5 -16q4 -8 -1 -18t-15 -14q-45 -16 -105 -27h-2q-23 0 -26 21zM766 924q14 25 33 10q49 -31 86 -68q18 -18 0 -37q-7 -8 -19 -8 q-10 0 -18 8q-25 25 -74 62q-25 14 -8 33zM782 88q-16 14 4 35q43 28 74 63q16 16 39 2q18 -18 0 -36q-35 -41 -84 -72q-6 -6 -12 -6q-16 0 -21 14zM909 752q-14 20 6 36q23 12 37 -8q2 -4 29 -49v41q0 27 25 27q27 0 26 -27v-102q0 -27 -26 -27q-10 0 -17 6h-2h-10 q-23 0 -25 15q-37 78 -43 88zM920 266q29 57 38 88q4 18 25 19q9 12 23 12q27 0 26 -27v-102q0 -27 -26 -27q-25 0 -25 27v18q-2 -4 -9 -16t-9 -18q-8 -12 -25 -13q-6 0 -12 2q-18 14 -6 37zM981 49v103q0 26 25 26q27 0 26 -26v-103q0 -10 -8 -18t-18 -8q-25 0 -25 26z M981 463v102q0 27 25 27q27 0 26 -27v-102q0 -27 -26 -27q-25 0 -25 27zM981 877v102q0 27 25 27q27 0 26 -27v-102q0 -27 -26 -27q-25 0 -25 27z" />
<glyph unicode="b" horiz-adv-x="1351" d="M190 57v105q0 25 27 24q25 0 25 -24v-105q0 -27 -25 -26q-10 0 -18.5 8t-8.5 18zM190 264v105q0 27 27 26q25 0 25 -26v-39q2 2 4 2q25 12 33 -13q0 -8 6 -16q8 -27 -15 -33h-4q-4 -2 -6 -2q-12 0 -18 6v-10q0 -25 -25 -24q-10 0 -18.5 7t-8.5 17zM190 473v105 q0 25 27 24q25 0 25 -24v-105q0 -27 -25 -27q-27 0 -27 27zM190 680v104q0 27 27 27q25 0 25 -27v-67q18 37 45 69q14 25 32 9q25 -16 9 -37q-31 -37 -49 -86q-2 -14 -23 -15q-8 0 -10 2q-10 4 -10 7q-6 -10 -19 -11q-10 0 -18.5 7.5t-8.5 17.5zM190 889v102q0 27 27 27 q25 0 25 -27v-102q0 -27 -25 -27q-27 0 -27 27zM190 1096v104q0 27 27 27q25 0 25 -27v-104q0 -27 -25 -27q-10 0 -18.5 8.5t-8.5 18.5zM190 1305v102q0 27 27 27q25 0 25 -27v-102q0 -27 -25 -27q-27 0 -27 27zM291 190q-14 23 6 35q23 14 37 -4q29 -37 67 -69 q18 -20 2 -37q-8 -10 -18 -11q-6 1 -18 5q-39 39 -76 81zM356 834q-16 18 2 36q39 33 91 62q20 14 34 -10q14 -23 -10 -37q-47 -25 -80 -54q-8 -8 -18.5 -7.5t-18.5 10.5zM449 86q10 18 34 10q39 -23 92 -35q23 -4 19 -30q-6 -20 -27 -21q-2 0 -6 2q-53 12 -102 37 q-20 16 -10 37zM532 940q-6 27 19 31q55 16 106 16q29 0 29 -24q0 -10 -7 -18.5t-17 -8.5q-43 0 -97 -14h-8q-17 0 -25 18zM645 27q0 10 8.5 17t18.5 7q41 0 96 10q23 10 31 -16q6 -25 -19 -33q-70 -12 -108 -12q-27 0 -27 27zM739 958q4 23 31 19q68 -16 100 -37 q27 -8 15 -33q-12 -16 -25 -16l-4 2h-6q-37 20 -94 35q-27 4 -17 30zM848 61q-8 20 10 37q49 23 82 56q23 14 37 -7q14 -18 -2 -34q-41 -35 -90 -62q-6 -2 -15 -2q-14 0 -22 12zM928 879q14 23 37 4q43 -35 77 -78q14 -20 -6 -37q-4 -4 -14 -4q-15 0 -21 8q-33 41 -71 70 q-18 18 -2 37zM1006 223q31 39 49 86q14 23 37 13q20 -14 12 -37q-27 -55 -57 -92q-6 -10 -21 -11q-6 0 -14 4q-23 16 -6 37zM1053 688q-14 20 10 37q25 8 37 -14q20 -47 37 -103q4 -27 -23 -30h-4q-25 0 -27 20q-12 49 -30 90zM1085 403q12 57 13 91v4q-2 12 5 19t17 7 q25 0 29 -26v-4q0 -20 -10 -103q-4 -20 -27 -20h-4q-27 6 -23 32z" />
<glyph unicode="c" horiz-adv-x="1169" d="M119 504q0 31 4 47q0 23 24 22q25 -4 25 -26v-43v-58q0 -23 -20 -26h-5q-24 -1 -24 24q-4 16 -4 60zM143 657q6 23 45 99q12 18 37 10q20 -16 6 -37q-35 -70 -41 -88q-2 -18 -22 -18h-6q-27 8 -19 34zM147 338q-8 27 17 31q25 10 29 -17q27 -57 45 -86q14 -16 -9 -35 q-8 -4 -12 -4q-16 1 -24 13q-31 49 -46 98zM248 822.5q0 11.5 4 19.5q35 35 84 69q20 14 35 -4q14 -23 -4 -37q-53 -41 -76 -63q-6 -8 -17 -8q-12 0 -20 8q-6 4 -6 15.5zM260 156q-16 16 0 34q20 20 37 0q39 -39 78 -61q16 -14 4 -37q-2 -10 -21 -10q-10 0 -12 2 q-45 31 -86 72zM418 930q-8 25 12 35q94 27 105 28q27 8 30 -20q0 -20 -20 -29q-45 -10 -92 -29h-13q-20 1 -22 15zM426 70q8 25 33 12q61 -20 96 -27q23 -4 18 -26q0 -25 -24 -25h-2l-2 2q-29 6 -105 29q-23 14 -14 35zM614 979q0 25 27 25q74 -4 109 -11q10 -4 15 -14 t3 -18q-4 -20 -25 -21h-6q-20 6 -96 14q-27 0 -27 25zM627 25q0 29 24 28q55 0 97 10q27 8 30 -18q4 -23 -18 -31q-49 -14 -107 -14q-26 0 -26 25zM817 944q18 23 37 10q55 -25 92 -53q8 -4 9 -15.5t-5 -19.5q-4 -10 -20 -10q-7 0 -15 4q-51 35 -86 49q-23 10 -12 35z M829 63q-12 20 11 35q39 16 84 52q18 12 34 -5q14 -23 -4 -36q-37 -33 -94 -56q-2 -4 -10 -4q-19 0 -21 14z" />
<glyph unicode="d" horiz-adv-x="1351" d="M123 494v4q0 27 27 26q25 0 24 -26v-4q0 -18 10 -91q6 -25 -20 -32h-4q-23 0 -27 20q-10 82 -10 103zM135 608q12 53 37 103q10 23 35 14q25 -16 12 -37q-18 -41 -31 -90q-6 -20 -26 -20h-6q-25 4 -21 30zM168 285q-8 23 12 37q25 12 33 -13q25 -47 49 -86q23 -18 -4 -37 q-4 -4 -16.5 -3.5t-20.5 10.5q-29 41 -53 92zM229 805q35 43 78 78q20 16 36.5 -4.5t-5.5 -36.5q-39 -37 -68 -70q-6 -8 -20 -8q-10 0 -14 4q-20 14 -7 37zM295 147q16 23 35 7q35 -31 82 -56q23 -14 12 -37q-8 -12 -23 -12q-8 0 -14 2q-49 27 -90 62q-18 18 -2 34zM387 907 q-12 25 10 33q45 23 105 37q27 4 30 -19q6 -27 -18 -30q-55 -14 -92 -35h-4q-4 -2 -6 -2q-17 0 -25 16zM471 45q8 27 33 16q47 -10 96 -10q10 0 18.5 -7t8.5 -17q0 -27 -27 -27q-39 0 -108 12q-25 6 -21 33zM586 963q0 25 24 24q55 0 111 -16q25 -4 18 -31q-8 -18 -24 -18 h-8q-53 14 -97 14q-25 0 -24 27zM678 31q-2 10 3 19t15 11q59 16 92 35q25 8 35 -10q10 -20 -12 -37q-45 -25 -100 -37q-4 -2 -9 -2q-18 1 -24 21zM788 922q12 27 33 10q51 -27 92 -62q20 -18 2 -36q-8 -10 -20 -11q-8 0 -16 8q-49 39 -80 54q-25 14 -11 37zM866 115 q-14 18 4 37q39 33 68 69q14 18 37 4q8 -4 9 -15t-5 -20q-31 -39 -74 -81q-12 -4 -18 -5q-15 1 -21 11zM944 758q-14 18 4 37q25 14 37 -9q16 -23 45 -71v69q0 27 25 27q27 0 26 -27v-104q0 -10 -8 -17.5t-18 -7.5q-14 0 -21 11q-2 -2 -8 -7q-4 -2 -10 -2q-21 1 -23 15 q-23 49 -49 86zM987 303q2 2 6 16q8 25 33 13q2 -2 4 -2v39q0 27 25 26q27 0 26 -26v-105q0 -10 -8 -17t-18 -7q-25 -1 -25 24v10q-6 -6 -18 -6q-2 0 -6 2h-5q-23 6 -14 33zM1030 57v105q0 25 25 24q27 0 26 -24v-105q0 -10 -8 -18t-18 -8q-25 -1 -25 26zM1030 473v105 q0 25 25 24q27 0 26 -24v-105q0 -27 -26 -27q-25 0 -25 27zM1030 889v102q0 27 25 27q27 0 26 -27v-102q0 -27 -26 -27q-25 0 -25 27zM1030 1096v104q0 27 25 27q27 0 26 -27v-104q0 -10 -8 -18.5t-18 -8.5q-25 0 -25 27zM1030 1305v102q0 27 25 27q27 0 26 -27v-102 q0 -27 -26 -27q-25 0 -25 27z" />
<glyph unicode="e" horiz-adv-x="1247" d="M121 543q6 59 20 104q6 27 33 19q20 -4 16 -31q-12 -39 -16 -78h90q27 0 27 -24.5t-27 -24.5h-100q-12 0 -19 6q-29 8 -24 29zM125 434q-6 29 22 29q10 2 18.5 -5t8.5 -16q4 -39 23 -96q6 -20 -17 -33h-6q-20 1 -24 17q-18 49 -25 104zM182 748q23 41 64 90q14 16 35 4 q18 -18 2 -39q-14 -16 -58 -78q0 -16 -18 -16q-2 0 -14 6q-25 12 -11 33zM197 231q-14 25 6 37q23 10 37 -8q18 -37 59 -78q16 -18 -2 -37q-6 -6 -16 -6q-15 0 -21 6q-47 55 -63 86zM319 874q-16 25 7 35q29 23 94 56q25 12 33 -13q10 -25 -13 -34q-27 -10 -86 -48 q-6 -6 -14 -6q-13 0 -21 10zM338 113q12 23 37 8q39 -29 84 -43q10 -4 14 -14.5t0 -18.5q-2 -18 -22 -18l-5 2h-6q-61 23 -94 49q-25 10 -8 35zM342 532.5q0 24.5 27 24.5h102q27 0 27 -24.5t-27 -24.5h-102q-27 0 -27 24.5zM502 965q-4 27 20 30q57 8 82 9q18 0 27 -5 q25 0 24 -24q-4 -27 -28 -27q-6 4 -23 4q-27 0 -72 -8h-6q-20 1 -24 21zM526 31q0 25 27 24q16 -4 51 -4q33 0 45 4q27 0 27 -24q2 -10 -4 -19.5t-17 -9.5q-16 -2 -51 -2q-39 0 -59 2q-25 8 -19 29zM548.5 532.5q0.5 24.5 24.5 24.5h103q27 0 26.5 -24.5t-26.5 -24.5h-103 q-25 0 -24.5 24.5zM709 965q4 27 30 18q63 -23 101 -41q18 -12 10 -37q-10 -12 -22.5 -12t-14.5 2q-53 27 -90 39q-25 8 -14 31zM727 41q-6 25 16 33q31 10 88 43q25 12 35 -11q16 -16 -6 -32q-55 -31 -98 -47h-10q-19 0 -25 14zM753.5 532.5q0.5 24.5 24.5 24.5h105 q25 0 25 -24.5t-25 -24.5h-105q-25 0 -24.5 24.5zM889 838q-18 18 0 36.5t39 2.5q31 -31 71 -82q14 -23 -10 -37q-8 -4 -14 -4q-13 0 -21 12q-31 45 -65 72zM905 141q-18 18 0 37q39 39 62 78q16 16 37 6q20 -12 8 -35q-29 -41 -70 -86q-2 -8 -18 -8q-11 0 -19 8z M960.5 532.5q0.5 24.5 24.5 24.5h78q27 0 27 -24.5t-27 -24.5h-78q-25 0 -24.5 24.5zM1004 682q-12 20 12 32.5t35 -16.5q18 -45 28 -102q8 -23 -18 -31h-6q-19 1 -27 21q-4 35 -24 96z" />
<glyph unicode="f" horiz-adv-x="741" d="M133 983q0 25 25 25h104q27 0 27 -25q0 -27 -27 -27h-104q-25 0 -25 27zM289 27v102q0 27 26.5 27t26.5 -27v-102q0 -27 -26.5 -27t-26.5 27zM289 233v105q0 24 26.5 24t26.5 -24v-105q0 -27 -26.5 -26.5t-26.5 26.5zM289 440v105q0 26 26.5 26t26.5 -26v-105 q0 -25 -26.5 -24.5t-26.5 24.5zM289 649v103q0 26 26.5 26t26.5 -26v-103q0 -27 -26.5 -26.5t-26.5 26.5zM289 856v105q0 24 26.5 24t26.5 -24v-105q0 -27 -26.5 -27t-26.5 27zM289 1065v80v24q4 25 26 25q27 0 27 -27v-22v-80q0 -27 -26.5 -27t-26.5 27zM303 1278 q20 66 57 100q18 18 37 0q18 -23 -2 -37q-27 -27 -41 -77q-6 -18 -24 -19h-8q-23 8 -19 33zM340 983q0 25 27 25h102q27 0 27 -25q0 -27 -27 -27h-102q-27 0 -27 27zM446 1399q-4 8 3.5 17t17.5 11q35 7 72 7q27 0 26 -27q0 -25 -26 -25q-33 0 -64 -6h-4q-20 0 -25 23z" />
<glyph unicode="g" horiz-adv-x="1351" d="M123 457q0 25 22 28q29 0 29 -24q8 -66 19 -96q8 -27 -19 -31q-2 -4 -6 -4q-21 0 -25 20q-18 61 -20 107zM125 567q10 61 27 107q2 10 12 14t18 0q25 -6 17 -33q-14 -41 -21 -96q-6 -20 -26 -20h-2q-29 0 -25 28zM182 250q-8 27 15 33q18 14 32 -11q33 -57 56 -79 q18 -18 -4 -37q-6 -6 -15 -6q-14 0 -20 10q-41 49 -64 90zM197 772q37 53 65 86q18 16 37 2q20 -20 0 -39q-33 -35 -59 -78q-2 -10 -21 -10q-10 0 -12 2q-25 14 -10 37zM319 121q14 23 37 4q49 -35 84 -49q25 -10 15 -33q-8 -16 -25 -16q-2 0 -4 2h-4q-55 27 -96 55 q-18 14 -7 37zM338 893q-12 18 8 35q51 35 98 49q25 10 35 -16q4 -10 -2 -19.5t-14 -11.5q-55 -23 -88 -43q-10 -6 -13 -6q-12 0 -24 12zM449 -379q8 23 32 19q49 -16 97 -17q29 -4 22 -29q0 -23 -22 -22h-3q-37 0 -110 16q-23 8 -16 33zM504 29q8 27 28 20q49 -4 68 -4h33 q23 4 26 -25q0 -23 -24 -28h-35q-6 0 -74 6q-27 4 -22 31zM528 975q0 20 23 29q16 2 49 2q35 0 59 -7q12 0 19.5 -8t5.5 -18q-4 -25 -27 -25h-2q-6 0 -17 2t-20.5 3t-17.5 1q-29 0 -43 -4q-25 -4 -29 25zM653 -401q-2 10 4.5 19t16.5 11q41 6 92 29q25 6 37 -12 q10 -25 -15 -35q-47 -23 -104 -33h-6q-21 1 -25 21zM711 31q-6 25 16 35q51 16 90 40q16 12 33 -8q16 -25 -8 -35q-49 -33 -99 -47h-2q-4 -2 -6 -2q-18 1 -24 17zM733 958q10 25 33 17q55 -27 96 -55q23 -12 8 -37q-10 -10 -20 -11q-2 0 -8 3.5t-8 3.5q-29 20 -84 47 q-10 4 -15.5 14t-1.5 18zM848 -330q-14 25 4 37q41 33 72 68q18 18 34 2q25 -14 7 -37q-37 -41 -80 -74q-8 -6 -17 -6q-10 0 -20 10zM891 131q-18 16 0 35q37 37 63 78q2 8 13.5 11t19.5 -3q23 -12 8 -37q-29 -49 -67 -84q-6 -8 -19 -8q-10 0 -18 8zM907 813q-18 18 2 37 q16 18 37 -2q47 -57 66 -88q8 -27 -11 -35q-12 -4 -14 -4q-16 0 -22 12q-27 45 -58 80zM974 -165q-3 9 3 20q23 37 35 94q4 23 30 18q27 -8 19 -30q-12 -55 -37 -105q-10 -14 -23 -14q-8 0 -14 4q-10 4 -13 13zM1024 45v4v101q0 25 27 24q10 0 17 -7t7 -17v-101v-4 q0 -27 -24 -27q-27 0 -27 27zM1024 252v104q0 27 27 27q8 0 16 -8t8 -19v-104q0 -25 -24 -25q-27 0 -27 25zM1024 461v102q0 27 27 27q10 0 17 -8.5t7 -18.5v-102q0 -27 -24 -27q-27 0 -27 27zM1024 668v104q0 27 27 27q8 0 16 -8.5t8 -18.5v-104q0 -10 -7 -18.5t-17 -8.5 q-27 0 -27 27zM1024 877v102q0 27 27 27q10 0 17 -8.5t7 -18.5v-102q0 -27 -24 -27q-27 0 -27 27z" />
<glyph unicode="h" horiz-adv-x="1255" d="M190 27v28v4v105q0 10 8.5 17t18.5 7q25 0 25 -24v-137q0 -27 -25 -27q-27 0 -27 27zM190 233v105v4v29q0 10 8.5 18t18.5 8q25 0 25 -26v-105v-6v-27q0 -27 -25 -26q-10 0 -18.5 8t-8.5 18zM190 440v105v4v29q0 27 27 26q25 0 25 -26v-103v-6v-29q0 -25 -25 -24 q-10 0 -18.5 7t-8.5 17zM190 682v104q0 10 8.5 17.5t18.5 7.5q25 0 25 -25v-12q8 0 14 -2q25 -8 12 -33q-16 -47 -22 -94q0 -22 -27 -22h-2q-25 4 -24 30q0 8 2 13q-4 4 -5 16zM190 889v104q0 10 8.5 17.5t18.5 7.5q25 0 25 -25v-104q0 -25 -25 -25q-27 0 -27 25zM190 1096 v104q0 10 8.5 18.5t18.5 8.5q25 0 25 -27v-104q0 -25 -25 -25q-27 0 -27 25zM190 1305v102q0 27 27 27q25 0 25 -27v-102q0 -27 -25 -27q-27 0 -27 27zM276 856q33 41 78 74q23 18 35 -4q20 -16 -4 -37q-33 -23 -68 -68q-12 -8 -20 -8q-10 0 -16 6q-16 14 -5 37zM436 952 q-6 20 17 33q43 16 106 27q29 0 29 -25q2 -10 -5.5 -19.5t-19.5 -9.5q-47 -2 -92 -22h-10q-17 0 -25 16zM639 985q4 25 31 21q66 -14 104 -33q23 -14 12 -37q-6 -12 -22 -12q-8 0 -10 2q-47 20 -95 28q-25 4 -20 31zM831 907q4 8 15.5 9.5t19.5 -7.5q43 -37 74 -82 q12 -20 -8 -36q-6 -2 -17 -3q-12 1 -20 11q-25 39 -61 71q-20 18 -3 37zM938 711q-10 25 14 32q23 12 35 -18q12 -41 17 -109q0 -25 -25 -24q-27 -1 -27 24q-2 37 -14 95zM952 27v71q0 27 27 27q25 0 25 -27v-71q0 -10 -7.5 -18.5t-17.5 -8.5q-27 0 -27 27zM952 203v102 q0 27 27 27q25 0 25 -27v-102q0 -10 -7.5 -18.5t-17.5 -8.5q-27 0 -27 27zM952 410v104q0 25 27 25q25 0 25 -25v-104q0 -10 -8.5 -18.5t-16.5 -8.5q-27 0 -27 27z" />
<glyph unicode="i" horiz-adv-x="575" d="M193 27v106q0 27 26.5 27t26.5 -27v-106q0 -27 -26.5 -27t-26.5 27zM193 238v106q0 27 26.5 27t26.5 -27v-106q0 -10 -8.5 -17.5t-18.5 -7.5t-18 7.5t-8 17.5zM193 451v106q0 27 26.5 27t26.5 -27v-106q0 -10 -8.5 -18.5t-18.5 -8.5t-18 8.5t-8 18.5zM193 664v104 q0 27 26.5 27t26.5 -27v-104q0 -10 -8.5 -18.5t-18.5 -8.5t-18 8.5t-8 18.5zM193 874v107q0 27 26.5 27t26.5 -27v-107q0 -10 -8.5 -18t-18.5 -8t-18 8t-8 18zM193 1255v50q0 27 26.5 27t26.5 -27v-50q0 -27 -26.5 -27t-26.5 27z" />
<glyph unicode="j" horiz-adv-x="509" d="M-10 -416q0 29 24 29h4q27 0 27 -29q0 -25 -25 -24h-6q-24 -1 -24 24zM87 -373.5q-1 11.5 7 19.5q27 33 27 69v6q0 27 24 27q29 0 29 -27v-6q0 -57 -43 -104q-6 -8 -18 -8q-11 0 -17 8q-8 4 -9 15.5zM121 39v106q0 25 24 25q29 0 29 -25v-106q0 -25 -29 -25 q-10 0 -17 7.5t-7 17.5zM121 -70q0 29 24 29q29 0 29 -29v-102q0 -27 -29 -27q-8 0 -16 8.5t-8 18.5v102zM121 248v106q0 27 24 27q29 0 29 -27v-106q0 -25 -29 -25q-10 0 -17 7.5t-7 17.5zM121 459v106q0 25 24 25q29 0 29 -25v-106q0 -27 -29 -27q-8 0 -16 8.5t-8 18.5z M121 668v106q0 25 24 25q29 0 29 -25v-106q0 -25 -29 -25q-10 0 -17 8.5t-7 16.5zM121 877v108q0 27 24 27q29 0 29 -27v-108q0 -25 -29 -25q-10 0 -17 8.5t-7 16.5zM127 1255v52q0 25 25 24q27 0 26 -24v-52q0 -27 -26 -26q-8 0 -16.5 8t-8.5 18z" />
<glyph unicode="k" horiz-adv-x="1146" d="M190 59v105q0 25 27 24q8 0 16.5 -8t8.5 -16v-105q0 -10 -7.5 -18t-17.5 -8q-27 -1 -27 26zM190 266v105q0 27 27 26q8 0 16.5 -8t8.5 -18v-27l43 45q18 16 34 0q20 -20 0 -37l-71 -76q-4 -4 -6 -4v-6q0 -25 -25 -24q-27 -1 -27 24zM190 475v103q0 27 27 26q10 0 17.5 -8 t7.5 -18v-103q0 -27 -25 -26q-27 -1 -27 26zM190 682v104q0 25 27 25q8 0 16.5 -8t8.5 -17v-104q0 -27 -25 -27q-27 0 -27 27zM190 889v104q0 25 27 25q8 0 16.5 -7t8.5 -18v-104q0 -25 -25 -25q-27 0 -27 25zM190 1096v104q0 27 27 27q8 0 16.5 -8.5t8.5 -18.5v-104 q0 -25 -25 -25q-27 0 -27 25zM190 1305v102q0 27 27 27q10 0 17.5 -8.5t7.5 -18.5v-102q0 -27 -25 -27q-27 0 -27 27zM356 426q-16 16 0 35l76 74q16 18 35 0q23 -18 0 -37l-74 -72q-8 -8 -18.5 -8t-18.5 8zM479 518q-18 23 4 37q16 18 37 -2l64 -82q20 -20 -2 -35 q-4 -6 -19 -6q-10 0 -18 8zM504 569q-18 23 0 37l74 76q16 18 34.5 0t-0.5 -37l-71 -76q-8 -6 -19 -6q-10 0 -18 6zM610 358q-16 25 6 35q16 16 35 -2l66 -80q16 -16 -2 -37q-12 -4 -19 -4q-10 1 -18 11zM649 719q-18 18 0 35l76 73q16 16 35 0q23 -18 0 -36l-72 -72 q-6 -8 -20 -8q-11 0 -19 8zM743 199q-14 20 2 37q23 14 39 -5l66 -77q10 -25 -4 -39q-6 -6 -18.5 -6t-16.5 10zM797 866q-18 14 0 37l73 72q18 16 35 0q18 -18 0 -37l-71 -72q-8 -8 -18.5 -8t-18.5 8zM874 39q-18 18 3 37q23 16 36 -4l25 -27q14 -20 -4 -37q-6 -8 -14 -8 q-11 0 -21 10z" />
<glyph unicode="l" horiz-adv-x="509" d="M205 27v106q0 27 26.5 27t26.5 -27v-106q0 -27 -26.5 -27t-26.5 27zM205 240v106q0 25 26.5 25t26.5 -25v-106q0 -27 -26.5 -27t-26.5 27zM205 451v106q0 27 26.5 27t26.5 -27v-106q0 -27 -26.5 -27t-26.5 27zM205 664v106q0 27 26.5 27t26.5 -27v-106q0 -27 -26.5 -27 t-26.5 27zM205 877v106q0 27 26.5 27t26.5 -27v-106q0 -27 -26.5 -27t-26.5 27zM205 1087v107q0 27 26.5 27t26.5 -27v-107q0 -25 -26.5 -25t-26.5 25zM205 1300v107q0 27 26.5 27t26.5 -27v-107q0 -27 -26.5 -27t-26.5 27z" />
<glyph unicode="m" horiz-adv-x="1947" d="M190 27v20v4v78v4v23q0 8 7.5 16t19.5 8q10 0 17.5 -8t7.5 -16v-23v-4v-102q0 -27 -25 -27q-27 0 -27 27zM190 231v103v4v22q0 25 27 25q25 0 25 -25v-22v-4v-103q0 -27 -25 -26q-27 -1 -27 26zM190 436v103v4v22q0 25 27 25q25 0 25 -25v-22v-4v-103q0 -25 -25 -24 q-27 -1 -27 24zM190 668v102q0 25 27 25q25 0 25 -25v-4h14q20 -10 12 -33q-23 -57 -22 -94q-9 -23 -27 -23h-2q-29 0 -24 29v8q-2 4 -3 15zM190 872v105q0 25 27 24q25 0 25 -24v-105q0 -27 -25 -26q-27 -1 -27 26zM274 846q49 53 76 76q27 14 37 -4q16 -23 -4 -37 q-41 -31 -66 -68q-10 -10 -20 -10q-4 0 -9 2t-7 2q-20 16 -7 39zM434 940q-10 27 15 33q47 20 106 26q25 4 29 -22q0 -25 -25 -29q-43 -2 -92 -20l-8 -4q-21 0 -25 16zM637 973q0 23 29 22q51 -8 102 -34q25 -8 12 -33q-6 -16 -22 -17q-9 0 -13 2q-20 12 -88 33 q-29 4 -20 27zM823 899q16 16 35 2q41 -39 74 -84q12 -23 -8 -33q-2 -4 -13 -4q-16 0 -22 8q-18 33 -64 74q-18 16 -2 37zM928 705q-4 27 18 30q12 4 21 -2q0 4 4 10.5t4 8.5q8 23 33 14q20 -10 12 -33q-16 -49 -23 -94q0 -8 -4 -12v-17q2 -10 -5 -17t-15 -7h-2 q-23 -1 -27 22q0 47 -16 97zM944 27v102q0 27 27 27q23 0 22 -27v-20q4 -8 4 -15v-67q0 -27 -22 -27h-4h-4q-23 0 -23 27zM944 231v103q0 10 8.5 18t18.5 8q23 0 22 -26v-19q4 -8 4 -12v-104q0 -10 -8 -17.5t-16 -7.5q-27 0 -27 25v20q-2 4 -2 12zM944 436v103q0 10 8.5 18 t18.5 8q23 0 22 -26v-19q4 -8 4 -12v-100q0 -12 -8 -19.5t-16 -7.5q-27 0 -27 27v18q-2 2 -2 10zM1026 846q49 53 82 76q16 14 35 -4q12 -20 -4 -37q-43 -33 -70 -68q-10 -10 -22 -10q-2 0 -7.5 2t-7.5 2q-16 16 -6 39zM1186 940q-6 25 16 33q47 20 105 26q29 4 28 -22 q4 -25 -24 -29q-41 -4 -90 -20q-2 -4 -11 -4q-14 0 -24 16zM1386 973q2 23 31 22q57 -10 105 -34q20 -6 12 -33q-6 -16 -23 -17q-8 0 -12 2q-29 18 -92 33q-25 4 -21 27zM1577 899q18 18 37 2q27 -27 72 -84q12 -20 -9 -33q-4 -4 -16.5 -4t-20.5 8q-18 33 -59 74 q-23 14 -4 37zM1683 705q-4 8 0.5 18t14.5 12q25 10 33 -14q16 -59 18 -111q0 -25 -25 -24q-26 -1 -26 22q-2 35 -15 97zM1698 27v71q0 25 26 25q8 0 16.5 -8.5t8.5 -16.5v-71q0 -27 -25 -27q-26 0 -26 27zM1698 199v104q0 27 26 27q8 0 16.5 -8.5t8.5 -18.5v-104 q0 -25 -25 -25q-26 0 -26 25zM1698 408v100q0 25 26 24q8 0 16.5 -8t8.5 -16v-100q0 -27 -25 -27q-26 0 -26 27z" />
<glyph unicode="n" horiz-adv-x="1255" d="M190 27v18v6v78v4v23q0 25 27 24q8 0 16.5 -8t8.5 -16v-23v-4v-78v-6v-18q0 -27 -25 -27q-27 0 -27 27zM190 231v103v4v22q0 25 27 25q8 0 16.5 -8t8.5 -17v-104v-6v-19q0 -25 -25 -24q-27 -1 -27 24zM190 436v105v4v20q0 27 27 27q10 0 17.5 -8.5t7.5 -18.5v-129 q0 -25 -25 -24q-27 -1 -27 24zM190 670v102q0 25 27 25q8 0 16.5 -7.5t8.5 -17.5v-4q6 0 10 -2q23 -8 16 -33q-23 -49 -22 -92q-7 -23 -27 -23h-2q-29 0 -24 29v8q-2 4 -3 15zM190 874v103q0 27 27 27q10 0 17.5 -8.5t7.5 -18.5v-103q0 -27 -25 -26q-27 -1 -27 26zM274 848 q37 43 78 76q20 16 37 -4q12 -23 -6 -37q-43 -35 -70 -68q-6 -10 -20 -10q-2 0 -7 2t-7 2q-20 20 -5 39zM436 942q-10 25 10 33q59 20 109 26q25 4 29 -24q0 -20 -23 -29q-23 0 -96 -18q-2 -4 -6 -4q-23 0 -23 16zM637 975q0 25 27 20q41 -4 106 -32q23 -8 10 -33 q-6 -16 -24 -17q-8 0 -8 2q-12 6 -93 33q-10 0 -16 8.5t-2 18.5zM823 901q16 12 37 2q41 -41 72 -84q14 -25 -8 -37q-4 -2 -13 -2q-16 1 -24 11q-16 29 -62 73q-18 14 -2 37zM928 705q-8 27 20 30q8 4 17.5 0t11.5 -14q18 -66 18 -109q0 -25 -22 -28h-2q-10 0 -18.5 7 t-8.5 17q0 47 -16 97zM944 27v67q0 27 27 27q25 0 24 -27v-67q0 -27 -24 -27q-27 0 -27 27zM944 199v102q0 27 27 27q25 0 24 -27v-102q0 -27 -24 -27q-27 0 -27 27zM944 403v105q0 25 27 24q25 0 24 -24v-105q0 -25 -24 -24q-10 0 -18.5 7t-8.5 17z" />
<glyph unicode="o" horiz-adv-x="1280" d="M143 489v13q0 55 11 94q2 10 11 17.5t17 4.5q25 -6 21 -32q-8 -57 -8 -84v-10q0 -29 -23 -29h-2q-27 -1 -27 26zM156 381q-4 23 20 31q8 4 18.5 -2.5t12.5 -16.5q12 -49 31 -92q6 -10 2 -19.5t-15 -13.5q-2 -4 -10 -4q-12 1 -22 17q-16 31 -37 100zM182 700q37 76 51 95 q12 23 37 8q20 -12 6 -37q-29 -43 -45 -84q-10 -18 -24 -18l-8 2q-27 12 -17 34zM250 188q-18 16 4 35q16 14 35 -4q14 -20 67 -74q16 -10 4 -34q-12 -8 -22 -9q-2 0 -7 2t-7 2q-49 41 -74 82zM303 842q-14 18 2 35q37 37 88 65q8 4 19.5 2t13.5 -10q12 -20 -8 -37 q-23 -12 -80 -55q-6 -8 -14 -8q-15 0 -21 8zM399 82q14 23 37 12q37 -18 90 -33q29 -4 21 -30q-4 -20 -25 -21h-6q-70 18 -102 39q-23 10 -15 33zM475 952q-8 27 19 33q49 14 106 19q27 0 27 -27q0 -25 -27 -25q-61 -8 -94 -16l-6 -2q-21 0 -25 18zM600 27q-2 8 5 16t18 8 q53 0 96 12q23 6 33 -18q0 -25 -19 -33q-74 -12 -108 -12q-25 0 -25 27zM678 973q4 25 31 20q57 -12 104 -35q23 -10 10 -34q-8 -14 -22 -15q-10 0 -10 4q-35 14 -91 31q-27 6 -22 29zM797 63q-8 20 10 37q57 33 80 56q20 16 37 -4q18 -18 -4 -35q-33 -33 -86 -62 q-6 -4 -15 -4q-16 0 -22 12zM866 897q16 18 35 4q43 -31 78 -78q18 -16 -2 -37q-8 -4 -18.5 -3.5t-20.5 10.5q-25 35 -66 69q-18 14 -6 35zM952 227q23 27 49 84q8 23 33 13q23 -8 15 -33q-14 -33 -54 -96q-10 -10 -20 -11q-4 0 -9.5 3t-7.5 3q-23 16 -6 37zM991 709 q-10 23 10 34q23 14 37 -10q25 -55 37 -100q4 -25 -18 -33h-8q-19 1 -23 21q-12 47 -35 88zM1030 403q8 41 8 99v20q0 23 27 29q27 0 27 -27v-22q0 -57 -13 -109q-4 -20 -26 -20h-4q-23 4 -19 30z" />
<glyph unicode="p" horiz-adv-x="1351" d="M190 -4v104q0 25 27 25q25 0 25 -25v-104q0 -25 -25 -25q-10 0 -18.5 7.5t-8.5 17.5zM190 -106q0 25 27 24q25 0 25 -24v-105q0 -27 -25 -27q-10 0 -18.5 8.5t-8.5 18.5v105zM190 203v104q0 27 27 27q12 0 19 -10q2 2 10 6q25 12 33 -13q14 -35 49 -86q16 -23 -4 -34 q-8 -6 -17 -7q-16 1 -20 11q-23 25 -45 73v-71q0 -25 -25 -25q-10 0 -18.5 7.5t-8.5 17.5zM190 -315q0 27 27 26q25 0 25 -26v-103q0 -27 -25 -26q-27 -1 -27 26v103zM190 412v102q0 27 27 27q25 0 25 -27v-102q0 -27 -25 -27q-27 0 -27 27zM190 618v105q0 25 27 25 q25 0 25 -25v-12q12 16 28 6q23 -6 15 -33q-6 -8 -6 -14q-6 -14 -23 -15q-8 0 -10 2q-4 0 -4 2v-41q0 -27 -25 -26q-10 0 -18.5 8t-8.5 18zM190 825v105q0 27 27 26q25 0 25 -26v-105q0 -25 -25 -24q-10 0 -18.5 7t-8.5 17zM291 801q33 37 76 78q20 16 36 -5q20 -20 -2 -34 q-43 -39 -67 -74q-12 -8 -22.5 -8t-14.5 6q-16 12 -6 37zM349 138.5q-1 11.5 7 19.5q18 18 37 2q27 -27 80 -58q10 -4 13 -13t-3 -19q-6 -16 -22 -17q-7 0 -15 6q-49 23 -88 62q-8 6 -9 17.5zM446 903q-8 25 15 35q43 27 100 39q27 4 31 -19q8 -23 -19 -34q-27 -4 -90 -31 q-8 -4 -12 -4q-17 0 -25 14zM532 49q2 10 11.5 15.5t19.5 1.5q61 -12 96 -13q10 0 18.5 -8t8.5 -18q0 -25 -27 -25q-33 0 -108 14q-27 6 -19 33zM645 963q0 10 7 18t18 8q43 0 108 -12q27 -12 19 -33q-5 -20 -23 -20h-8q-53 14 -96 14q-25 0 -25 25zM737 33q-2 8 3 18t16 12 q41 8 94 31q20 10 33 -12q14 -23 -11 -33q-55 -27 -104 -37h-8q-19 1 -23 21zM846 924q12 23 37 14q53 -33 90 -64q8 -4 8 -15t-4 -19q-8 -8 -23 -9q-10 1 -14 5q-49 37 -80 55q-23 12 -14 33zM922 130q0 11 8 17q45 37 69 70q16 20 37 4q18 -18 4 -35q-35 -43 -77 -77 q-6 -8 -15 -9q-12 1 -22 11q-4 8 -4 19zM1004 764q-12 23 6 37q20 18 37 -6q33 -41 57 -95q8 -23 -14 -32q-4 -2 -11 -2q-18 0 -24 14q-29 57 -51 84zM1047.5 279.5q-3.5 9.5 3.5 19.5q23 43 30 94q8 25 33 19q25 -8 21 -31q-18 -70 -37 -102q-6 -14 -23 -15q-8 0 -14 2 q-10 4 -13.5 13.5zM1085 588q-8 27 21 30q18 4 31 -20q10 -57 10 -104v-5q-4 -26 -27 -26h-2q-10 0 -17 8t-5 18v5q0 18 -11 94z" />
<glyph unicode="q" horiz-adv-x="1351" d="M123 494v4q0 61 10 104q4 25 28.5 20.5t20.5 -30.5q-8 -57 -8 -94v-4q0 -10 -7 -18.5t-17 -8.5q-27 0 -27 27zM135 385q-6 23 19 31q10 2 19 -3t11 -16q12 -53 33 -94q12 -25 -10 -33q-6 -2 -14 -2q-17 1 -23 15q-20 39 -35 102zM164 705q25 53 57 94q14 23 37 6 q18 -14 4 -37q-29 -37 -49 -84q-6 -14 -23 -14q-8 0 -12 2q-23 10 -14 33zM227 190q-14 16 4 35q23 18 37 -4q31 -39 70 -69q18 -16 2 -37q-6 -8 -21 -9q-10 1 -14 7q-43 35 -78 77zM291 844q-18 23 4 35q29 27 90 63q25 8 37 -14q8 -20 -10 -33q-35 -16 -84 -55 q-2 -4 -17 -4q-12 0 -20 8zM383 66.5q-4 9.5 2 19.5q8 25 33 12q55 -25 94 -30q10 -2 15 -12.5t3 -18.5q-6 -21 -24 -21h-6q-59 14 -103 37q-10 4 -14 13.5zM471 948q-8 20 16 33q74 12 111 12q10 0 17.5 -8t7.5 -18q0 -25 -25 -25q-43 0 -96 -14h-8q-19 0 -23 20zM582 31 q0 27 26 26q31 0 97 13q23 10 30 -17q8 -25 -18 -33q-49 -14 -107 -14h-2q-26 0 -26 25zM676 963q4 23 31 18q55 -12 102 -39q23 -10 12 -35q-8 -14 -24 -14q-7 0 -11 4q-70 29 -94 31q-23 10 -16 35zM781 93q3 9 14 13q53 31 79 58q18 16 37 -2q8 -8 7.5 -19.5t-9.5 -17.5 q-39 -39 -88 -62q-10 -6 -14 -6q-17 1 -23 17q-6 10 -3 19zM857 859q-1 11 7 20q18 23 37 4q43 -37 74 -82q14 -16 -4 -35q-8 -6 -17 -6q-4 0 -20 10q-31 41 -68 74q-8 4 -9 15zM940 236q23 31 49 86q8 25 33 12q4 -2 8 -6q6 10 21 10q27 0 26 -27v-104q0 -8 -8 -16.5 t-18 -8.5q-25 0 -25 25v69q-20 -41 -45 -71q-8 -10 -20 -10q-10 0 -13 6q-25 10 -8 35zM983 688q-8 27 14 33q14 8 29 -6v12q0 25 25 25q27 0 26 -25v-104q0 -8 -8 -17.5t-18 -9.5q-25 0 -25 27v41l-4 -2q-2 -2 -10 -3q-16 0 -23 15q0 6 -6 14zM1026 0v104q0 25 25 25 q27 0 26 -25v-104q0 -8 -8 -16.5t-18 -8.5q-25 0 -25 25zM1026 -102q0 25 25 24q27 0 26 -24v-105q0 -10 -8 -18t-18 -8q-25 -1 -25 26v105zM1026 -311q0 27 25 26q27 0 26 -26v-103q0 -10 -8 -18t-18 -8q-25 -1 -25 26v103zM1026 416v102q0 27 25 27q27 0 26 -27v-102 q0 -10 -8 -18.5t-18 -8.5q-25 0 -25 27zM1026 829v105q0 27 25 27q10 0 18 -8.5t8 -18.5v-105q0 -8 -8 -16t-18 -8q-25 -1 -25 24z" />
<glyph unicode="r" horiz-adv-x="899" d="M190 27v104q0 29 27 29q10 0 18.5 -9.5t8.5 -19.5v-104q0 -27 -27 -27t-27 27zM190 238v106q0 27 27 27q10 0 18.5 -8.5t8.5 -18.5v-106q0 -10 -8.5 -18.5t-18.5 -8.5q-27 0 -27 27zM190 449v45v2v59q0 27 27 27h4l8 16q8 25 33 14q25 -6 17 -34q-20 -45 -35 -89v-40 q0 -25 -27 -25t-27 25zM190 662v104q0 29 27 29q10 0 18.5 -9.5t8.5 -19.5v-104q0 -27 -27 -27t-27 27zM190 872v107q0 27 27 27q8 0 17.5 -9.5t9.5 -17.5v-107q0 -27 -27 -27t-27 27zM276 694q37 66 60 94q14 20 37 7q18 -18 6 -39q-27 -37 -55 -84q-10 -16 -25 -17l-12 7 q-25 8 -11 32zM408 831q-18 23 0 41q45 39 88 70q25 8 36 -12q6 -8 3 -19.5t-11 -15.5q-39 -23 -80 -64q-6 -6 -18 -6q-8 0 -18 6zM580 954q-8 25 18 31q47 14 111 21q10 0 18 -8.5t8 -18.5q0 -27 -26 -27q-66 -8 -97 -16q-4 -2 -6 -2q-22 0 -26 20z" />
<glyph unicode="s" horiz-adv-x="1007" d="M106 780q8 57 48 105q18 23 36 4q18 -14 5 -37q-31 -37 -37 -80q-4 -20 -27 -20h-2q-27 4 -23 28zM125 666q-10 20 10 34q25 10 35 -12q25 -39 63 -63q20 -16 7 -35q-6 -12 -21 -12q-6 0 -14 4q-51 33 -80 84zM158 121q14 23 37 10q41 -25 88 -43q20 -10 14 -35 q-6 -16 -25 -16q-2 0 -4 1t-4 1q-49 20 -96 47q-20 14 -10 35zM231 922q-16 25 11 34q53 29 102 39q23 8 31 -18q4 -27 -21 -31q-43 -10 -88 -35q-8 -4 -12 -4q-17 1 -23 15zM287 567q8 25 32 15q33 -12 97 -27q10 -2 15 -11t3 -20q-4 -20 -24 -20q-5 0 -7 2q-70 16 -102 29 q-25 8 -14 32zM346 39q4 27 31 22q33 -6 69 -6h27q27 0 27 -24q0 -27 -25 -27q-4 0 -14 -1t-15 -1q-26 0 -79 8q-25 4 -21 29zM426 981q0 10 8 18.5t19 6.5q53 0 106 -17q27 -8 19 -33q-8 -18 -25 -18q-6 0 -8 2q-49 14 -94 14q-25 0 -25 27zM485.5 516q8.5 25 30.5 19 q57 -16 102 -33q23 -8 15 -33q-6 -16 -25 -16q-6 0 -10 2q-53 18 -94 28q-27 8 -18.5 33zM551 39q-6 25 16 33q43 14 88 41q23 10 35 -9q14 -23 -8 -36q-35 -23 -98 -45h-9q-18 0 -24 16zM625 936q10 23 34 10q33 -18 91 -55q18 -14 6 -35q-6 -12 -21 -12q-6 0 -14 4 q-68 43 -86 53q-23 10 -10 35zM678 444q14 20 37 7q53 -43 73 -86q12 -25 -10 -35q-4 -2 -12 -2q-17 0 -23 14q-18 35 -59 68q-23 14 -6 34zM723 174q29 43 35 82q0 10 9 17.5t19 5.5q23 -4 23 -29q-10 -59 -45 -107q-6 -10 -21 -10q-8 0 -14 6q-23 14 -6 35z" />
<glyph unicode="t" horiz-adv-x="819" d="M86 979q0 27 27 27h102q27 0 27 -27q0 -25 -27 -25h-102q-27 0 -27 25zM260 154v6q0 27 26.5 26.5t26.5 -26.5v-6q0 -41 27 -72q18 -18 0 -37q-8 -6 -18 -6q-13 0 -19 8q-43 47 -43 107zM260 264v103q0 27 26.5 26t26.5 -26v-103q0 -27 -26.5 -27t-26.5 27zM260 471v104 q0 25 26.5 25t26.5 -25v-104q0 -27 -26.5 -27t-26.5 27zM260 678v104q0 27 26.5 27t26.5 -27v-104q0 -25 -26.5 -25t-26.5 25zM260 887v102q0 27 26.5 27t26.5 -27v-102q0 -27 -26.5 -27t-26.5 27zM260 1094v104q0 25 26.5 25t26.5 -25v-104q0 -27 -26.5 -27t-26.5 27z M260 1300v105q0 27 26.5 27t26.5 -27v-105q0 -25 -26.5 -25t-26.5 25zM332 979q0 27 26 27h103q27 0 26 -27q0 -25 -26 -25h-103q-27 0 -26 25zM387 25q0 25 27 24h4q25 0 24 -26q0 -25 -24 -25h-4q-27 0 -27 27z" />
<glyph unicode="u" horiz-adv-x="1255" d="M170 391q0 27 27 27q25 0 24 -27q8 -66 17 -92q6 -27 -17 -33h-6q-21 1 -27 17q-16 53 -18 108zM170 496v100q0 27 27 27q25 0 24 -27v-100q0 -27 -24 -27q-27 0 -27 27zM170 700v103q0 27 27 26q25 0 24 -26v-103q0 -27 -24 -26q-27 -1 -27 26zM170 907v72q0 10 8 17.5 t19 7.5q25 0 24 -25v-72q0 -27 -24 -26q-27 -1 -27 26zM236 182q-16 18 6 37q23 14 37 -8q35 -49 63 -72q18 -18 0 -37q-8 -8 -16 -8q-15 0 -19 6q-45 39 -71 82zM387 74q12 29 33 10q47 -20 92 -29q10 0 16.5 -9t3.5 -19q-2 -20 -24 -21h-6q-59 10 -103 33q-25 12 -12 35z M584 23q-4 29 24 28q55 6 92 23q20 10 33 -15q10 -25 -16 -32q-35 -14 -105 -27h-2q-26 0 -26 23zM780 84q-18 18 4 37q39 27 68 67q18 18 37 7q18 -18 4 -39q-35 -45 -76 -76q-6 -6 -16 -6q-15 0 -21 10zM901 270q10 31 23 92q8 23 28 23q23 -4 23 -29q-6 -63 -29 -106 q-4 -16 -22 -17q-7 1 -11 5q-23 8 -12 32zM928 463v104q0 25 24 25q10 0 18.5 -7t8.5 -18v-104q0 -25 -27 -25q-24 0 -24 25zM928 670v102q0 25 24 25q10 0 18.5 -7.5t8.5 -17.5v-102q0 -27 -27 -27q-24 0 -24 27zM928 874v105q0 25 24 25q10 0 18.5 -7.5t8.5 -17.5v-105 q0 -25 -27 -24q-24 -1 -24 24z" />
<glyph unicode="v" horiz-adv-x="1191" d="M115 963q-10 25 12 32q20 10 33 -12l41 -94q10 -20 -15 -33q-4 -2 -10 -2q-16 0 -24 14zM193 774q-10 23 14 33q25 12 33 -12l41 -95q10 -23 -17 -34q-2 -2 -10 -2q-15 0 -23 14zM272 584q-6 27 15 32q18 14 32 -10l39 -96q10 -23 -14 -33l-4 -2q-2 -2 -4 -2 q-17 1 -25 19zM352 397q-12 25 13 33q27 8 32 -14l41 -92q8 -25 -14 -37h-8q-19 0 -25 14zM432 207q-10 25 12 33q25 12 33 -13l41 -94q12 -25 -12 -33q-6 -2 -10 -2q-19 1 -27 15zM510 18q-8 23 14 33q6 4 17 0h6q23 -12 16 -33l-2 -2q-4 -10 -14 -14q-2 -2 -6 -2h-4h-5 q-6 0 -6 2h-2q-2 2 -4 2q-4 4 -8 12zM553 113.5q-4 9.5 2 19.5l37 94q12 25 35 13q25 -8 14 -33l-41 -94q-6 -14 -22 -15q-9 0 -11 2q-10 4 -14 13.5zM633 324l39 92q6 23 33 14q25 -6 16 -33l-41 -96q-9 -14 -23 -14h-10q-20 12 -14 37zM715 510l37 96q12 20 34 15 q20 -14 15 -37l-41 -92q-4 -18 -23 -19q-2 0 -6 2t-6 2q-20 12 -10 33zM793 700l38 95q8 25 33 12q25 -8 17 -33l-43 -96q-2 -14 -23 -14q-6 0 -10 2q-23 10 -12 34zM872 889l37 94q16 20 37 12q23 -8 12 -32l-38 -95q-6 -14 -25 -14q-8 0 -10 2q-23 12 -13 33z" />
<glyph unicode="w" horiz-adv-x="1763" d="M125 965q-12 25 14 32q23 12 35 -12l39 -94q10 -23 -16 -35q0 -2 -9 -2q-14 0 -24 16zM207 776q-10 20 12 33q27 8 33 -14l41 -95q8 -25 -14 -34h-11q-16 0 -22 14zM285 586q-8 25 12 35q23 10 35 -15l41 -96q10 -20 -17 -33l-4 -2h-6q-12 1 -22 19zM365 397q-8 25 14 35 q27 8 33 -16l41 -92q6 -25 -17 -35h-6q-21 0 -27 14zM444 207q-6 25 13 35q25 8 35 -15l40 -94q8 -27 -16 -33q-2 -2 -8 -2q-17 1 -25 15zM524 16v2q-10 20 13 33h2q-4 10 2 19l37 92q12 23 36 16q25 -12 13 -35l-41 -94q-4 -12 -13 -14q8 -27 -12 -33q-6 -2 -10 -2 q-21 0 -27 16zM618 256l44 94q8 27 32 17q23 -10 13 -35l-41 -94q-4 -16 -25 -17h-2q-4 2 -6 2q-23 6 -15 33zM698 446l41 97q10 20 35 12q20 -12 10 -35l-39 -94q-6 -16 -22 -16q-6 0 -10 4q-23 6 -15 32zM778 637l41 94q4 14 23 14q20 4 28 -14l39 -94q14 -25 -14 -33 q0 -4 -10 -4q-13 0 -23 16l-18 41l-17 -41q-6 -16 -26 -16q-4 0 -10 4q-20 6 -13 33zM901 520q-12 23 17 35q23 8 32 -12l39 -97q12 -25 -14 -32q-2 -4 -8 -4q-19 0 -25 16zM983 332q-12 23 12 35q23 10 35 -17l37 -94q6 -10 2 -19.5t-14 -13.5l-2 -2h-9q-12 1 -22 17z M1063 143q-14 20 12 35q27 8 35 -16l41 -92q2 -6 -2 -19h2q25 -12 14 -33l-2 -2q-10 -16 -22 -16q-8 0 -13 2q-25 8 -12 33q-12 4 -14 14zM1157 133l39 94q6 23 33 15q27 -12 16 -35l-41 -94q-6 -14 -22 -15q-9 0 -11 2q-23 6 -14 33zM1239 324l37 92q8 25 35 16 q23 -10 14 -35l-41 -94q-2 -14 -22 -14h-11q-25 12 -12 35zM1317 510l39 96q4 10 13 14.5t20 -2.5q29 -8 16 -32l-43 -92q-4 -18 -23 -19h-4q-4 2 -6 2q-23 12 -12 33zM1397 700l37 95q14 20 34 14q25 -10 15 -33l-39 -96q-7 -14 -25 -14h-8q-27 10 -14 34zM1477 891l39 94 q10 20 34.5 12t12.5 -32l-41 -95q-4 -16 -23 -16q-4 0 -10 2q-23 10 -12 35z" />
<glyph unicode="x" horiz-adv-x="1167" d="M145 43l64 84q14 20 37 6q20 -14 6 -37l-64 -86q-8 -10 -22 -10q-10 0 -16 6q-18 10 -5 37zM174 958q-14 25 6.5 39.5t36.5 -6.5l66 -86q12 -23 -7 -37q-6 -6 -16 -6q-14 0 -20 12zM270 213l66 88q12 23 37 6q18 -18 6 -37l-62 -88q-12 -12 -24 -12q-2 0 -14 6 q-25 16 -9 37zM301 788q-14 20 4 35q27 18 37 -4l66 -86q16 -20 -7 -39q-8 -4 -16 -4q-10 0 -20 10zM399 387l62 86q6 10 17 12t20 -8q25 -10 6 -37l-62 -84q-6 -12 -22 -12q-2 0 -8.5 3t-8.5 3q-23 14 -4 37zM426 614q-16 27 8 37q16 16 37 -4l57 -82l58 82q20 20 39 4 q23 -12 6 -37l-64 -84q-6 -12 -20 -12q-13 0 -17 4h-2q-6 -4 -16 -4q-14 0 -23 12zM553 440q-18 25 6 37q20 20 37 -4l63 -86q16 -25 -6 -37q-12 -6 -16 -6q-15 0 -23 12zM649 733l66 86q14 23 37 4q18 -12 6 -35l-66 -88q-6 -10 -20 -10q-5 0 -17 4q-18 18 -6 39zM680 270 q-14 18 6 37q20 16 37 -6l63 -88q16 -20 -8 -37q-6 -6 -14 -6q-15 0 -23 12zM776 905l66 86q12 20 37 6q18 -14 4 -39l-64 -84q-10 -12 -20 -12q-13 0 -17 6q-20 14 -6 37zM805 96q-12 23 6 37q25 16 37 -6l65 -84q12 -27 -6 -37q-6 -6 -16 -6q-15 0 -21 10z" />
<glyph unicode="y" horiz-adv-x="1204" d="M106 399q0 25 27 25q25 0 25 -25q0 -49 16 -94q8 -27 -18 -33h-9q-20 1 -22 19q-18 59 -19 108zM106 502v104q0 27 27 27q25 0 25 -27v-104q0 -10 -7.5 -17.5t-17.5 -7.5q-27 0 -27 25zM106 711v102q0 27 27 27q25 0 25 -27v-102q0 -10 -7.5 -18.5t-17.5 -8.5 q-27 0 -27 27zM106 918v71q0 27 27 27q10 0 17.5 -8.5t7.5 -18.5v-71q0 -10 -8.5 -18.5t-16.5 -8.5q-27 0 -27 27zM172 188q-14 25 6 37q23 12 37 -8q31 -45 64 -72q20 -18 2 -36q-10 -10 -21 -11q-8 0 -16 8q-35 29 -72 82zM293 -369q10 25 31 19q33 -8 98 -17q25 0 24 -24 q0 -10 -8 -18.5t-18 -8.5q-59 4 -109 19q-23 8 -18 30zM323.5 79.5q12.5 22.5 34.5 10.5q47 -20 91 -29q25 -2 20 -30q-5 -21 -23 -21h-6q-55 12 -106 33q-23 14 -10.5 36.5zM498 -389q-4 27 20 31q47 8 94 28q25 12 33 -12q10 -25 -12 -35q-45 -18 -105 -33h-4 q-22 1 -26 21zM522 29q0 29 23 28q57 8 96 23q20 10 31 -17q8 -23 -13 -32q-47 -16 -110 -27h-2q-21 0 -25 25zM692 -317q-20 20 6 36q49 41 70 68q16 20 37 2q20 -16 2 -35q-45 -51 -78 -76q-2 0 -7 -3t-9 -3q-17 1 -21 11zM719 90q-14 18 4 37q37 27 70 68q14 18 36 4 q18 -18 2 -39q-27 -37 -77 -74q-4 -6 -15 -6q-14 0 -20 10zM821 -133q23 47 35 92q4 25 31 21q23 -8 18 -33q-14 -57 -39 -103q-2 -12 -20 -12q-11 0 -15 2q-23 8 -10 33zM840 276q18 35 24 95q4 23 29 22.5t25 -24.5v-105q0 -27 -25 -26q-8 0 -19 6q-2 -2 -8 -2q-8 0 -10 2 q-25 6 -16 32zM866 57v103q0 27 27 26q25 0 25 -26v-103q0 -26 -25 -26q-27 0 -27 26zM866 467v4v104v5v2q2 2 4 5t2 5l2 2h3q6 6 16 6q12 0 18 -10q4 -4 4 -6l3 -4v-5v-104v-6q-2 -2 -2.5 -4t-3.5 -5t-3 -5h-2q-2 -2 -4 -2q-2 -2 -6 -3h-4q-8 0 -16 5q-11 6 -11 16z M866 674v4v104v4v2q2 2 2 3q0 4 2 4q2 8 13 12h2l4 2h4h4q6 -2 14 -10q4 -4 4 -8l3 -5v-4v-104q0 -2 -1.5 -6t-1.5 -6l-4 -4q0 -2 -1 -2.5t-1 -2.5l-2 -2h-4q0 -2 -2 -2h-8h-4q-8 0 -12 4l-7 7q-2 0 -2 4q-2 2 -2 6zM866 881v6v102v4q4 23 27 23h4h2q2 -2 4 -2l8 -8 q6 -6 7 -17v-102q0 -6 -3 -10q-4 -16 -22 -17h-8l-2 2q-2 2 -4 2q-8 4 -11 8v5z" />
<glyph unicode="z" horiz-adv-x="1134" d="M125 27q0 8 6 14l62 82q16 20 36 6q18 -14 4 -35l-32 -43h28q25 0 25 -24q0 -27 -25 -27h-73h-4q-11 0 -17 6q-2 0 -4 2q-6 6 -6 19zM125 979q0 8 9 17.5t18 9.5h77q25 0 25 -27t-25 -27h-77q-27 0 -27 27zM252 207l61 84q16 18 37 4q16 -16 6 -35l-63 -84 q-6 -10 -21 -10q-4 0 -16 4q-16 16 -4 37zM305 27q0 10 8.5 17t18.5 7h102q27 0 27 -24q0 -27 -27 -27h-102q-27 0 -27 27zM305 979q0 10 8.5 18.5t18.5 8.5h102q27 0 27 -27t-27 -27h-102q-27 0 -27 27zM373 373l61 84q16 25 37 4q16 -14 4 -37l-57 -80q-6 -10 -25 -10 q-10 0 -14 4q-18 14 -6 35zM496 539l61 84q10 20 35 6q25 -16 4 -37l-57 -82q-8 -10 -20.5 -10t-16.5 2q-23 20 -6 37zM512 27q0 10 8 17t19 7h102q27 0 27 -24q0 -27 -27 -27h-102q-27 0 -27 27zM512 979q0 10 8 18.5t19 8.5h102q27 0 27 -27t-27 -27h-102q-27 0 -27 27z M618 707l60 81q14 23 35 7q20 -18 8 -37l-64 -84q-10 -10 -18 -10q-4 0 -9 3t-7 3q-20 16 -5 37zM719 27q0 10 7 17t17 7h103q27 0 26 -24q1 -27 -26 -27h-103q-25 0 -24 27zM719 979q0 10 8 18.5t16 8.5h103q27 0 26.5 -27t-26.5 -27h-4q8 -16 0 -28l-62 -82 q-10 -10 -22 -11q-9 1 -15 7q-18 14 -4 34l58 80h-54q-25 0 -24 27z" />
<glyph unicode="{" horiz-adv-x="983" d="M115 618v3v2q0 27 26 26q20 2 58 6q12 2 22 -5t12 -19q0 -8 -2 -13q2 -4 2 -10q-3 -26 -30 -26h-4q-29 6 -58 6q-31 4 -26 30zM291 596q8 29 37 18q59 -16 116 -51q23 -18 7 -43q-8 -12 -25 -12q-8 0 -16 6q-43 29 -99 45q-29 6 -20 37zM291 643q-8 31 20 37q55 16 99 45 q27 18 41 -8q18 -23 -9 -41q-51 -33 -114 -53h-9q-22 0 -28 20zM459 158q0 31 6 63q4 29 32.5 25t24.5 -33q-4 -41 -4 -55q0 -29 6 -54q4 -31 -24 -34h-6q-25 -1 -29 24q-6 29 -6 64zM459 1081q0 33 6 64q4 29 35 24q29 -6 24 -34q-6 -25 -6 -54q0 -18 4 -55q2 -12 -5 -21.5 t-19 -11.5q-2 -2 -4 -2q-25 0 -29 27q-6 35 -6 63zM475 438q-10 25 17 39q27 12 38 -16q18 -47 19 -94q0 -25 -2 -37q-4 -27 -31 -27h-2q-31 4 -27 33q2 10 2 31q0 41 -14 71zM475 801q14 31 14 71q0 20 -2 30.5t6.5 21t20.5 12.5q29 0 33 -27q0 -6 1 -18t1 -19 q0 -49 -19 -94q-10 -18 -28 -18q-6 0 -10 2q-29 10 -17 39zM514 -27q-16 25 8 41q23 18 41 -8q29 -41 76 -74q27 -14 8 -41q-6 -12 -24 -12q-11 0 -17 4q-53 37 -92 90zM514 1266q39 53 92 90q27 14 41 -8q18 -27 -8 -41q-49 -35 -76 -76q-10 -12 -24 -12q-11 0 -17 6 q-25 14 -8 41zM702 -135q8 31 37 18q45 -14 78 -18l31 -6q12 0 20.5 -9.5t5.5 -21.5q0 -12 -9 -20.5t-19 -8.5h-2q-37 0 -123 29q-29 10 -19 37zM702 1372q-10 29 19 39q80 27 123 27q12 2 21 -6.5t9 -20.5q4 -29 -26 -33q-10 0 -31 -4q-41 -8 -78 -20l-4 -2h-6 q-21 0 -27 20z" />
<glyph unicode="|" horiz-adv-x="585" d="M248 53q0 31 30.5 31t30.5 -31v-121q0 -12 -9 -21t-21.5 -9t-21.5 9t-9 21v121zM248 176v121q0 12 9 21.5t21.5 9.5t21.5 -9.5t9 -21.5v-121q0 -12 -9 -21.5t-21.5 -9.5t-21.5 9.5t-9 21.5zM248 418v123q0 29 30.5 28.5t30.5 -28.5v-123q0 -12 -9 -21.5t-21.5 -9.5 t-21.5 9.5t-9 21.5zM248 662v120q0 12 9 21.5t21.5 9.5t21.5 -9t9 -22v-120q0 -12 -9 -21.5t-21.5 -9.5t-21.5 9.5t-9 21.5zM248 903v123q0 29 30.5 29t30.5 -29v-123q0 -29 -30.5 -29t-30.5 29zM248 1147v121q0 12 9 21t21.5 9t21.5 -9t9 -21v-121q0 -12 -9 -21.5 t-21.5 -9.5t-21.5 9.5t-9 21.5zM248 1389v122q0 29 30.5 29t30.5 -29v-122q0 -29 -30.5 -29t-30.5 29z" />
<glyph unicode="}" horiz-adv-x="983" d="M111 -172q-2 12 6 21.5t20 9.5l31 6q33 4 78 18q29 12 37 -18q10 -27 -19 -37q-86 -29 -123 -29h-2q-10 0 -19 8.5t-9 20.5zM111 1411q0 12 9 20.5t21 6.5q43 0 123 -27q29 -10 19 -39q-6 -20 -27 -20h-6l-4 2q-37 12 -78 20l-31 4q-31 4 -26 33zM338 -109q-18 27 8 41 q47 33 76 74q18 27 41 8q25 -16 8 -41q-39 -53 -92 -90q-6 -4 -17 -4q-18 0 -24 12zM338 1348q14 23 41 8q53 -37 92 -90q17 -27 -8 -41q-6 -6 -17 -6q-16 0 -24 12q-27 41 -76 76q-27 14 -8 41zM436 367q0 47 19 94q12 29 39 16q27 -14 16 -39q-14 -31 -14 -71q0 -20 2 -31 q4 -29 -27 -33h-2q-27 0 -31 27q-2 12 -2 37zM436 872q0 6 1 18.5t1 18.5q4 27 33 27q12 -2 20.5 -12.5t6.5 -20.5t-2 -31q0 -41 14 -71q13 -29 -16 -39q-4 -2 -11 -2q-20 0 -28 18q-18 45 -19 94zM461 104q6 25 6 54q0 14 -4 55q-4 29 24.5 33t32.5 -25q6 -35 6 -63 q0 -35 -6 -64q-4 -25 -28 -24h-7q-29 4 -24 34zM461 1135q-4 29 24 34q31 4 35 -24q6 -31 6 -64q0 -28 -6 -63q-4 -27 -28 -27q-2 0 -5 2q-12 2 -19 11.5t-5 21.5q4 37 4 55q0 29 -6 54zM535 520q-16 25 6 43q57 35 116 51q29 10 37 -18q8 -31 -20 -37q-56 -16 -99 -45 q-10 -6 -16 -6q-14 0 -24 12zM535 717q14 27 40 8q43 -29 99 -45q28 -6 20 -37q-6 -20 -28 -20h-9q-63 20 -114 53q-27 18 -8 41zM752 608q0 6 2 10q-2 4 -2 13q2 12 12 19t22 5q37 -4 58 -6q27 0 26 -26v-2v-3q4 -27 -26 -30q-29 0 -58 -6h-4q-27 0 -30 26z" />
<glyph unicode="~" horiz-adv-x="942" d="M178 1325l35 35q8 8 16 0q6 -10 -2 -19l-8 -8l-8 -8l-6 -6l-8 -8q-4 -6 -8.5 -6t-8.5 4q-10 4 -2 16zM250 1372q-6 12 4 17q18 12 45 22q12 0 14 -8q4 -12 -8 -17q-18 -6 -41 -16l-4 -4q-10 0 -10 6zM338 1407q-2 12 10 12q4 2 17 2q4 0 16 -1t16 -1q10 -4 10 -14 t-12 -10h-2q-10 2 -28 2h-17q-4 -2 -7 2t-3 8zM430 1399q4 6 16 6q29 -14 43 -25q12 -6 3 -16q0 -4 -9 -4q-4 0 -8 2q-6 4 -39 20q-10 4 -6 17zM512 1350q6 10 16 4q31 -16 41 -19q14 -4 6 -16q-4 -8 -10 -8q-2 0 -4 2q-18 6 -45 20q-12 8 -4 17zM598 1313q4 14 14 10 q10 -2 31 -2h14q8 0 13 -10q0 -12 -11 -13q-4 0 -9 -1t-7 -1h-2q-13 0 -33 4q-10 0 -10 13zM692 1315q-4 10 8 16q23 8 39 19q8 8 17 -2q2 -2 1 -8.5t-5 -8.5q-10 -8 -43 -22l-2 -2h-2q-9 0 -13 8zM770 1382q16 18 21 37q8 10 16 8q12 -8 6 -16q-2 -6 -25 -45q-2 -2 -10 -2 q-4 0 -6 2q-10 8 -2 16z" />
<glyph unicode="&#xad;" horiz-adv-x="835" d="M135 717q0 23 15 22h59q16 0 16 -22q0 -20 -16 -21h-59q-14 0 -15 21zM254 717q0 23 14 22h60q16 0 16 -22q0 -20 -16 -21h-60q-14 0 -14 21zM373 717q0 23 14 22h59q16 0 17 -22q0 -20 -17 -21h-59q-14 0 -14 21z" />
<glyph unicode="&#x2dc;" horiz-adv-x="1024" d="M219 1325l35 35q8 8 16 0q6 -10 -2 -19l-8 -8l-8 -8l-6 -6l-8 -8q-4 -6 -8.5 -6t-8.5 4q-10 4 -2 16zM291 1372q-6 12 4 17q18 12 45 22q12 0 14 -8q4 -12 -8 -17q-18 -6 -41 -16l-4 -4q-10 0 -10 6zM379 1407q-2 12 10 12q4 2 17 2q4 0 16 -1t16 -1q10 -4 10 -14 t-12 -10h-2q-10 2 -28 2h-17q-4 -2 -7 2t-3 8zM471 1399q4 6 16 6q29 -14 43 -25q12 -6 2 -16q0 -4 -8 -4q-4 0 -8 2q-6 4 -39 20q-10 4 -6 17zM553 1350q6 10 16 4q31 -16 41 -19q14 -4 6 -16q-4 -8 -10 -8q-2 0 -4 2q-18 6 -45 20q-12 8 -4 17zM639 1313q4 14 14 10 q10 -2 31 -2h14q8 0 13 -10q0 -12 -11 -13q-4 0 -9 -1t-7 -1h-2q-13 0 -33 4q-10 0 -10 13zM733 1315q-4 10 8 16q23 8 39 19q8 8 17 -2q2 -2 1 -8.5t-5 -8.5q-10 -8 -43 -22l-2 -2h-3q-8 0 -12 8zM811 1382q16 18 20 37q8 10 17 8q12 -8 6 -16q-2 -6 -25 -45q-2 -2 -10 -2 q-4 0 -6 2q-10 8 -2 16z" />
<glyph unicode="&#x2000;" horiz-adv-x="827" />
<glyph unicode="&#x2001;" horiz-adv-x="1655" />
<glyph unicode="&#x2002;" horiz-adv-x="827" />
<glyph unicode="&#x2003;" horiz-adv-x="1655" />
<glyph unicode="&#x2004;" horiz-adv-x="551" />
<glyph unicode="&#x2005;" horiz-adv-x="413" />
<glyph unicode="&#x2006;" horiz-adv-x="275" />
<glyph unicode="&#x2007;" horiz-adv-x="275" />
<glyph unicode="&#x2008;" horiz-adv-x="206" />
<glyph unicode="&#x2009;" horiz-adv-x="331" />
<glyph unicode="&#x200a;" horiz-adv-x="91" />
<glyph unicode="&#x2010;" horiz-adv-x="835" d="M135 717q0 23 15 22h59q16 0 16 -22q0 -20 -16 -21h-59q-14 0 -15 21zM254 717q0 23 14 22h60q16 0 16 -22q0 -20 -16 -21h-60q-14 0 -14 21zM373 717q0 23 14 22h59q16 0 17 -22q0 -20 -17 -21h-59q-14 0 -14 21z" />
<glyph unicode="&#x2011;" horiz-adv-x="835" d="M135 717q0 23 15 22h59q16 0 16 -22q0 -20 -16 -21h-59q-14 0 -15 21zM254 717q0 23 14 22h60q16 0 16 -22q0 -20 -16 -21h-60q-14 0 -14 21zM373 717q0 23 14 22h59q16 0 17 -22q0 -20 -17 -21h-59q-14 0 -14 21z" />
<glyph unicode="&#x2012;" horiz-adv-x="835" d="M135 717q0 23 15 22h59q16 0 16 -22q0 -20 -16 -21h-59q-14 0 -15 21zM254 717q0 23 14 22h60q16 0 16 -22q0 -20 -16 -21h-60q-14 0 -14 21zM373 717q0 23 14 22h59q16 0 17 -22q0 -20 -17 -21h-59q-14 0 -14 21z" />
<glyph unicode="&#x2013;" horiz-adv-x="1531" d="M135 717q0 23 47 22h184q50 0 50 -22q0 -20 -50 -21h-184q-44 0 -47 21zM507 717q0 23 43 22h188q49 0 49 -22q0 -20 -49 -21h-188q-43 0 -43 21zM878 717q0 23 44 22h184q50 0 53 -22q0 -20 -53 -21h-184q-44 0 -44 21z" />
<glyph unicode="&#x2014;" horiz-adv-x="2555" d="M135 717q0 23 94 22h368q100 0 100 -22q0 -20 -100 -21h-368q-88 0 -94 21zM878 717q0 23 87 22h375q100 0 100 -22q0 -20 -100 -21h-375q-87 0 -87 21zM1621 717q0 23 87 22h369q100 0 106 -22q0 -20 -106 -21h-369q-87 0 -87 21z" />
<glyph unicode="&#x2018;" d="M158 1370v2v6v6v7q0 2 2 4q10 37 47 37q23 0 38 -15.5t15 -38.5q0 -20 -15.5 -34.5t-37.5 -14.5h-12q14 -33 49 -41q16 -8 10 -18q0 -12 -12 -13h-6q-78 20 -78 113z" />
<glyph unicode="&#x2019;" d="M121 1380.5q0 20.5 15.5 37t37.5 16.5q37 0 47 -37q0 -4 2 -4v-21q0 -92 -78 -112h-6q-12 0 -12 12q-6 10 10 18q37 8 47 41h-10q-23 0 -38 14.5t-15 35z" />
<glyph unicode="&#x201a;" />
<glyph unicode="&#x201c;" horiz-adv-x="839" d="M158 1300v13v6v2q0 92 78 113h6q12 -1 12 -13q6 -10 -10 -18q-35 -10 -49 -43q4 2 12 2q23 0 38 -14.5t15 -34.5q0 -23 -15.5 -38t-37.5 -15q-37 0 -47 36q-2 0 -2 4zM309 1300v5v8v8q0 92 78 113h6q13 -1 13 -13q6 -10 -11 -18q-35 -10 -49 -43q4 2 12 2 q23 0 38.5 -14.5t15.5 -34.5q0 -23 -15.5 -38t-38.5 -15q-37 0 -47 36q-2 0 -2 4z" />
<glyph unicode="&#x201d;" horiz-adv-x="839" d="M121 1382q0 23 15.5 38.5t37.5 15.5q37 0 47 -37q0 -4 2 -4v-13v-6v-2q0 -92 -78 -112h-6q-12 0 -12 12q-6 10 10 18q37 8 47 41h-10q-23 0 -38 14.5t-15 34.5zM272 1382q0 23 15.5 38.5t38.5 15.5q37 0 47 -37q0 -4 2 -4v-13v-6v-2q0 -92 -78 -112h-6q-12 0 -12 12 q-6 10 10 18q37 8 47 41h-10q-23 0 -38.5 14.5t-15.5 34.5z" />
<glyph unicode="&#x202f;" horiz-adv-x="331" />
<glyph unicode="&#x205f;" horiz-adv-x="413" />
<glyph unicode="&#x25fc;" horiz-adv-x="1003" d="M0 0v1004h1004v-1004h-1004z" />
</font>
</defs>
</svg>
