<svg width="18" height="20" viewBox="0 0 18 20" fill="none" xmlns="http://www.w3.org/2000/svg">
<path d="M16.4286 10H7.14288" stroke="#1F2041" stroke-opacity="0.5" stroke-width="2" stroke-linecap="round" stroke-linejoin="round"/>
<path d="M12.8571 16.4286V18.5714H1.42857V1.42857H12.8571V3.57143H14.2857V0.714286C14.2857 0.524845 14.2105 0.343164 14.0765 0.209209C13.9426 0.0752549 13.7609 0 13.5714 0H0.714286C0.524845 0 0.343164 0.0752549 0.20921 0.209209C0.075255 0.343164 0 0.524845 0 0.714286V19.2857C0 19.4752 0.075255 19.6568 0.20921 19.7908C0.343164 19.9247 0.524845 20 0.714286 20H13.5714C13.7609 20 13.9426 19.9247 14.0765 19.7908C14.2105 19.6568 14.2857 19.4752 14.2857 19.2857V16.4286H12.8571Z" fill="#1F2041" fill-opacity="0.5"/>
<path d="M7.14288 9.99997L10 7.14282" stroke="#1F2041" stroke-opacity="0.5" stroke-width="2" stroke-linecap="round" stroke-linejoin="round"/>
<path d="M7.14288 10L10 12.8571" stroke="#1F2041" stroke-opacity="0.5" stroke-width="2" stroke-linecap="round" stroke-linejoin="round"/>
<path d="M13.5714 4.28575V2.85718" stroke="#1F2041" stroke-opacity="0.5" stroke-width="2" stroke-linecap="round" stroke-linejoin="round"/>
<path d="M13.5714 17.1429V15.7144" stroke="#1F2041" stroke-opacity="0.5" stroke-width="2" stroke-linecap="round" stroke-linejoin="round"/>
</svg>
